<?xml version="1.0" encoding="utf-8"?>
<!-- Generator: Adobe Illustrator 22.0.0, SVG Export Plug-In . SVG Version: 6.00 Build 0)  -->
<svg version="1.1" id="katman_1" xmlns="http://www.w3.org/2000/svg" xmlns:xlink="http://www.w3.org/1999/xlink" x="0px" y="0px"
	 viewBox="0 0 850.4 850.4" style="enable-background:new 0 0 850.4 850.4;" xml:space="preserve">
<style type="text/css">
	.st0{fill:#303030;}
	.st1{fill:#FFD105;}
</style>
<g id="svgg">
	<path id="path3" class="st0" d="M23.9,472.4v23.2h6.8h6.8v-23.2v-23.2h-6.8h-6.8V472.4 M149.6,453.5c0,3.6-0.1,4.3-0.5,4.3
		c-0.3,0-0.5-0.2-0.5-0.5c0-0.4-0.7-0.5-4.3-0.5c-3.6,0-4.3,0.1-4.3,0.5c0,0.4-0.4,0.5-1.1,0.5c-0.7,0-1.1,0.2-1.1,0.5
		c0,0.3-0.2,0.5-0.5,0.5c-0.3,0-0.5,0.2-0.5,0.5c0,0.3-0.2,0.6-0.5,0.7c-0.5,0.2-0.5,2.3-0.5,16.1c0,13.8,0.1,15.9,0.5,16.1
		c0.3,0.1,0.5,0.4,0.5,0.7c0,0.3,0.2,0.5,0.5,0.5c0.3,0,0.5,0.2,0.5,0.5c0,0.3,0.2,0.5,0.5,0.5c0.3,0,0.6,0.2,0.7,0.5
		c0.2,0.4,1.1,0.5,4.9,0.5c3.9,0,4.7-0.1,4.7-0.5c0-0.3,0.2-0.5,0.5-0.5c0.3,0,0.5,0.2,0.5,0.5c0,0.5,1,0.5,6.8,0.5h6.8v-23.2v-23.2
		h-6.8h-6.8V453.5 M240.3,480.6l0,15h6.4h6.4v-15v-15h-6.4h-6.4L240.3,480.6 M381,472.4v23.2h10.9c9.4,0,10.9-0.1,11.1-0.5
		c0.1-0.3,0.7-0.5,1.2-0.5c0.7,0,1-0.2,1-0.5c0-0.3,0.4-0.6,1-0.6c0.8-0.1,1-0.3,1.1-1.1c0.1-0.6,0.3-1,0.6-1c0.4,0,0.5-0.5,0.5-2.1
		c0-1.7,0.1-2.1,0.5-2.1c0.5,0,0.5-1.8,0.5-14.1c0-12.3-0.1-14.1-0.5-14.1c-0.4,0-0.5-0.5-0.5-2.1c0-1.7-0.1-2.1-0.5-2.1
		c-0.4,0-0.5-0.4-0.5-1.1c0-0.7-0.2-1.1-0.5-1.1c-0.3,0-0.5-0.2-0.5-0.5c0-0.3-0.2-0.5-0.5-0.5c-0.3,0-0.6-0.2-0.7-0.5
		c-0.1-0.4-0.7-0.5-1.6-0.5c-1,0-1.4-0.1-1.4-0.5c0-0.5-1.4-0.5-10.5-0.5H381V472.4 M517.4,472.4v23.2h6.8h6.8v-23.2v-23.2h-6.8
		h-6.8V472.4 M543.8,472.4v23.2h10h10v-5.2v-5.2H560h-3.7v-18v-18H550h-6.2V472.4 M577.6,465.4c0.1,0.5,0.5,0.6,1.6,0.6h1.4v13.2
		c0,11.5,0.1,13.2,0.5,13.2c0.3,0,0.5,0.2,0.5,0.5c0,0.3,0.2,0.5,0.5,0.5c0.3,0,0.5,0.2,0.5,0.5c0,0.4,0.4,0.5,1.1,0.5
		s1.1,0.2,1.1,0.5c0,0.5,0.9,0.5,5.9,0.5h5.9l-0.1-3.7c-0.1-3.5-0.1-3.7-0.9-3.8c-2.2-0.3-2.2-0.5-2.2-11.8v-10.3l1.6-0.1l1.6-0.1
		v10.6c0,9.2,0.1,10.6,0.5,10.6c0.4,0,0.5,0.4,0.5,1.6c0,1.2,0.1,1.6,0.5,1.6c0.4,0,0.5,0.4,0.5,1.1c0,0.7,0.2,1.1,0.5,1.1
		c0.3,0,0.6,0.2,0.7,0.5c0.1,0.3,0.6,0.5,1.1,0.5c0.6,0,0.9,0.2,0.9,0.5c0,0.3,0.3,0.5,0.9,0.5c0.5,0,0.9,0.2,1.1,0.5
		c0.2,0.4,1.3,0.5,6.8,0.5c5.6,0,6.7-0.1,6.8-0.5c0.1-0.3,0.6-0.5,1.1-0.5c0.5,0,0.9-0.2,0.9-0.5c0-0.3,0.2-0.5,0.4-0.5
		c0.7,0,2.8-2.3,3-3.4c0.1-0.5,0.4-0.9,0.6-0.9s0.3-2.3,0.3-5.2v-5.2h-6.2h-6.2v4.1c0,3.4-0.1,4.1-0.5,4.1c-0.3,0-0.5-0.2-0.5-0.4
		c0-0.2-0.2-0.4-0.5-0.4c-0.4,0-0.5-0.7-0.5-4.3v-4.3h7.3h7.3v-6.4c0-4-0.1-6.4-0.4-6.4c-0.2,0-0.4-0.6-0.4-1.3
		c0-0.8-0.2-1.3-0.5-1.5c-0.3-0.1-0.5-0.4-0.5-0.7c0-0.3-0.2-0.5-0.5-0.5c-0.3,0-0.5-0.2-0.5-0.5c0-0.3-0.2-0.5-0.5-0.5
		c-0.3,0-0.5-0.2-0.5-0.5c0-0.3-0.2-0.5-0.5-0.5c-0.3,0-0.6-0.2-0.7-0.5c-0.1-0.4-0.7-0.5-1.6-0.5c-1,0-1.4-0.1-1.4-0.5
		c0-0.5-0.9-0.5-5.7-0.5c-4.8,0-5.7,0.1-5.7,0.5c0,0.4-0.4,0.5-1.1,0.5c-0.7,0-1.1,0.2-1.1,0.5c0,0.4-0.4,0.5-1.1,0.5
		s-1.1,0.2-1.1,0.5c0,0.3-0.2,0.5-0.5,0.5c-0.4,0-0.5,0.4-0.5,1.1c0,0.7-0.2,1.1-0.5,1.1c-0.4,0-0.5,0.4-0.5,1.4
		c0,0.9-0.2,1.5-0.5,1.6c-0.4,0.2-0.5-0.4-0.6-3.4l-0.1-3.6l-1.5-0.1l-1.5-0.1v-2.7v-2.7H587h-6.4v2.7v2.7h-1.4
		c-0.8,0-1.5,0.2-1.6,0.4c-0.1,0.2-0.2-1.7-0.2-4.3l0-4.7h-6.2h-6.2v23.2 M564.9,472.4v23.2h6.2h6.2l0-15.4c0-8.5,0.1-15.2,0.2-14.8
		 M70.3,455.1v2.7l-1.5,0.1c-1.4,0.1-1.5,0.2-1.6,1.3c-0.1,1.1-1.1,1.4-1.1,0.3c0-0.3-0.2-0.5-0.5-0.5c-0.3,0-0.5-0.2-0.5-0.5
		c0-0.3-0.2-0.5-0.5-0.5c-0.3,0-0.6-0.2-0.7-0.5c-0.2-0.4-1-0.5-4.7-0.5c-3.7,0-4.5,0.1-4.5,0.5c0,0.3-0.2,0.5-0.5,0.5
		c-0.3,0-0.6,0.3-0.7,0.6c-0.1,0.3-0.2,0.1-0.2-0.5l0-1.2l-6.7,0.1l-6.7,0.1v19.3v19.3l6.7,0.1l6.7,0.1v-15.4
		c0-15.1,0-15.4,0.7-15.4c0.7,0,0.7,0.2,0.7,15.4v15.4h6.2h6.2v-14.9v-14.9l1.6,0.1l1.6,0.1v13.2c0,11.5,0.1,13.2,0.5,13.2
		c0.3,0,0.5,0.2,0.5,0.5c0,0.3,0.2,0.5,0.5,0.5c0.3,0,0.5,0.2,0.5,0.5c0,0.4,0.4,0.5,1.1,0.5c0.7,0,1.1,0.2,1.1,0.5
		c0,0.5,0.9,0.5,5.7,0.5H86v-3.7v-3.7h-0.9c-2.2,0-2.3-0.4-2.3-11.8V466h1.6H86v-4.1v-4.1h-1.6h-1.6v-2.7v-2.7h-6.2h-6.2V455.1
		 M223.5,455.1v2.7l-1.5,0.1l-1.5,0.1l-0.1,2.1c-0.1,1.9-1.1,3.2-1.1,1.5c0-0.3-0.2-0.5-0.5-0.5c-0.3,0-0.5-0.2-0.5-0.5
		c0-0.3-0.2-0.5-0.5-0.5c-0.3,0-0.5-0.2-0.5-0.5c0-0.3-0.2-0.5-0.5-0.5c-0.3,0-0.5-0.2-0.5-0.5c0-0.4-0.4-0.5-1.6-0.5
		c-1.2,0-1.6-0.1-1.6-0.5c0-0.4-0.8-0.5-5.2-0.5s-5.2,0.1-5.2,0.5c0,0.4-0.4,0.5-1.4,0.5c-0.9,0-1.5,0.2-1.6,0.5
		c-0.1,0.3-0.4,0.5-0.7,0.5s-0.5,0.2-0.5,0.5c0,0.3-0.2,0.5-0.5,0.5s-0.5,0.2-0.5,0.5c0,0.3-0.2,0.5-0.5,0.5s-0.5,0.2-0.5,0.5
		c0,0.3-0.2,0.5-0.5,0.5c-0.4,0-0.5,0.5-0.5,2.1c0,1.5-0.1,2.2-0.5,2.3c-0.5,0.2-0.5,1.5-0.5,9.3c0,7.9,0.1,9.1,0.5,9.1
		c0.4,0,0.5,0.5,0.5,2.5c0,1.9,0.1,2.6,0.5,2.7c0.3,0.1,0.5,0.4,0.5,0.7c0,0.3,0.2,0.5,0.5,0.5c0.3,0,0.6,0.4,0.6,1
		c0.1,0.8,0.3,1,1.1,1.1c0.6,0.1,1,0.3,1,0.6c0,0.3,0.4,0.5,1.1,0.5c0.7,0,1.1,0.2,1.1,0.5c0,0.5,0.9,0.5,6.2,0.5
		c5.3,0,6.2-0.1,6.2-0.5c0-0.4,0.4-0.5,1.1-0.5c0.7,0,1.1-0.2,1.1-0.5c0-0.3,0.4-0.6,1-0.6c0.8-0.1,1-0.3,1.1-1.1
		c0.1-0.6,0.3-1,0.6-1c0.3,0,0.5-0.2,0.5-0.5c0-0.3,0.2-0.5,0.5-0.5c0.4,0,0.5-0.4,0.5-1.6c0-1.2,0.1-1.6,0.5-1.6
		c0.4,0,0.5-0.7,0.5-4.1v-4.1h-5.7h-5.7v3.2c0,2.6-0.1,3.2-0.5,3.2c-0.3,0-0.5,0.3-0.5,0.9c0,0.6-0.2,0.9-0.5,0.9
		c-0.5,0-0.5-1.5-0.5-11.1c0-9.6,0.1-11.1,0.5-11.1c0.4,0,0.5,0.7,0.5,3.7v3.7h6.2h6.2v-3.2V466h1.1h1.1v13.2
		c0,11.5,0.1,13.2,0.5,13.2c0.3,0,0.5,0.2,0.5,0.5c0,0.3,0.2,0.5,0.5,0.5c0.3,0,0.5,0.2,0.5,0.5c0,0.4,0.4,0.5,1.1,0.5
		c0.7,0,1.1,0.2,1.1,0.5c0,0.5,0.9,0.5,5.7,0.5h5.7v-3.7v-3.7h-0.9c-2.2,0-2.3-0.4-2.3-11.8V466h1.6h1.6v-4.1v-4.1h-1.6H236v-2.7
		v-2.7h-6.2h-6.2V455.1 M323.8,455.1v2.7h-1.1h-1.1v4.1v4.1h1.1h1.1v11.6c0,9.9,0.1,11.6,0.5,11.6c0.4,0,0.5,0.5,0.6,2.1
		c0.1,1.9,0.2,2.1,1.1,2.2c0.6,0.1,1,0.3,1,0.6c0,0.3,0.4,0.5,1.1,0.5c0.7,0,1.1,0.2,1.1,0.5c0,0.5,0.9,0.5,5.7,0.5h5.7v-3.7v-3.7
		h-0.9c-1.8,0-1.9-0.4-1.9-11.7l0-10.4h1.4h1.4v-4.1v-4.1h-1.4h-1.4l-0.1-2.6l-0.1-2.6l-6.9-0.1l-6.9-0.1V455.1 M472,455.1v2.7h-1.1
		h-1.1v4.1v4.1h1.1h1.1v12.7c0,8.2,0.1,12.7,0.4,12.7c0.2,0,0.4,0.4,0.4,0.9c0,0.6,0.2,1,0.7,1.1c0.4,0.1,0.7,0.4,0.7,0.7
		c0,0.3,0.4,0.5,1.1,0.5c0.7,0,1.1,0.2,1.1,0.5c0,0.5,0.8,0.5,6.2,0.4l6.2-0.1l0.1-2.1c0.1-2.2,1.1-3.1,1.1-1c0,0.7,0.2,1.1,0.5,1.1
		c0.3,0,0.5,0.2,0.5,0.5c0,0.3,0.2,0.5,0.5,0.5c0.3,0,0.6,0.2,0.7,0.5c0.2,0.4,1.9,0.5,11.6,0.5l11.4,0v-16.4
		c0-14.1-0.1-16.5-0.5-16.9c-0.3-0.3-0.5-0.7-0.5-0.9c0-0.2-0.2-0.4-0.5-0.4c-0.3,0-0.6-0.4-0.6-1c-0.1-0.8-0.3-1-1.1-1.1
		c-0.6-0.1-1-0.3-1-0.6c0-0.3-0.4-0.5-1.1-0.5c-0.7,0-1.1-0.2-1.1-0.5c0-0.5-0.9-0.5-6.2-0.5c-5.3,0-6.2,0.1-6.2,0.5
		c0,0.4-0.4,0.5-1.1,0.5c-0.7,0-1.1,0.2-1.1,0.5c0,0.4-0.4,0.5-1.1,0.5c-0.7,0-1.1,0.2-1.1,0.5c0,0.3-0.2,0.5-0.5,0.5
		c-0.3,0-0.5,0.2-0.5,0.5c0,0.3-0.2,0.5-0.5,0.5c-0.4,0-0.5,0.4-0.5,1.1c0,0.7-0.2,1.1-0.5,1.1c-0.5,0-0.5,0.8-0.5,5.2v5.2h3.2
		c2.6,0,3.2,0.1,3.2,0.5c0,0.4-0.4,0.5-1.1,0.5c-0.7,0-1.1,0.2-1.1,0.5c0,0.4-0.4,0.5-1.1,0.5c-0.7,0-1.1,0.2-1.1,0.5
		c0,0.3-0.2,0.5-0.5,0.5c-0.3,0-0.5,0.2-0.5,0.5c0,0.3-0.2,0.5-0.5,0.5c-0.5,0-0.5,0.8-0.5,5.3v5.3l-1-0.2c-0.6-0.1-1.5-0.6-2.1-1.2
		l-1.1-1v-10v-10h1.6h1.6v-4.1v-4.1h-1.6h-1.6v-2.7v-2.7h-6.2H472V455.1 M87.1,476.2v19.5l6.3-0.1l6.3-0.1l0.1-10.8l0.1-10.8
		l1.3-1.3c1.1-1.1,1.5-1.3,3-1.3h1.8V464v-7.3h-2c-1.5,0-2,0.1-2,0.5c0,0.4-0.4,0.5-1.3,0.5c-0.9,0-1.2-0.2-1.2-0.5
		c0-0.5-0.9-0.5-6.2-0.5h-6.2V476.2 M114.6,457.2c0,0.4-0.4,0.5-1.4,0.5c-0.9,0-1.5,0.2-1.6,0.5c-0.1,0.3-0.4,0.5-0.7,0.5
		c-0.3,0-0.5,0.2-0.5,0.5c0,0.3-0.2,0.5-0.5,0.5c-0.3,0-0.5,0.2-0.5,0.5c0,0.3-0.2,0.5-0.4,0.5c-0.2,0-0.4,0.5-0.4,1.1
		c0,0.7-0.2,1.1-0.5,1.1c-0.4,0-0.5,0.5-0.5,2c0,1.4-0.1,2-0.5,2.2c-0.5,0.2-0.5,1.6-0.5,9.4c0,8,0.1,9.2,0.5,9.2
		c0.4,0,0.5,0.5,0.5,2.1c0,1.7,0.1,2.1,0.5,2.1c0.3,0,0.5,0.3,0.5,0.9c0,1,1,2.3,1.7,2.3c0.3,0,0.5,0.2,0.5,0.5
		c0,0.4,0.4,0.5,1.1,0.5c0.7,0,1.1,0.2,1.1,0.5c0,0.5,1,0.5,7.2,0.5c6,0,7.2-0.1,7.4-0.5c0.1-0.3,0.6-0.5,1-0.5c0.8,0,2-1.1,2-1.8
		c0-0.2,0.2-0.4,0.5-0.4c0.3,0,0.5-0.2,0.5-0.5c0-0.3,0.2-0.5,0.5-0.5c0.4,0,0.5-0.4,0.5-1.1c0-0.7,0.2-1.1,0.5-1.1
		c0.5,0,0.5-1.7,0.5-13c0-11.3-0.1-13-0.5-13c-0.4,0-0.5-0.4-0.5-1.1c0-0.7-0.2-1.1-0.5-1.1c-0.3,0-0.5-0.2-0.5-0.5
		c0-0.3-0.2-0.5-0.5-0.5c-0.3,0-0.5-0.2-0.5-0.5c0-0.3-0.3-0.5-0.9-0.5c-0.6,0-0.9-0.2-0.9-0.5c0-0.4-0.4-0.5-1-0.5
		c-0.6,0-1.1-0.2-1.2-0.5c-0.2-0.4-1.2-0.5-5.9-0.5C115.5,456.7,114.6,456.8,114.6,457.2 M165.3,474.4c0,15.4,0.1,17.7,0.5,17.9
		c0.3,0.1,0.5,0.4,0.5,0.7c0,0.3,0.2,0.5,0.5,0.5c0.3,0,0.5,0.2,0.5,0.5c0,0.3,0.2,0.5,0.5,0.5c0.3,0,0.5,0.2,0.5,0.5
		c0,0.4,0.8,0.5,4.8,0.5c4,0,4.8-0.1,4.8-0.5c0-0.3,0.2-0.5,0.5-0.5c0.3,0,0.5,0.2,0.5,0.5c0,0.5,1,0.5,6.8,0.5h6.8v-19.5v-19.5H186
		h-6.8v15.2c0,13.2-0.1,15.2-0.5,15.2c-0.5,0-0.5-2-0.6-15.1l-0.1-15.1l-6.3-0.1l-6.3-0.1V474.4 M262.8,457.2c0,0.4-0.4,0.5-1.1,0.5
		c-0.7,0-1.1,0.2-1.1,0.5c0,0.4-0.4,0.5-1.1,0.5c-0.7,0-1.1,0.2-1.1,0.5c0,0.3-0.2,0.5-0.5,0.5c-0.4,0-0.5,0.4-0.5,1.1
		c0,0.7-0.2,1.1-0.5,1.1c-0.3,0-0.5,0.3-0.5,0.9c0,0.5-0.2,0.9-0.5,1.1c-0.5,0.2-0.5,1.9-0.5,12.7c0,10.9,0.1,12.5,0.5,12.5
		c0.4,0,0.5,0.4,0.5,1.1c0,0.7,0.2,1.1,0.5,1.1c0.3,0,0.5,0.2,0.5,0.5c0,0.3,0.2,0.5,0.5,0.5c0.3,0,0.5,0.2,0.5,0.5
		c0,0.3,0.2,0.5,0.5,0.5c0.3,0,0.5,0.2,0.5,0.5c0,0.4,0.4,0.5,1.1,0.5c0.7,0,1.1,0.2,1.1,0.5c0,0.5,1,0.5,6.8,0.5
		c5.8,0,6.8-0.1,6.8-0.5c0-0.4,0.4-0.5,1.1-0.5c0.7,0,1.1-0.2,1.1-0.5c0-0.3,0.3-0.5,0.8-0.5c1,0,2.4-1.4,2.4-2.5
		c0-0.4,0.2-0.8,0.5-0.8c0.4,0,0.5-0.4,0.5-1.6c0-1.1,0.2-1.6,0.5-1.8c0.5-0.2,0.5-1.7,0.5-10.9c0-9.2-0.1-10.8-0.5-10.9
		c-0.3-0.1-0.5-0.7-0.5-1.4c0-0.8-0.2-1.3-0.5-1.4c-0.3-0.1-0.5-0.4-0.5-0.7c0-0.3-0.2-0.5-0.5-0.5c-0.3,0-0.5-0.2-0.5-0.5
		c0-0.3-0.2-0.5-0.5-0.5c-0.3,0-0.5-0.2-0.5-0.5c0-0.3-0.2-0.5-0.5-0.5c-0.3,0-0.6-0.2-0.7-0.5c-0.1-0.4-0.7-0.5-1.6-0.5
		c-1,0-1.4-0.1-1.4-0.5c0-0.5-0.9-0.5-5.7-0.5C263.7,456.7,262.8,456.8,262.8,457.2 M284.9,476.2v19.5h6.2h6.2v-15.4
		c0-13.4,0.1-15.4,0.5-15.4c0.5,0,0.5,2,0.6,15.3l0.1,15.3l6.7,0.1l6.7,0.1v-15.9c0-10.4-0.1-15.9-0.4-15.9c-0.2,0-0.4-0.9-0.4-2
		c0-1.5-0.1-2-0.5-2c-0.3,0-0.5-0.2-0.5-0.5c0-0.3-0.2-0.5-0.5-0.5c-0.3,0-0.5-0.2-0.5-0.5c0-0.3-0.2-0.5-0.5-0.5
		c-0.3,0-0.6-0.2-0.7-0.5c-0.2-0.4-1-0.5-4.3-0.5c-3.4,0-4.1,0.1-4.1,0.5c0,0.4-0.4,0.5-1.1,0.5c-0.7,0-1.1-0.2-1.1-0.5
		c0-0.5-0.9-0.5-6.2-0.5h-6.2V476.2 M348.1,457.2c0,0.4-0.4,0.5-1.1,0.5c-0.7,0-1.1,0.2-1.1,0.5c0,0.3-0.3,0.5-0.7,0.5
		c-0.9,0-2.5,1.6-2.5,2.6c0,0.4-0.2,0.7-0.4,0.7c-0.2,0-0.4,0.4-0.4,0.9c0,0.5-0.2,0.9-0.5,1.1c-0.5,0.2-0.5,1.9-0.5,12.7
		c0,10.9,0.1,12.5,0.5,12.5c0.4,0,0.5,0.4,0.5,1.1c0,0.6,0.2,1.1,0.4,1.1c0.2,0,0.4,0.2,0.4,0.5c0,0.3,0.2,0.5,0.5,0.5
		c0.3,0,0.5,0.2,0.5,0.5c0,0.3,0.2,0.5,0.5,0.5c0.3,0,0.6,0.2,0.7,0.5c0.1,0.3,0.6,0.5,1.1,0.5c0.5,0,1,0.2,1.1,0.5
		c0.2,0.4,1.3,0.5,6.8,0.5c5.6,0,6.7-0.1,6.8-0.5c0.1-0.3,0.6-0.5,1.2-0.5c0.7,0,1-0.2,1-0.5c0-0.3,0.3-0.5,0.9-0.5
		c0.6,0,0.9-0.2,0.9-0.5c0-0.3,0.2-0.5,0.5-0.5c0.4,0,0.5-0.4,0.5-1.1s0.2-1.1,0.5-1.1c0.4,0,0.5-0.4,0.5-1.6c0-1.2,0.1-1.6,0.5-1.6
		c0.5,0,0.5-1.5,0.5-11.1c0-9.6-0.1-11.1-0.5-11.1c-0.4,0-0.5-0.4-0.5-1.4s-0.1-1.4-0.5-1.4c-0.3,0-0.5-0.2-0.5-0.5
		c0-0.3-0.2-0.5-0.5-0.5c-0.3,0-0.5-0.2-0.5-0.5c0-0.3-0.2-0.5-0.5-0.5c-0.3,0-0.5-0.2-0.5-0.4c0-0.8-1.5-1.8-2.7-1.8
		c-0.9,0-1.2-0.2-1.2-0.5c0-0.5-0.9-0.5-5.9-0.5C349,456.7,348.1,456.8,348.1,457.2 M430.6,457.2c0,0.3-0.4,0.6-1,0.6
		c-0.8,0.1-1,0.3-1.1,1.1c-0.1,0.6-0.3,1-0.6,1c-0.3,0-0.5,0.4-0.5,1.1c0,0.7-0.2,1.1-0.5,1.1c-0.5,0-0.5,1.5-0.5,11.8
		c0,10.2,0.1,11.8,0.5,12c0.3,0.1,0.5,0.6,0.5,1.2c0,0.7,0.2,1,0.5,1c0.3,0,0.5,0.2,0.5,0.5c0,0.3,0.2,0.5,0.5,0.5
		c0.3,0,0.5,0.2,0.5,0.5c0,0.4,0.4,0.5,1.1,0.5c0.7,0,1.1,0.2,1.1,0.5c0,0.4-0.5,0.5-2.7,0.5h-2.7v2.1c0,1.7,0.1,2.1,0.5,2.1
		c0.4,0,0.5,0.4,0.5,1.2c0,1.4,1.4,3.1,2.5,3.1c0.4,0,0.7,0.2,0.7,0.5c0,0.4,0.4,0.5,1.6,0.5c1.1,0,1.6,0.2,1.8,0.5
		c0.2,0.4,1.1,0.5,5.6,0.5c4.4,0,5.4-0.1,5.6-0.5c0.1-0.4,0.7-0.5,1.8-0.5c1.2,0,1.6-0.1,1.6-0.5c0-0.4,0.4-0.5,1.1-0.5
		c0.7,0,1.1-0.2,1.1-0.5c0-0.3,0.2-0.5,0.5-0.5c0.3,0,0.5-0.2,0.5-0.5c0-0.3,0.2-0.5,0.5-0.5c0.4,0,0.5-0.4,0.5-1.1s0.2-1.1,0.5-1.1
		c0.5,0,0.5-2.4,0.5-19.5v-19.5h-5.7c-4.7,0-5.7,0.1-5.7,0.5c0,0.3-0.3,0.6-0.6,0.6c-1.1,0.2-2.6-0.1-2.6-0.6c0-0.4-0.9-0.5-4.3-0.5
		C431.4,456.7,430.6,456.8,430.6,457.2 M626.3,476.2v19.5h6.2h6.2v-10c0-8.6,0.1-10,0.5-10c0.4,0,0.5-0.4,0.5-1.6
		c0-1.5,0.1-1.6,0.9-1.6c0.5,0,1-0.2,1.2-0.5c0.2-0.3,1.1-0.5,2.3-0.6l2.1-0.1v1.2v1.2h3.2c2.6,0,3.2,0.1,3.2,0.5
		c0,0.4-0.4,0.5-1.4,0.5c-1,0-1.5,0.2-1.6,0.5c-0.1,0.3-0.4,0.5-0.7,0.5c-0.3,0-0.5,0.2-0.5,0.5c0,0.3-0.2,0.5-0.5,0.5
		c-0.3,0-0.5,0.2-0.5,0.5c0,0.3-0.2,0.5-0.5,0.5c-0.5,0-0.5,1-0.5,7.3s0.1,7.3,0.5,7.3c0.3,0,0.5,0.2,0.5,0.5c0,0.3,0.2,0.5,0.5,0.5
		c0.3,0,0.5,0.2,0.5,0.5c0,0.3,0.2,0.5,0.5,0.5c0.3,0,0.5,0.2,0.5,0.5c0,0.4,0.8,0.5,4.6,0.5c3.9,0,4.6-0.1,4.6-0.5
		c0-0.3,0.2-0.5,0.5-0.5c0.3,0,0.5,0.2,0.5,0.5c0,0.5,1,0.5,6.4,0.5h6.4v-16.1c0-14-0.1-16.1-0.5-16.3c-0.3-0.1-0.5-0.7-0.5-1.2
		c0-0.7-0.2-1-0.5-1c-0.3,0-0.5-0.2-0.5-0.5c0-0.3-0.2-0.5-0.5-0.5c-0.3,0-0.5-0.2-0.5-0.5c0-0.3-0.2-0.5-0.5-0.5
		c-0.3,0-0.5-0.2-0.5-0.5c0-0.4-0.4-0.5-1-0.5c-0.6,0-1.1-0.2-1.2-0.5c-0.2-0.4-1.2-0.5-6.3-0.5c-5.2,0-6.1,0.1-6.1,0.5
		c0,0.4-0.4,0.5-1.6,0.5c-1.2,0-1.6,0.1-1.6,0.5c0,0.3-0.2,0.5-0.5,0.5c-0.3,0-0.5,0.2-0.5,0.5c0,0.3-0.2,0.5-0.5,0.5
		c-0.3,0-0.5,0.2-0.5,0.5c0,0.3-0.2,0.5-0.5,0.5c-0.4,0-0.5,0.4-0.5,1.1c0,0.7-0.2,1.1-0.5,1.1c-0.4,0-0.5-0.7-0.6-3.1l-0.1-3.1
		l-2.4-0.1c-1.9-0.1-2.5,0-2.6,0.4c-0.1,0.3-0.4,0.6-0.7,0.6c-0.3,0-0.5,0.2-0.5,0.5c0,0.3-0.2,0.5-0.5,0.5c-0.4,0-0.5-0.4-0.5-1.1
		v-1.1h-6.2h-6.2V476.2 M682.1,457.2c-0.1,0.3-0.6,0.5-1.1,0.5c-0.5,0-0.9,0.2-0.9,0.5c0,0.4-0.4,0.5-1.1,0.5s-1.1,0.2-1.1,0.5
		c0,0.3-0.2,0.5-0.5,0.5c-0.3,0-0.5,0.2-0.5,0.5c0,0.3-0.2,0.5-0.5,0.5c-0.4,0-0.5,0.4-0.5,1.1c0,0.7-0.2,1.1-0.5,1.1
		c-0.5,0-0.5,1.7-0.5,13c0,11.3,0.1,13,0.5,13c0.4,0,0.5,0.4,0.5,1.1c0,0.7,0.2,1.1,0.5,1.1c0.3,0,0.5,0.2,0.5,0.5
		c0,0.3,0.2,0.5,0.5,0.5c0.3,0,0.5,0.2,0.5,0.5c0,0.3,0.2,0.5,0.5,0.5c0.3,0,0.5,0.2,0.5,0.5c0,0.3,0.3,0.5,0.9,0.5
		c0.5,0,0.9,0.2,1.1,0.5c0.2,0.4,1.3,0.5,6.8,0.5c5.6,0,6.7-0.1,6.8-0.5c0.1-0.3,0.6-0.5,1.1-0.5c0.5,0,0.9-0.2,0.9-0.5
		c0-0.3,0.2-0.5,0.5-0.5c0.6,0,1.6-1.2,1.9-2.3c0.1-0.5,0.4-0.9,0.7-0.9c0.3,0,0.5-0.4,0.5-1c0-0.6,0.2-1.1,0.5-1.2
		c0.4-0.2,0.5-1,0.5-4.7v-4.5h-5.9h-5.9v3.6c0,3-0.1,3.7-0.6,4.1c-1.5,1.1-1.5,1-1.5-10.6c0-9.6,0.1-11.1,0.5-11.1
		c0.4,0,0.5,0.7,0.5,3.7v3.7h6.4h6.4v-3.7c0-3.1,0.1-3.7,0.5-3.7c0.4,0,0.5,0.5,0.5,2.5c0,1.9,0.1,2.6,0.5,2.7
		c0.4,0.2,0.5,0.8,0.5,2.7c0,1.9,0.1,2.5,0.5,2.7c0.4,0.2,0.5,0.8,0.5,2.3c0,1.6,0.1,2.1,0.5,2.1c0.4,0,0.5,0.5,0.5,2.5
		c0,1.4,0.2,2.5,0.4,2.5c0.2,0,0.4,1.1,0.4,2.7c0,2.1,0.1,2.7,0.5,2.7c0.4,0,0.5,0.4,0.5,1.1c0,1.1,0,1.1-2,1.1h-2v4.3v4.3h5.7
		c4.8,0,5.7-0.1,5.7-0.5c0-0.4,0.5-0.5,2.2-0.5c2,0,2.4-0.1,3.4-1.1c0.6-0.6,1.3-1.1,1.5-1.1c0.2,0,0.3-0.5,0.3-1
		c0-0.6,0.2-1.1,0.5-1.2c0.4-0.1,0.5-0.8,0.5-2.2c0-1.5,0.1-2,0.5-2c0.4,0,0.5-0.7,0.5-3.7c0-3,0.1-3.8,0.5-3.9
		c0.4-0.2,0.5-1,0.5-4.6s0.1-4.5,0.5-4.6c0.4-0.2,0.5-1,0.5-4.3c0-2.5,0.1-4.1,0.4-4.1c0.2,0,0.4-1.8,0.4-4.6v-4.6h-5.7h-5.7v5.1
		c0,4.2-0.1,5.2-0.5,5.3c-0.3,0.1-0.5,0.6-0.5,1.1c0,0.6-0.2,0.9-0.5,0.9c-0.4,0-0.5-0.6-0.5-3.6s-0.1-3.6-0.5-3.6
		c-0.4,0-0.5-0.5-0.5-2.7v-2.7h-6.2h-6.2v1.4c0,1,0.1,1.4,0.5,1.4c0.4,0,0.5,0.5,0.5,2.5c0,2.2-0.1,2.5-0.5,2.1
		c-0.3-0.2-0.5-0.8-0.5-1.3c0-0.5-0.2-0.9-0.5-0.9c-0.3,0-0.5-0.3-0.5-0.7c0-0.9-1.6-2.6-2.5-2.6c-0.4,0-0.7-0.2-0.7-0.5
		c0-0.4-0.4-0.5-1-0.5c-0.6,0-1.1-0.2-1.2-0.5c-0.2-0.4-1.2-0.5-5.8-0.5C683.2,456.7,682.3,456.8,682.1,457.2 M394.5,459
		c0,0.3,0.2,0.5,0.5,0.5c0.5,0,0.5,1.7,0.5,12.9c0,11.2-0.1,12.9-0.5,12.9c-0.3,0-0.5,0.2-0.5,0.5c0,0.3-0.2,0.5-0.5,0.5
		c-0.5,0-0.5-1.8-0.5-13.9c0-12.1,0.1-13.9,0.5-13.9C394.3,458.5,394.5,458.7,394.5,459 M121,476c0,9.6-0.1,11.1-0.5,11.1
		s-0.5-1.5-0.5-11.1c0-9.6,0.1-11.1,0.5-11.1S121,466.4,121,476 M149.6,476c0,9.6-0.1,11.1-0.5,11.1c-0.5,0-0.5-1.5-0.5-11.1
		c0-9.6,0.1-11.1,0.5-11.1C149.5,464.9,149.6,466.4,149.6,476 M268.9,465.5c0,0.3,0.2,0.5,0.5,0.5c0.5,0,0.5,1.4,0.5,10.2
		s-0.1,10.2-0.5,10.2c-0.3,0-0.5,0.2-0.5,0.4c0,0.2-0.2,0.4-0.5,0.4c-0.5,0-0.5-1.5-0.5-11.1c0-9.6,0.1-11.1,0.5-11.1
		C268.6,464.9,268.9,465.2,268.9,465.5 M354.5,465.5c0,0.3,0.2,0.5,0.5,0.5c0.5,0,0.5,1.4,0.5,10.2s-0.1,10.2-0.5,10.2
		c-0.3,0-0.5,0.2-0.5,0.4c0,0.2-0.2,0.4-0.5,0.4c-0.5,0-0.5-1.5-0.5-11.1c0-9.6,0.1-11.1,0.5-11.1
		C354.3,464.9,354.5,465.2,354.5,465.5 M441.3,473.5v8.6h-1.1h-1.1v-7.5c0-4.3,0.1-7.5,0.3-7.5c0.2,0,0.4-0.5,0.6-1.1
		c0.1-0.6,0.5-1.1,0.7-1.1C441.2,464.9,441.3,466.3,441.3,473.5 M502.4,467.5c0,1.7-0.2,2.8-0.5,3.3c-0.5,0.6-0.5,0.4-0.5-2.6
		c0-2.7,0.1-3.3,0.5-3.3C502.3,464.9,502.4,465.4,502.4,467.5 M611.3,467.6v2.7h-1.1h-1.1v-2.1c0-1.7,0.1-2.1,0.5-2.1
		c0.3,0,0.5-0.2,0.5-0.5c0-0.3,0.2-0.5,0.5-0.5C611.2,464.9,611.3,465.5,611.3,467.6 M659.5,466c0.7,0,0.4,3.9-0.4,4.6
		c-1.2,1.2-1.4,0.9-1.4-2c0-2.1,0.1-2.7,0.5-2.7c0.3,0,0.6-0.3,0.6-0.6c0-0.6,0-0.6,0.2,0C659.1,465.7,659.3,466,659.5,466
		 M659.8,483.5c0,2.9-0.1,3.6-0.5,3.6c-0.3,0-0.5-0.2-0.5-0.4c0-0.2-0.2-0.4-0.5-0.4c-0.4,0-0.5-0.4-0.5-1.8c0-1.3,0.1-1.8,0.5-1.8
		c0.4,0,0.5-0.4,0.5-1.4c0-1,0.1-1.4,0.5-1.4C659.7,479.9,659.8,480.5,659.8,483.5 M502.4,483.8c0,2.6-0.1,3.2-0.5,3.2
		s-0.5-0.6-0.5-3.2c0-2.6,0.1-3.2,0.5-3.2S502.4,481.2,502.4,483.8 M441.3,491.2c0,1.4-1,2-1.8,1.2c-0.9-1-0.5-2.1,0.8-2.1
		C441.2,490.3,441.3,490.4,441.3,491.2 M0,314.6 M0,314.6 M0,314.6 M240.3,457.3l0,5.7h6.4h6.4v-5.7v-5.7h-6.4h-6.4L240.3,457.3
		 M410.8,481l0,15h6.4h6.4v-15v-15h-6.4h-6.4L410.8,481 M410.8,457.7l0,5.7h6.4h6.4v-5.7V452h-6.4h-6.4L410.8,457.7 M455.3,481l0,15
		h6.4h6.4v-15v-15h-6.4h-6.4L455.3,481 M455.3,457.7l0,5.7h6.4h6.4v-5.7V452h-6.4h-6.4L455.3,457.7"/>
	<path id="path4" class="st1" d="M36.5,325.1c-0.1,0.2,0,0.3,0.3,0.1c0.4-0.2,0.4-0.2,0.1,0.1c-0.2,0.2-1.5,0.4-2.9,0.5
		c-1.6,0-2.6,0.2-2.9,0.5c-0.2,0.3-0.9,0.5-1.6,0.6c-0.7,0-1.3,0.3-1.4,0.5c-0.1,0.3-0.6,0.5-1.2,0.5c-0.7,0-1,0.2-1,0.5
		c0,0.3-0.3,0.5-0.9,0.5c-0.6,0-0.9,0.2-0.9,0.5c0,0.3-0.3,0.5-0.7,0.5s-0.7,0.2-0.7,0.5c0,0.3-0.2,0.5-0.5,0.5
		c-0.3,0-0.5,0.2-0.5,0.5c0,0.3-0.3,0.5-0.9,0.5c-0.6,0-0.9,0.3-1,0.7c-0.1,0.4-0.4,0.7-0.8,0.7c-0.3,0-0.6,0.3-0.6,0.8
		c0,0.4-0.5,1.2-1.1,1.7c-0.6,0.5-1.1,1.2-1.1,1.7c0,0.5-0.2,0.8-0.5,0.8c-0.4,0-0.5,0.4-0.5,1.1c0,0.7-0.2,1.1-0.5,1.1
		c-0.4,0-0.5,0.4-0.5,1.1c0,0.6-0.2,1.2-0.5,1.3c-0.4,0.2-0.5,1-0.5,3.9c0,2.8-0.1,3.9-0.5,4.3c-1,1-0.8,49.8,0.2,49.2
		c0.2-0.1,0.3,1.7,0.3,4.1c0,5,0,4.7,0.6,5.2c0.3,0.2,0.5,1.2,0.5,2.3c0,1.2,0.3,2,0.5,2.1c0.3,0.1,0.5,0.6,0.5,1.2
		c0,0.7,0.2,1,0.5,1c0.4,0,0.5,0.4,0.5,1.1c0,0.8,0.1,1.1,0.5,0.9c0.4-0.1,0.5,0,0.5,0.5c0,0.4,0.2,0.7,0.5,0.7
		c0.3,0,0.5,0.2,0.5,0.5c0,0.3,0.2,0.5,0.5,0.5c0.3,0,0.5,0.2,0.5,0.5c0,0.3,0.2,0.5,0.4,0.5c0.5,0,1.8,1.3,1.8,1.8
		c0,0.2,0.3,0.4,0.7,0.4c0.4,0,0.7,0.2,0.7,0.5c0,0.3,0.3,0.5,0.9,0.5s0.9,0.2,0.9,0.5c0,0.4,0.4,0.5,1.1,0.5c0.7,0,1.1,0.2,1.1,0.5
		c0,0.4,0.4,0.5,1.6,0.5c1.1,0,1.6,0.2,1.8,0.5c0.1,0.4,0.7,0.5,1.8,0.5c1.8,0,2.8,0.3,2.5,0.7c-0.1,0.2,3.7,0.3,8.4,0.3
		c7.4,0.1,8.6,0,8.8-0.5c0.2-0.4,0.7-0.6,2.1-0.6c1.4,0,2-0.1,2.1-0.5c0.1-0.3,0.7-0.5,1.6-0.5c0.9,0,1.5-0.2,1.6-0.5
		c0.1-0.3,0.5-0.5,0.9-0.5s0.9-0.2,1.2-0.5c0.3-0.3,0.9-0.5,1.3-0.5c0.4,0,0.8-0.2,1-0.5c0.1-0.3,0.4-0.5,0.7-0.5
		c0.3,0,0.5-0.2,0.5-0.5c0-0.3,0.2-0.5,0.5-0.5c0.3,0,0.5-0.2,0.5-0.5c0-0.3,0.2-0.5,0.5-0.5c0.3,0,0.5-0.2,0.5-0.5
		c0-0.3,0.2-0.5,0.5-0.5c0.3,0,0.5-0.2,0.5-0.5c0-0.3,0.2-0.5,0.5-0.5c0.3,0,0.5-0.2,0.5-0.4c0-0.5,1.3-1.8,1.8-1.8
		c0.2,0,0.4-0.5,0.4-1.1c0-0.7,0.2-1.1,0.5-1.1c0.4,0,0.5-0.4,0.5-1c0-0.6,0.2-1.1,0.4-1.2c0.3-0.1,0.5-0.9,0.5-2.1
		c0-1,0.3-2,0.5-2.2c0.3-0.2,0.5-2.2,0.6-7.6c0.1-5.7,0.2-7.3,0.6-7.3c0.4,0,0.5-1,0.5-3.9l0-3.9H61.4H47.1v11.2
		c0,8.8-0.1,11.2-0.4,11.2c-0.3-0.1-0.5,0.3-0.6,0.9c-0.1,1.2-4.4,1.6-4.4,0.4c0-0.3-0.2-0.5-0.5-0.5c-0.5,0-0.5-3.8-0.5-32
		c0-23.6,0.1-32,0.4-32c0.2,0,0.8-0.4,1.2-0.9c1.2-1.3,3.7-1.3,3.7,0c0,0.6,0.2,0.9,0.5,0.9c0.5,0,0.5,1.7,0.5,12.9V371H61
		c10.3,0,14-0.1,14.3-0.4c0.7-0.7,0.6-11.6-0.1-12.4c-0.4-0.4-0.5-2-0.6-6.6c-0.1-4.5-0.2-6.2-0.6-6.6c-0.3-0.3-0.5-1.3-0.6-2.3
		c-0.1-1-0.3-1.8-0.5-1.9c-0.2-0.1-0.4-0.6-0.4-1.2c0-0.7-0.2-1-0.5-1c-0.3,0-0.5-0.3-0.5-0.9c0-0.5-0.2-0.9-0.5-1.1
		c-0.3-0.1-0.5-0.5-0.5-0.8s-0.2-0.5-0.5-0.5c-0.3,0-0.5-0.3-0.5-0.7s-0.2-0.8-0.4-0.9c-0.3-0.2-0.3-0.1-0.1,0.2
		c0.2,0.3,0.1,0.4-0.1,0.2c-0.2-0.1-0.4-0.6-0.4-0.9c0-0.4-0.2-0.8-0.4-0.9c-0.3-0.2-0.3,0-0.2,0.4c0.2,0.6,0.2,0.6-0.2,0.1
		c-0.3-0.3-0.7-0.6-0.9-0.6c-0.2,0-0.4-0.2-0.4-0.5c0-0.3-0.2-0.5-0.5-0.5c-0.3,0-0.9-0.5-1.3-1.1c-0.5-0.6-1.1-1.1-1.5-1.1
		c-0.4,0-0.9-0.2-1.2-0.5c-0.3-0.3-0.9-0.5-1.4-0.5c-0.5,0-0.9-0.2-0.9-0.5c0-0.4-0.4-0.5-1.4-0.5c-1,0-1.5-0.2-1.7-0.6
		c-0.2-0.5-0.3-0.5-0.5-0.1c-0.2,0.4-0.3,0.4-0.3,0c0-0.3-0.8-0.4-2.7-0.4c-1.5,0-2.6-0.1-2.5-0.3c0.1-0.2-0.2-0.4-0.7-0.6
		C47.9,324.4,36.8,324.7,36.5,325.1 M82.1,376.9v50.2h13.6h13.6v-22.1v-22.1h1.3c0.8,0,1.2,0.1,1,0.4c-0.1,0.2,0.1,0.4,0.5,0.4
		c0.4,0,1,0.3,1.4,0.7c0.4,0.4,0.8,0.6,0.9,0.5c0.1-0.1,0.2,0.8,0.2,2c0,1.7,0.1,2.2,0.5,2.2c0.5,0,0.5,2.4,0.5,19.1v19.1h12.7H141
		v-21.4c0-18.8-0.1-21.4-0.5-21.4c-0.4,0-0.5-0.4-0.5-1.1c0-0.6-0.2-1.2-0.5-1.3c-0.3-0.1-0.5-0.4-0.5-0.7c0-0.3-0.2-0.5-0.5-0.5
		c-0.3,0-0.6-0.5-0.7-1.1c-0.1-0.6-0.5-1.1-0.7-1.1c-0.3,0-0.4-0.2-0.3-0.5c0.2-0.4-0.1-0.5-0.9-0.5c-0.7,0-1.1-0.2-1.1-0.5
		c0-0.3-0.2-0.5-0.5-0.5c-0.3,0-0.6-0.3-0.7-0.6c-0.1-0.3-0.4-0.5-0.6-0.3c-0.2,0.1-0.4-0.1-0.4-0.5c0-0.7,1.1-1,2.6-0.8
		c0.2,0,0.4-0.2,0.5-0.5c0.1-0.3,0.4-0.5,0.7-0.5c0.3,0,0.5-0.2,0.5-0.4c0-0.5,1.3-1.8,1.8-1.8c0.2,0,0.4-0.5,0.4-1.1
		c0-0.7,0.2-1.1,0.5-1.1c0.4,0,0.5-0.4,0.5-1.6c0-1.2,0.1-1.6,0.5-1.6c0.5,0,0.5-1.4,0.5-10.9c0-8.5-0.1-10.9-0.4-10.8
		c-0.3,0.1-0.5-0.6-0.6-2.1c-0.1-1.7-0.2-2.2-0.6-2.2c-0.3,0-0.5-0.4-0.5-1.1c0-0.7-0.2-1.1-0.5-1.1c-0.3,0-0.5-0.3-0.5-0.8
		c0-0.5-0.4-1.2-1.1-1.7c-0.6-0.5-1.1-1.1-1.1-1.3c0-0.2-0.3-0.4-0.6-0.4c-0.3,0-0.5-0.2-0.5-0.5c0-0.3-0.2-0.5-0.5-0.5
		c-0.3,0-0.5-0.2-0.5-0.5c0-0.3-0.2-0.5-0.5-0.5c-0.3,0-0.5-0.1-0.5-0.3c0-0.2-0.5-0.4-1-0.6c-0.6-0.1-1.2-0.5-1.5-0.7
		c-0.2-0.3-0.9-0.5-1.4-0.5c-1.2,0-2.2-0.3-1.9-0.7c0.1-0.2-1.8-0.3-4.2-0.3c-3.1,0-4.5-0.2-5.1-0.6c-0.6-0.4-3.5-0.5-18-0.5H82.1
		V376.9 M149.3,327.1l-0.8,0.3l0,49.6l0,49.6l0.8,0.2c0.4,0.1,17.3,0.1,37.4,0.1l36.6-0.1l0.2-3.2c0.1-2.1,0.3-3.2,0.6-3.1
		c0.2,0,0.4-0.3,0.4-0.7c0-0.4,0-3,0-5.7l0-4.9h3.7h3.7l0,2.8c0,1.5,0,2.9,0,3c0,0.1,0.2,0.2,0.4,0.2c0.3-0.1,0.5,1.3,0.5,5.9l0.1,6
		l14.1,0l14.1,0v-3.2c0-2.6-0.1-3.2-0.5-3.2c-0.4,0-0.5-0.6-0.6-3c-0.1-3.6-0.1-3.6-0.4-4c-0.1-0.1-0.3-1.5-0.3-2.9
		c0-1.8-0.2-2.9-0.5-3.2c-0.3-0.4-0.5-1.7-0.6-4c-0.1-2.1-0.3-3.5-0.6-3.7c-0.3-0.2-0.5-1.6-0.5-3.6c-0.1-2-0.3-3.4-0.6-3.8
		c-0.3-0.4-0.5-1.6-0.5-3.5c0-2.3-0.1-2.9-0.5-2.9c-0.4,0-0.8-5-0.5-6.6c0-0.2-0.2-0.5-0.5-0.7c-0.4-0.3-0.6-1.3-0.6-3.8
		c-0.1-1.9-0.2-3.4-0.3-3.3c-0.4,0.3-0.6-0.8-0.7-3.7c0-1.8-0.2-2.9-0.5-2.9c-0.2,0-0.2-0.1,0.1-0.3c0.4-0.2,0.4-0.3-0.1-0.5
		c-0.5-0.2-0.6-0.8-0.6-3.2c0-2.3-0.1-3.1-0.5-3.3c-0.4-0.2-0.5-1.1-0.6-3.7c0-2.6-0.2-3.5-0.5-3.6c-0.4-0.1-0.5-1-0.5-3.6
		c0-2.7-0.1-3.4-0.5-3.6c-0.4-0.2-0.5-0.9-0.5-3.8c0-2.9-0.1-3.6-0.5-3.6c-0.4,0-0.5-0.6-0.5-3c0-2.2-0.1-3.1-0.5-3.4
		c-0.3-0.2-0.6-0.9-0.6-1.4l-0.1-1l-19.4-0.1l-19.4-0.1v2.7c0,2.1-0.1,2.7-0.5,2.7c-0.4,0-0.5,0.7-0.5,4.3c0,3.6-0.1,4.3-0.5,4.3
		c-0.4,0-0.5,0.6-0.5,3.5c0,2.5-0.1,3.6-0.4,3.7c-0.3,0.1-0.5,1.4-0.6,4.2c-0.1,3-0.3,4.1-0.6,4.4c-0.4,0.2-0.5,1.2-0.5,3.8
		c0,2.9-0.1,3.6-0.5,3.6c-0.4,0-0.5,0.8-0.6,4.2c-0.1,3.1-0.2,4.2-0.5,4.1c-0.3-0.1-0.4,0.8-0.4,3.6c0,3-0.1,3.8-0.5,3.9
		c-0.4,0.2-0.5,1-0.5,4.3c0,3.4-0.1,4.1-0.5,4.1c-0.4,0-0.5,0.7-0.5,4.3c0,3.7-0.1,4.2-0.5,4.1c-0.5-0.2-0.5,0.4-0.5,3.5
		c0,2.9-0.1,3.8-0.5,4.2c-0.4,0.3-0.5,1.3-0.5,4.3c0,3.2-0.1,3.9-0.5,3.9c-0.4,0-0.5,0.6-0.5,3.7c0,2.8-0.1,3.8-0.5,4.1
		c-0.4,0.4-0.5-0.6-0.5-7.2c0-4.2-0.1-7.7-0.2-7.9c-0.1-0.2-4.1-0.3-8.9-0.3h-8.7v-9.5V386l7.8-0.1l7.8-0.1l0.1-10.4l0.1-10.4H185
		h-7.9v-8v-8l7.9,0c4.4,0,8.1,0,8.4,0c0.3,0,0.4-2.6,0.5-10.7l0-10.7l-0.9-0.4C191.8,326.6,150.5,326.7,149.3,327.1 M253.1,337.8
		v11.1h7.3h7.3l0,38.6c0,21.2,0.1,38.8,0.1,39c0,0.3,3.1,0.5,13.7,0.5l13.7,0.1V388v-39.1l7.4-0.1l7.4-0.1l0.1-10.7
		c0.1-8.4,0-10.7-0.4-11c-0.3-0.2-13.1-0.3-28.6-0.3l-28.1,0V337.8 M314.6,376.9v50.2h23c20.1,0,23-0.1,23.2-0.5
		c0.6-1.6,0.2-20.9-0.5-21.2c-0.4-0.2-4.2-0.4-9.6-0.4h-9v-9.5V386l7.5,0c4.1,0,7.7-0.1,7.9-0.1c0.3,0,0.5-2.4,0.5-10.5l0.1-10.4h-8
		h-8v-8v-8l8.5-0.1l8.5-0.1l0.1-11l0.1-11h-22.1h-22.1V376.9 M555.3,376.8l0.1,50.1l21.5,0.1l21.5,0.1l-0.1-11l-0.1-11l-7.8-0.1
		l-7.8-0.1l-0.1-39l-0.1-39l-13.7-0.1l-13.7-0.1L555.3,376.8 M602.9,327.5c-0.1,0.4-0.1,23-0.1,50.1l0.1,49.3l36.9,0.1
		c36.5,0.1,36.9,0.1,36.9-0.6c0-0.5,0.2-0.6,0.5-0.5c0.5,0.2,0.5-0.7,0.5-6.8c0-6,0.1-7,0.5-7c0.4,0,0.5-0.4,0.5-1.4v-1.4h3.1
		c4.5,0,4.4-0.2,4.5,7.4c0,5,0.1,6.1,0.5,6.1c0.4,0,0.5,0.5,0.5,2.1v2.1h13.7h13.7V423c0-3.4-0.1-4.1-0.5-4.1
		c-0.4,0-0.5-0.7-0.5-3.7c0-3.1-0.1-3.7-0.5-3.7c-0.5,0-0.9-4.8-0.6-7.1c0-0.2-0.1-0.4-0.4-0.4c-0.3,0.1-0.5-0.7-0.6-3.1
		c-0.1-2-0.3-3.3-0.5-3.5c-0.3-0.2-0.3-0.3,0.1-0.3c0.4,0,0.4-0.1-0.1-0.4c-0.5-0.3-0.6-0.9-0.6-3.2c0-2.2-0.1-2.9-0.5-3.1
		c-0.4-0.2-0.5-0.9-0.5-3.7c0-2.8-0.1-3.6-0.5-3.7c-0.4-0.2-0.5-0.9-0.5-3.7c0-2.8-0.1-3.6-0.5-3.7c-0.4-0.2-0.5-0.9-0.5-3.7
		c0-2.9-0.1-3.5-0.5-3.5c-0.4,0-0.5-0.6-0.5-3.2c0-2.6-0.1-3.2-0.5-3.2c-0.4,0-0.5-0.7-0.5-3.7c0-3.1-0.1-3.7-0.5-3.7
		c-0.4,0-0.5-0.7-0.6-3.5c-0.1-2.6-0.2-3.5-0.5-3.4c-0.3,0.1-0.4-0.8-0.4-3.3c0-2.8-0.1-3.4-0.5-3.4c-0.4,0-0.5-0.7-0.5-3.7
		c0-2.3-0.1-3.7-0.4-3.7c-0.2,0-0.4-1.2-0.4-2.9c0-1.8-0.1-2.9-0.4-2.9c-0.2,0-0.3-0.2-0.2-0.4c0.4-0.6-38.7-0.5-39.3,0.2
		c-0.4,0.4-0.5,1.5-0.5,4.3c0,3.2-0.1,3.8-0.6,3.8c-0.4,0-0.5,0.3-0.5,0.8c0.2,2.9-0.1,7.8-0.5,7.7c-0.3-0.1-0.5,0.9-0.5,3.7
		c-0.1,2.5-0.2,3.9-0.5,4.1c-0.3,0.2-0.5,1.7-0.6,4.1c-0.1,2.7-0.3,3.9-0.6,4.1c-0.4,0.3-0.5,1.3-0.5,3.8c0,2.5-0.1,3.5-0.5,3.6
		c-0.3,0.1-0.5,1.3-0.6,4.1c-0.1,2.5-0.2,4-0.5,4.2c-0.3,0.2-0.5,1.7-0.6,3.7c-0.1,1.9-0.3,3.5-0.5,3.6s-0.3,0.3-0.3,0.4
		c0.3,2.3-0.1,8.1-0.5,8.1c-0.4,0-0.5,0.7-0.5,3.7c0,2.8-0.1,3.7-0.4,3.7c-0.3-0.1-0.5,1-0.5,4.1c-0.1,3.4-0.2,4.2-0.6,4.2
		c-0.4,0-0.5,0.7-0.5,4.1c0,3.4-0.1,4.1-0.5,4.1c-0.4,0-0.6,0.7-0.6,3.8c0,2.1-0.2-0.2-0.3-5.1l-0.2-8.9l-9.4-0.1l-9.4-0.1v-9.5V386
		h7.8c6.8,0,7.8-0.1,8-0.6c0.3-0.7,0.3-18.6,0-19.7c-0.2-0.8-0.2-0.8-8-0.8h-7.8v-8v-8h8.5h8.5l0-10.5c0-5.8-0.1-10.7-0.2-11.1
		c-0.2-0.5-2.1-0.6-22.1-0.6h-21.9L602.9,327.5 M718.3,327c-0.1,0.1-0.2,22.7-0.2,50.2v49.9l13.7,0c7.6,0,13.7-0.1,13.7-0.3
		c0-0.1,0-10.1,0-22.1l0-21.9h1.1c0.7,0,1.1,0.2,1.1,0.5c0,0.4,0.4,0.5,1,0.5c0.8,0,1.1,0.2,1.3,1c0.1,0.5,0.4,1.1,0.6,1.2
		c0.2,0.1,0.3,8.8,0.3,20.6l0,20.4h13c11.3,0,13-0.1,13.2-0.5c0.4-1,0.2-38.4-0.2-38.4c-0.2,0-0.3-0.2-0.1-0.4s0.1-0.5-0.2-0.6
		c-0.2-0.1-0.4-1.1-0.4-2.1c0-1.2-0.2-1.9-0.5-2.1c-0.3-0.1-0.5-0.5-0.5-0.9s-0.2-0.8-0.5-0.9c-0.3-0.1-0.5-0.4-0.5-0.7
		s-0.2-0.6-0.5-0.7c-0.3-0.1-0.5-0.4-0.5-0.7c0-0.3-0.2-0.5-0.4-0.5c-0.4,0-1.8-1.3-1.8-1.7c0-0.2-0.4-0.3-0.9-0.4
		c-1.2-0.1-1.6-0.4-1.4-0.8c0.1-0.2,0-0.3-0.2-0.3c-0.9,0,0.6-1.1,1.6-1.1c0.6-0.1,0.9-0.2,0.8-0.5c-0.1-0.3,0.1-0.5,0.4-0.5
		c0.3,0,0.8-0.3,1.1-0.6c0.5-0.6,0.5-0.6,0.3,0.1l-0.2,0.7l0.4-0.7c0.2-0.4,0.7-0.8,0.9-1c0.3-0.2,0.5-0.6,0.5-1
		c0-0.4,0.2-0.7,0.5-0.7c0.4,0,0.5-0.4,0.5-1c0-0.6,0.2-1.1,0.5-1.2c0.3-0.1,0.5-1,0.6-2.6c0.1-1.3,0.2-2.6,0.3-2.8
		c0.5-0.8,0.6-1.7,0.7-7.8c0.1-5.4,0-6.3-0.4-6.3c-0.4,0-0.5-0.5-0.5-2.1c0-2.8-0.2-4.1-0.7-4.4c-0.2-0.1-0.4-0.8-0.4-1.6
		c-0.1-0.8-0.3-1.4-0.6-1.5c-0.3-0.1-0.5-0.6-0.5-1c0-0.5-0.2-0.9-0.5-0.9c-0.3,0-0.5-0.3-0.5-0.7c0-0.4-0.2-0.7-0.5-0.7
		c-0.3,0-0.5-0.3-0.5-0.6c0-0.3-0.2-0.9-0.4-1.2c-0.3-0.5-0.4-0.4-0.2,0.1c0.3,1-0.1,0.7-0.7-0.5c-0.3-0.6-0.5-0.8-0.4-0.4
		c0.2,0.7,0.2,0.7-0.3,0.1c-0.3-0.3-0.7-0.6-0.9-0.6c-0.2,0-0.4-0.2-0.4-0.5c0-0.3-0.2-0.5-0.5-0.5c-0.3,0-0.7-0.2-0.9-0.5
		c-0.2-0.3-0.7-0.5-1.1-0.5c-0.4,0-0.8-0.2-0.9-0.5c-0.2-0.3-0.9-0.6-1.7-0.6c-0.8-0.1-1.4-0.3-1.4-0.5c0.1-0.3-1.3-0.4-4.6-0.5
		c-3.7,0-4.8-0.2-5-0.6C752.2,326.7,718.8,326.4,718.3,327 M784.6,327.5c-0.1,0.4-0.2,23-0.1,50.1l0.1,49.3l11.5,0.1l11.5,0.1v-20.2
		c0-17.9,0.1-24.2,0.4-17.9c0,1.2,0.2,2,0.5,2c0.2,0,0.4,0.6,0.5,1.5c0.1,0.9,0.3,1.7,0.5,1.8c0.2,0.1,0.4,0.8,0.4,1.5
		c0,0.8,0.2,1.4,0.5,1.5c0.3,0.1,0.5,0.8,0.5,1.9c0,1,0.1,1.7,0.3,1.7c0.4,0,1,1.7,0.9,2.7c0,0.4,0.2,0.9,0.5,1.1
		c0.3,0.2,0.5,1,0.5,1.9c0,0.9,0.2,1.7,0.5,2c0.3,0.3,0.6,1.1,0.6,1.9c0,0.7,0.3,1.4,0.5,1.5c0.3,0.1,0.4,0.8,0.4,1.7
		c0,1.2,0.1,1.6,0.5,1.6s0.5,0.4,0.5,1.6c0,2,0.3,3,0.8,2.3c0.2-0.3,0.3,0.1,0.3,1c0,1.7,0.3,2.7,0.8,2.4c0.2-0.1,0.3,0.6,0.3,1.6
		c0,1.4,0.1,1.8,0.5,1.8c0.3,0,0.5,0.2,0.5,0.5c0,0.5,1.5,0.5,12.1,0.4l12.1-0.1l0.1-50.1l0.1-50.1l-11.5,0.1l-11.5,0.1l-0.1,18.5
		c-0.1,16.1-0.2,18.5-0.6,18.5c-0.4,0-0.5-0.4-0.5-1.6c0-1.3-0.1-1.6-0.5-1.4c-0.4,0.2-0.5-0.1-0.5-1.4c0-1.1-0.2-1.7-0.5-1.8
		c-0.4-0.1-0.5-0.7-0.5-1.8c0-1.2-0.1-1.6-0.5-1.6c-0.5,0-0.8-1.6-0.6-2.9c0-0.1-0.2-0.2-0.4-0.2c-0.3,0.1-0.5-0.5-0.6-1.6
		c-0.1-1.2-0.3-1.7-0.6-1.7c-0.4,0-0.5-0.4-0.5-1.6c0-1.2-0.1-1.6-0.5-1.6c-0.4,0-0.5-0.5-0.5-2c0-1.4-0.1-1.9-0.4-1.9
		c-0.3,0.1-0.5-0.5-0.6-1.6c-0.1-0.9-0.3-1.7-0.5-1.7c-0.2,0-0.4-0.7-0.5-1.6c-0.1-1.1-0.3-1.6-0.6-1.6c-0.4,0-0.5-0.4-0.5-1.6
		c0-1.3-0.1-1.6-0.5-1.4c-0.4,0.2-0.5-0.1-0.5-1.6c0-1.3-0.1-1.8-0.5-1.8c-0.3,0-0.5-0.2-0.5-0.5c0-0.5-1.5-0.5-11.4-0.5h-11.4
		L784.6,327.5 M410.6,340.5v6.2l-2.6,0.1l-2.6,0.1l-0.1,6.6c-0.1,7.3,0,8.2,0.9,8.1c0.3,0,1.5,0,2.5,0l1.9,0.1v27.7
		c0,24.3,0.1,27.7,0.5,27.9c0.3,0.1,0.5,0.6,0.5,1c0,1.1,1.1,3.3,1.7,3.4c0.2,0,0.4,0.2,0.4,0.5c0,0.3,0.2,0.5,0.5,0.5
		c0.3,0,0.5,0.2,0.5,0.5c0,0.3,0.2,0.5,0.5,0.5c0.3,0,0.5,0.2,0.5,0.5c0,0.4,0.4,0.5,1.1,0.5c0.7,0,1.1,0.2,1.1,0.5
		c0,0.4,0.4,0.5,1.6,0.5c0.9,0,1.5,0.1,1.4,0.3c-0.4,0.6,1.1,0.7,12.5,0.7l11.6,0v-7.3v-7.3H442c-2.2,0-3.2-0.1-3-0.4
		c0.1-0.2-0.1-0.5-0.5-0.6c-0.4-0.1-0.7-0.3-0.5-0.5c0.1-0.2-0.1-0.4-0.4-0.5c-0.5-0.2-0.6-2.8-0.6-24.4v-24.2l2.9-0.2
		c1.6-0.1,3.2-0.2,3.6-0.2c0.6,0,0.6-0.6,0.6-7.3v-7.3h-3.6H437v-6.2v-6.2h-13.2h-13.2V340.5 M470.9,343.2c0,0.2-1.2,0.4-3,0.4
		c-2.3,0-3,0.1-3.2,0.5c-0.1,0.4-0.7,0.5-1.8,0.5c-1.2,0-1.6,0.1-1.6,0.5c0,0.3-0.3,0.5-0.7,0.5c-0.4,0-0.9,0.2-1.2,0.5
		c-0.3,0.3-0.9,0.6-1.5,0.8c-0.5,0.1-0.9,0.4-0.9,0.6c0,0.2-0.3,0.3-0.7,0.3c-0.4,0-0.7,0.2-0.7,0.5c0,0.3-0.1,0.5-0.3,0.4
		c-0.1,0-0.6,0.2-0.9,0.4c-1.6,1.3-2,1.8-1.8,2.2c0.1,0.2,0,0.3-0.3,0.3c-0.3,0-0.6,0.3-0.6,0.7c0,0.4-0.2,0.7-0.6,0.7
		c-0.4,0-0.5,0.2-0.4,0.5c0.1,0.3,0,0.5-0.3,0.5c-0.3,0-0.4,0.2-0.3,0.4c0.1,0.2,0,0.4-0.2,0.4c-0.2,0-0.3,0.1-0.2,0.3
		c0.1,0.2-0.1,0.7-0.5,1.2c-0.4,0.5-0.7,1-0.7,1.1c0.1,1.5-0.1,2.3-0.5,2.3c-0.3,0-0.5,0.2-0.5,0.4c0.3,2.1-0.1,5.6-0.6,5.6
		c-0.5,0-0.5,2.5-0.5,20.9c0,17.8,0.1,20.9,0.5,20.9c0.4,0,0.5,0.6,0.5,2.7c0,2.1,0.1,2.7,0.5,2.7c0.5,0,0.7,0.8,0.6,2.2
		c0,0.3,0.2,0.7,0.5,0.8c0.3,0.1,0.6,0.6,0.6,1c0,0.4,0.2,0.9,0.5,1c0.3,0.1,0.5,0.4,0.5,0.8c0,0.3,0.2,0.5,0.3,0.5
		c0.2,0,0.2,0.3,0.1,0.6c-0.2,0.4-0.1,0.5,0.2,0.3c0.2-0.1,0.4-0.1,0.4,0.1s0.4,0.8,0.9,1.3c0.5,0.5,0.9,0.9,0.9,0.7
		c0-0.1,0.2,0,0.5,0.2c0.3,0.2,0.4,0.6,0.3,0.8c-0.1,0.2,0.2,0.3,0.7,0.3c0.6,0,0.9,0.2,0.9,0.5c0,0.3,0.3,0.5,0.7,0.5
		c0.4,0,0.6,0.1,0.5,0.3c-0.3,0.4,0.6,0.8,1.9,0.8c0.6,0,1.1,0.2,1.2,0.5c0.1,0.4,0.7,0.5,1.6,0.5c1,0,1.4,0.2,1.4,0.5
		c0,0.4,0.8,0.5,3.1,0.6c2.4,0,3.2,0.2,3.6,0.7c0.4,0.5,0.4,0.5,0.5,0.1c0-0.4,0.1-0.4,0.3-0.1c0.2,0.3,1.7,0.4,5,0.4
		c2.6,0,4.6-0.1,4.5-0.3c-0.3-0.5,0.8-0.7,3.2-0.7c1.6,0,2.4-0.2,2.7-0.5c0.3-0.3,1.1-0.5,2.2-0.5c1,0,1.7-0.1,1.6-0.3
		c-0.2-0.3,1.1-0.9,1.8-0.8c0.2,0,0.5-0.2,0.6-0.5c0.1-0.3,0.5-0.5,0.8-0.5c0.3,0,0.5-0.2,0.5-0.5c0-0.5,0.6-0.7,1.7-0.6
		c0.2,0,0.4-0.2,0.4-0.5c0-0.3,0.2-0.6,0.5-0.6c0.3,0,0.5-0.2,0.5-0.5c0-0.3,0.2-0.5,0.5-0.5c0.3,0,0.5-0.2,0.5-0.5
		c0-0.3,0.2-0.5,0.5-0.5c0.3,0,0.5-0.2,0.5-0.4c0-0.2,0.2-0.6,0.5-0.9c0.3-0.3,0.5-0.8,0.5-1.2c0-0.4,0.2-0.7,0.5-0.7
		c0.4,0,0.5-0.4,0.5-1.1s0.2-1.1,0.5-1.1s0.5-0.4,0.5-1.1s0.2-1.1,0.5-1.1c0.4,0,0.5-0.5,0.5-1.9c0-1.4,0.2-2,0.5-2.1
		c0.8-0.3,0.8-47.4,0-47.4c-0.4,0-0.5-0.4-0.5-1.6c0-1.2-0.1-1.6-0.5-1.6c-0.4,0-0.5-0.4-0.5-1.1s-0.2-1.1-0.5-1.1
		c-0.3,0-0.5-0.3-0.5-0.9c0-0.5-0.2-1-0.5-1.1c-0.3-0.1-0.6-0.6-0.7-1.1c-0.3-1.1-1.3-2.3-1.7-2.1c-0.2,0.1-0.3-0.2-0.3-0.6
		c0-0.5-0.2-0.7-0.5-0.6c-0.3,0.1-0.6-0.1-0.8-0.5c-0.2-0.6-0.3-0.6-0.5-0.3c-0.2,0.4-0.3,0.4-0.3,0c0-0.2-0.2-0.5-0.5-0.5
		c-0.2,0-0.8-0.5-1.3-1.1c-0.5-0.6-1.2-1.1-1.7-1.1c-0.5,0-0.8-0.1-0.6-0.3c0.1-0.2-0.4-0.4-1-0.5c-0.7-0.1-1.3-0.4-1.3-0.6
		c-0.1-0.2-0.7-0.4-1.3-0.6c-0.7-0.1-1.5-0.4-2-0.7c-0.4-0.3-2-0.5-3.8-0.5c-1.7,0-3.2-0.2-3.4-0.4
		C478.5,342.7,470.9,342.7,470.9,343.2 M111.5,346.2c0.1,0.3,0.6,0.6,1.2,0.6c0.6,0.1,1,0.3,0.9,0.6c0,0.2,0.1,0.4,0.4,0.4
		c0.5,0,0.7,0.6,0.6,1.7c0,0.2,0.2,0.4,0.5,0.4c0.8,0,0.8,10.6,0,10.9c-0.3,0.1-0.5,0.7-0.5,1.6c0,1-0.1,1.4-0.6,1.4
		c-0.4,0-0.5,0.2-0.4,0.5c0.2,0.4-0.1,0.5-1.4,0.5c-1.2,0-1.6,0.1-1.6,0.5c0,0.3-0.3,0.5-0.7,0.5c-0.7,0-0.7-0.2-0.7-10.2v-10.2h1
		C110.9,345.7,111.4,345.9,111.5,346.2 M747.1,346.2c0.4,0.3,1.1,0.5,1.7,0.5c0.8,0,1,0.2,1.2,1.1c0.1,0.6,0.4,1.1,0.6,1.1
		c0.2,0,0.3,2.8,0.2,7.1c-0.1,5.4-0.2,7-0.5,7c-0.3-0.1-0.4,0.3-0.4,1c0,1-0.1,1.1-1.6,1.1c-1.2,0-1.6,0.1-1.6,0.5
		c0,0.3-0.2,0.5-0.5,0.5c-0.5,0-0.5-1.4-0.5-10.2C745.5,345.1,745.5,345,747.1,346.2 M477,360.3c0,0.4,0.2,0.9,0.5,1.1
		c0.7,0.5,0.8,48.7,0.2,49.1c-0.2,0.1-0.3,0.4-0.2,0.6c0.1,0.2,0,0.3-0.2,0.3c-0.2,0-0.4,0.2-0.4,0.5c0,0.4-0.4,0.5-1.1,0.5
		c-0.7,0-1.1-0.2-1.1-0.6c0-0.3-0.1-0.5-0.3-0.4c-0.5,0.3-0.7-0.2-0.8-1.9c-0.1-0.9-0.3-1.5-0.6-1.5c-0.4,0-0.5-4.3-0.5-22.9
		c0-20.1,0.1-22.9,0.5-22.9c0.4,0,0.5-0.4,0.5-1.1c0-0.7,0.2-1.1,0.6-1.1c0.3,0,0.5-0.2,0.3-0.4c-0.1-0.2,0.3-0.4,1-0.4
		C476.8,359.6,477,359.7,477,360.3 M228.9,366.2c0,5,0.1,5.9,0.5,5.9s0.9,9,0.6,11.2c0,0.1,0.2,0.3,0.5,0.3c0.4,0,0.5,0.6,0.5,3.4
		v3.4l-3.3,0c-2.2,0-3.1-0.1-2.7-0.3c0.5-0.3,0.6-1.2,0.6-5.7c0.1-3.9,0.2-5.5,0.6-5.9c0.3-0.3,0.5-1.7,0.5-4.9
		c0-3.4,0.2-4.5,0.6-4.8c0.4-0.3,0.5-1.3,0.5-4.4c0-3.3,0.1-4,0.5-4C228.8,360.3,228.9,361.2,228.9,366.2 M682.1,365.5
		c0,1.1,0.2,2.1,0.4,2.2c0.3,0.2,0.4,2.1,0.5,5.6c0.1,3.8,0.2,5.5,0.6,5.7c0.3,0.3,0.5,1.8,0.5,5.1c0,3.1,0.2,4.7,0.4,4.7
		c0.2,0,0.3,0.1,0.1,0.2c-0.1,0.1-0.1,0.5,0.2,0.7c0.3,0.4-0.2,0.5-2.9,0.5h-3.3v-3.9c0-3,0.1-3.9,0.4-3.8c0.3,0.1,0.5-1.1,0.5-4.6
		c0.1-3.9,0.2-4.7,0.6-4.7c0.4,0,0.5-0.8,0.5-4.8c0-3.5,0.1-4.8,0.4-4.9C682,363.2,682.1,363.4,682.1,365.5"/>
</g>
</svg>
