<?xml version="1.0" encoding="utf-8"?>
<!-- Generator: Adobe Illustrator 22.0.0, SVG Export Plug-In . SVG Version: 6.00 Build 0)  -->
<svg version="1.1" id="Capa_1" xmlns="http://www.w3.org/2000/svg" xmlns:xlink="http://www.w3.org/1999/xlink" x="0px" y="0px"
	 viewBox="0 0 648 530.4" style="enable-background:new 0 0 648 530.4;" xml:space="preserve">
<g>
	<g>
		<path d="M541.6,9.2H106.4C85.2,9.2,68,26.4,68,47.6v435.2c0,21.2,17.2,38.4,38.4,38.4h435.2c21.2,0,38.4-17.2,38.4-38.4V47.6
			C580,26.4,562.8,9.2,541.6,9.2z M562.9,482.8c0,11.8-9.6,21.3-21.3,21.3H106.4c-11.8,0-21.3-9.6-21.3-21.3V47.6
			c0-11.8,9.6-21.3,21.3-21.3h435.2c11.8,0,21.3,9.6,21.3,21.3V482.8z"/>
	</g>
</g>
<g>
	<g>
		<path d="M144.8,43.3h-34.1c-4.7,0-8.5,3.8-8.5,8.5V86c0,4.7,3.8,8.5,8.5,8.5h34.1c4.7,0,8.5-3.8,8.5-8.5V51.9
			C153.3,47.2,149.5,43.3,144.8,43.3z M136.3,77.5h-17.1V60.4h17.1V77.5z"/>
	</g>
</g>
<g>
	<g>
		<path d="M213.1,43.3h-34.1c-4.7,0-8.5,3.8-8.5,8.5V86c0,4.7,3.8,8.5,8.5,8.5h34.1c4.7,0,8.5-3.8,8.5-8.5V51.9
			C221.6,47.2,217.8,43.3,213.1,43.3z M204.5,77.5h-17.1V60.4h17.1V77.5z"/>
	</g>
</g>
<g>
	<g>
		<path d="M281.3,43.3h-34.1c-4.7,0-8.5,3.8-8.5,8.5V86c0,4.7,3.8,8.5,8.5,8.5h34.1c4.7,0,8.5-3.8,8.5-8.5V51.9
			C289.9,47.2,286,43.3,281.3,43.3z M272.8,77.5h-17.1V60.4h17.1V77.5z"/>
	</g>
</g>
<g>
	<g>
		<path d="M541.6,9.2H106.4C85.2,9.2,68,26.4,68,47.6v72.5c0,4.7,3.8,8.5,8.5,8.5h494.9c4.7,0,8.5-3.8,8.5-8.5V47.6
			C580,26.4,562.8,9.2,541.6,9.2z M562.9,111.6H85.1v-64c0-11.8,9.6-21.3,21.3-21.3h435.2c11.8,0,21.3,9.6,21.3,21.3V111.6z"/>
	</g>
</g>
<g>
	<g>
		<path d="M537.3,145.7H110.7c-4.7,0-8.5,3.8-8.5,8.5v324.3c0,4.7,3.8,8.5,8.5,8.5h426.7c4.7,0,8.5-3.8,8.5-8.5V154.3
			C545.9,149.6,542,145.7,537.3,145.7z M528.8,470H119.2V162.8h409.6L528.8,470L528.8,470z"/>
	</g>
</g>
<g>
	<g>
		<path d="M178.9,179.9h-34.1c-4.7,0-8.5,3.8-8.5,8.5v34.1c0,4.7,3.8,8.5,8.5,8.5s8.5-3.8,8.5-8.5v-25.6h25.6c4.7,0,8.5-3.8,8.5-8.5
			S183.6,179.9,178.9,179.9z"/>
	</g>
</g>
<g>
	<g>
		<path d="M503.2,401.7c-4.7,0-8.5,3.8-8.5,8.5v25.6h-25.6c-4.7,0-8.5,3.8-8.5,8.5s3.8,8.5,8.5,8.5h34.1c4.7,0,8.5-3.8,8.5-8.5
			v-34.1C511.7,405.6,507.9,401.7,503.2,401.7z"/>
	</g>
</g>
<g>
	<g>
		<path d="M400.8,401.7H264.3c-4.7,0-8.5,3.8-8.5,8.5v34.1c0,4.7,3.8,8.5,8.5,8.5h136.5c4.7,0,8.5-3.8,8.5-8.5v-34.1
			C409.3,405.6,405.5,401.7,400.8,401.7z M392.3,435.9H272.8v-17.1h119.5V435.9z"/>
	</g>
</g>
<g>
	<g>
		<path d="M399.5,260.6c-1.6-2.5-4.3-4-7.2-4H272.8c-2.9,0-5.6,1.5-7.2,4c-1.6,2.5-1.8,5.5-0.5,8.2c10.2,21.8,16.3,63.2,16.3,90.7
			v4.1c0,7.3,5.4,12.6,12.8,12.6h76.8c7.4,0,12.8-5.3,12.8-12.6v-4.1c0-27.4,6.1-68.8,16.3-90.7C401.2,266.2,401,263.1,399.5,260.6z
			 M366.7,359.1h-68.3c-0.1-24.6-4.6-60.1-13.1-85.3h94.4C371.3,299,366.7,334.4,366.7,359.1z"/>
	</g>
</g>
<g>
	<g>
		<path d="M349.6,359.1h-34.1c-4.7,0-8.5,3.8-8.5,8.5v42.7c0,4.7,3.8,8.5,8.5,8.5h34.1c4.7,0,8.5-3.8,8.5-8.5v-42.7
			C358.1,362.9,354.3,359.1,349.6,359.1z M341.1,401.7H324v-25.6h17.1V401.7z"/>
	</g>
</g>
<g>
	<g>
		<path d="M358.1,222.5H307c-14.1,0-25.6,11.5-25.6,25.6v17c0,4.7,3.8,8.5,8.5,8.5h85.3c4.7,0,8.5-3.8,8.5-8.5v-17
			C383.7,234,372.2,222.5,358.1,222.5z M366.7,256.7h-68.3v-8.5c0-4.7,3.8-8.6,8.6-8.6h51.1c4.7,0,8.6,3.8,8.6,8.6V256.7z"/>
	</g>
</g>
<g>
	<g>
		<path d="M332.5,179.9c-14.1,0-25.6,11.5-25.6,25.6v25.6c0,4.7,3.8,8.5,8.5,8.5h34.1c4.7,0,8.5-3.8,8.5-8.5v-25.6
			C358.1,191.3,346.6,179.9,332.5,179.9z M341.1,222.5H324v-17.1c0-4.7,3.8-8.5,8.5-8.5s8.5,3.8,8.5,8.5L341.1,222.5L341.1,222.5z"
			/>
	</g>
</g>
<g>
	<g>
		<path d="M392.3,282.3c-3.9,0-7.9,0.7-11.8,2.2c-2.7,1-4.7,3.3-5.3,6c-3.3,13.8-5.9,29.8-7.2,45.1c-0.3,2.9,0.9,5.6,3.2,7.4
			c6.2,4.9,13.5,7.6,21.2,7.6c18.8,0,34.1-15.3,34.1-34.1S411.1,282.3,392.3,282.3z M392.3,333.5c-2.7,0-5-0.7-6.9-1.5
			c1.2-11,3-22.3,5.2-32.5c10.1-1.2,18.8,7,18.8,17C409.3,325.8,401.7,333.5,392.3,333.5z"/>
	</g>
</g>
<g>
	<g>
		<path d="M297.2,335.5c-1.4-15.2-4-31.2-7.2-45.1c-0.7-2.8-2.7-5-5.3-6c-3.9-1.5-7.9-2.2-11.8-2.2c-18.8,0-34.1,15.3-34.1,34.1
			s15.3,34.1,34.1,34.1c7.7,0,15.1-2.6,21.2-7.6C296.3,341.2,297.5,338.4,297.2,335.5z M272.8,333.5c-9.4,0-17.1-7.7-17.1-17.1
			s7.7-17.1,17.1-17.1c0.6,0,1.1,0,1.7,0.1c2.2,10.2,4,21.5,5.2,32.5C277.8,332.8,275.5,333.5,272.8,333.5z"/>
	</g>
</g>
</svg>
