<?xml version="1.0" encoding="utf-8"?>
<!-- Generator: Adobe Illustrator 22.0.0, SVG Export Plug-In . SVG Version: 6.00 Build 0)  -->
<svg version="1.1" id="Capa_1" xmlns="http://www.w3.org/2000/svg" xmlns:xlink="http://www.w3.org/1999/xlink" x="0px" y="0px"
	 viewBox="0 0 648 530.4" style="enable-background:new 0 0 648 530.4;" xml:space="preserve">
<g>
	<g>
		<path d="M230.1,342h-51.2c-4.7,0-8.5,3.8-8.5,8.5v51.2c0,4.7,3.8,8.5,8.5,8.5h51.2c4.7,0,8.5-3.8,8.5-8.5v-51.2
			C238.7,345.8,234.8,342,230.1,342z M221.6,393.2h-34.1v-34.1h34.1V393.2z"/>
	</g>
</g>
<g>
	<g>
		<path d="M349.6,222.5h-51.2c-4.7,0-8.5,3.8-8.5,8.5v51.2c0,4.7,3.8,8.5,8.5,8.5h51.2c4.7,0,8.5-3.8,8.5-8.5v-51.2
			C358.1,226.3,354.3,222.5,349.6,222.5z M341.1,273.7h-34.1v-34.1h34.1V273.7z"/>
	</g>
</g>
<g>
	<g>
		<path d="M298.4,248.1c-56.5,0-102.4,45.9-102.4,102.4c0,4.7,3.8,8.5,8.5,8.5s8.5-3.8,8.5-8.5c0-47.1,38.3-85.3,85.3-85.3
			c4.7,0,8.5-3.8,8.5-8.5C306.9,251.9,303.1,248.1,298.4,248.1z"/>
	</g>
</g>
<g>
	<g>
		<path d="M469.1,342h-51.2c-4.7,0-8.5,3.8-8.5,8.5v51.2c0,4.7,3.8,8.5,8.5,8.5h51.2c4.7,0,8.5-3.8,8.5-8.5v-51.2
			C477.6,345.8,473.8,342,469.1,342z M460.5,393.2h-34.1v-34.1h34.1V393.2z"/>
	</g>
</g>
<g>
	<g>
		<path d="M349.6,248.1c-4.7,0-8.5,3.8-8.5,8.5c0,4.7,3.8,8.5,8.5,8.5c47.1,0,85.3,38.3,85.3,85.3c0,4.7,3.8,8.5,8.5,8.5
			s8.5-3.8,8.5-8.5C452,294.1,406.1,248.1,349.6,248.1z"/>
	</g>
</g>
<g>
	<g>
		<path d="M298.4,248.1H178.9c-4.7,0-8.5,3.8-8.5,8.5c0,4.7,3.8,8.5,8.5,8.5h119.5c4.7,0,8.5-3.8,8.5-8.5
			C306.9,251.9,303.1,248.1,298.4,248.1z"/>
	</g>
</g>
<g>
	<g>
		<path d="M469.1,248.1H349.6c-4.7,0-8.5,3.8-8.5,8.5c0,4.7,3.8,8.5,8.5,8.5h119.5c4.7,0,8.5-3.8,8.5-8.5
			C477.6,251.9,473.8,248.1,469.1,248.1z"/>
	</g>
</g>
<g>
	<g>
		<path d="M541.6,9.2H106.4C85.2,9.2,68,26.4,68,47.6v435.2c0,21.2,17.2,38.4,38.4,38.4h435.2c21.2,0,38.4-17.2,38.4-38.4V47.6
			C580,26.4,562.8,9.2,541.6,9.2z M562.9,482.8c0,11.8-9.6,21.3-21.3,21.3H106.4c-11.8,0-21.3-9.6-21.3-21.3V47.6
			c0-11.8,9.6-21.3,21.3-21.3h435.2c11.8,0,21.3,9.6,21.3,21.3V482.8z"/>
	</g>
</g>
<g>
	<g>
		<path d="M144.8,43.3h-34.1c-4.7,0-8.5,3.8-8.5,8.5V86c0,4.7,3.8,8.5,8.5,8.5h34.1c4.7,0,8.5-3.8,8.5-8.5V51.9
			C153.3,47.1,149.5,43.3,144.8,43.3z M136.3,77.5h-17.1V60.4h17.1V77.5z"/>
	</g>
</g>
<g>
	<g>
		<path d="M213.1,43.3h-34.1c-4.7,0-8.5,3.8-8.5,8.5V86c0,4.7,3.8,8.5,8.5,8.5h34.1c4.7,0,8.5-3.8,8.5-8.5V51.9
			C221.6,47.1,217.8,43.3,213.1,43.3z M204.5,77.5h-17.1V60.4h17.1V77.5z"/>
	</g>
</g>
<g>
	<g>
		<path d="M281.3,43.3h-34.1c-4.7,0-8.5,3.8-8.5,8.5V86c0,4.7,3.8,8.5,8.5,8.5h34.1c4.7,0,8.5-3.8,8.5-8.5V51.9
			C289.9,47.1,286,43.3,281.3,43.3z M272.8,77.5h-17.1V60.4h17.1V77.5z"/>
	</g>
</g>
<g>
	<g>
		<path d="M541.6,9.2H106.4C85.2,9.2,68,26.4,68,47.6v72.5c0,4.7,3.8,8.5,8.5,8.5h494.9c4.7,0,8.5-3.8,8.5-8.5V47.6
			C580,26.4,562.8,9.2,541.6,9.2z M562.9,111.6H85.1v-64c0-11.8,9.6-21.3,21.3-21.3h435.2c11.8,0,21.3,9.6,21.3,21.3V111.6z"/>
	</g>
</g>
<g>
	<g>
		<path d="M537.3,145.7H110.7c-4.7,0-8.5,3.8-8.5,8.5v324.3c0,4.7,3.8,8.5,8.5,8.5h426.7c4.7,0,8.5-3.8,8.5-8.5V154.3
			C545.9,149.5,542,145.7,537.3,145.7z M528.8,470H119.2V162.8h409.6L528.8,470L528.8,470z"/>
	</g>
</g>
<g>
	<g>
		<path d="M178.9,179.9h-34.1c-4.7,0-8.5,3.8-8.5,8.5v34.1c0,4.7,3.8,8.5,8.5,8.5s8.5-3.8,8.5-8.5v-25.6h25.6c4.7,0,8.5-3.8,8.5-8.5
			S183.6,179.9,178.9,179.9z"/>
	</g>
</g>
<g>
	<g>
		<path d="M503.2,401.7c-4.7,0-8.5,3.8-8.5,8.5v25.6h-25.6c-4.7,0-8.5,3.8-8.5,8.5s3.8,8.5,8.5,8.5h34.1c4.7,0,8.5-3.8,8.5-8.5
			v-34.1C511.7,405.5,507.9,401.7,503.2,401.7z"/>
	</g>
</g>
<g>
	<g>
		<path d="M381.2,361.6L330,310.4c-3.3-3.3-8.7-3.3-12.1,0l-51.2,51.2c-2.4,2.4-3.2,6.1-1.9,9.3c1.3,3.2,4.4,5.3,7.9,5.3
			c9.3,0,25.6,16.3,25.6,25.6c0,4.7,3.8,8.5,8.5,8.5h34.1c4.7,0,8.5-3.8,8.5-8.5c0-9.3,16.3-25.6,25.6-25.6c3.5,0,6.6-2.1,7.9-5.3
			S383.7,364,381.2,361.6z M334,393.2h-20c-3.7-11.4-14.1-23.1-25.3-29.4l35.3-35.3l35.3,35.3C348.1,370.1,337.7,381.8,334,393.2z"
			/>
	</g>
</g>
<g>
	<g>
		<path d="M341.1,393.2h-34.1c-4.7,0-8.5,3.8-8.5,8.5v34.1c0,4.7,3.8,8.5,8.5,8.5h34.1c4.7,0,8.5-3.8,8.5-8.5v-34.1
			C349.6,397,345.8,393.2,341.1,393.2z M332.5,427.3h-17.1v-17.1h17.1V427.3z"/>
	</g>
</g>
<g>
	<g>
		<path d="M324,307.9c-4.7,0-8.5,3.8-8.5,8.5v34.1c0,4.7,3.8,8.5,8.5,8.5s8.5-3.8,8.5-8.5v-34.1C332.5,311.7,328.7,307.9,324,307.9z
			"/>
	</g>
</g>
</svg>
