<?xml version="1.0" encoding="utf-8"?>
<!-- Generator: Adobe Illustrator 22.0.0, SVG Export Plug-In . SVG Version: 6.00 Build 0)  -->
<svg version="1.1" id="Capa_1" xmlns="http://www.w3.org/2000/svg" xmlns:xlink="http://www.w3.org/1999/xlink" x="0px" y="0px"
	 viewBox="0 0 648 530.4" style="enable-background:new 0 0 648 530.4;" xml:space="preserve">
<g>
	<g>
		<path d="M541.6,9.2H106.4C85.2,9.2,68,26.4,68,47.6v435.2c0,21.2,17.2,38.4,38.4,38.4h435.2c21.2,0,38.4-17.2,38.4-38.4V47.6
			C580,26.4,562.8,9.2,541.6,9.2z M562.9,482.8c0,11.8-9.6,21.3-21.3,21.3H106.4c-11.8,0-21.3-9.6-21.3-21.3V47.6
			c0-11.8,9.6-21.3,21.3-21.3h435.2c11.8,0,21.3,9.6,21.3,21.3V482.8z"/>
	</g>
</g>
<g>
	<g>
		<path d="M144.8,43.3h-34.1c-4.7,0-8.5,3.8-8.5,8.5V86c0,4.7,3.8,8.5,8.5,8.5h34.1c4.7,0,8.5-3.8,8.5-8.5V51.9
			C153.3,47.1,149.5,43.3,144.8,43.3z M136.3,77.5h-17.1V60.4h17.1V77.5z"/>
	</g>
</g>
<g>
	<g>
		<path d="M213.1,43.3h-34.1c-4.7,0-8.5,3.8-8.5,8.5V86c0,4.7,3.8,8.5,8.5,8.5h34.1c4.7,0,8.5-3.8,8.5-8.5V51.9
			C221.6,47.1,217.8,43.3,213.1,43.3z M204.5,77.5h-17.1V60.4h17.1V77.5z"/>
	</g>
</g>
<g>
	<g>
		<path d="M281.3,43.3h-34.1c-4.7,0-8.5,3.8-8.5,8.5V86c0,4.7,3.8,8.5,8.5,8.5h34.1c4.7,0,8.5-3.8,8.5-8.5V51.9
			C289.9,47.1,286,43.3,281.3,43.3z M272.8,77.5h-17.1V60.4h17.1V77.5z"/>
	</g>
</g>
<g>
	<g>
		<path d="M541.6,9.2H106.4C85.2,9.2,68,26.4,68,47.6v72.5c0,4.7,3.8,8.5,8.5,8.5h494.9c4.7,0,8.5-3.8,8.5-8.5V47.6
			C580,26.4,562.8,9.2,541.6,9.2z M562.9,111.6H85.1v-64c0-11.8,9.6-21.3,21.3-21.3h435.2c11.8,0,21.3,9.6,21.3,21.3V111.6z"/>
	</g>
</g>
<g>
	<g>
		<path d="M537.3,145.7H110.7c-4.7,0-8.5,3.8-8.5,8.5v324.3c0,4.7,3.8,8.5,8.5,8.5h426.7c4.7,0,8.5-3.8,8.5-8.5V154.3
			C545.9,149.5,542,145.7,537.3,145.7z M528.8,470H119.2V162.8h409.6L528.8,470L528.8,470z"/>
	</g>
</g>
<g>
	<g>
		<path d="M452,290.8h-15.4c-3.3,0-6.1-2-7-4.9c-2.4-8.2-5.5-15.8-8.9-22.1c-1.5-2.7-0.9-6.2,1.4-8.5l10.9-10.9
			c1.6-1.6,2.5-3.8,2.5-6s-0.9-4.4-2.5-6l-25-25c-3.2-3.2-8.9-3.2-12.1,0l-10.9,10.9c-2.3,2.3-5.8,2.9-8.5,1.4
			c-6.3-3.4-13.9-6.5-22-8.9c-2.9-0.9-4.9-3.7-4.9-7v-15.5c0-4.7-3.8-8.5-8.5-8.5h-34.1c-4.7,0-8.5,3.8-8.5,8.5v15.5
			c0,3.3-2,6.1-4.9,7c-8.1,2.4-15.8,5.5-22.1,8.9c-2.7,1.5-6.2,0.9-8.5-1.4L252,207.4c-1.6-1.6-3.8-2.5-6-2.5s-4.4,0.9-6,2.5l-25,25
			c-1.6,1.6-2.5,3.8-2.5,6s0.9,4.4,2.5,6l10.9,10.9c2.3,2.3,2.9,5.8,1.4,8.5c-3.4,6.2-6.5,13.9-8.9,22c-0.9,2.9-3.7,4.9-7,4.9H196
			c-4.7,0-8.5,3.8-8.5,8.5v34.1c0,4.7,3.8,8.5,8.5,8.5h15.4c3.3,0,6.1,2,7,4.9c2.4,8.2,5.5,15.8,8.9,22c1.5,2.7,0.9,6.2-1.4,8.5
			L215,388.4c-1.6,1.6-2.5,3.8-2.5,6s0.9,4.4,2.5,6l25,25c3.2,3.2,8.9,3.2,12.1,0l10.9-10.9c2.3-2.3,5.8-2.9,8.5-1.4
			c5.6,3.1,13.2,6,23.1,8.9c2.9,0.9,4.9,3.7,4.9,7v15.5c0,4.7,3.8,8.5,8.5,8.5h32c4.7,0,8.5-3.8,8.5-8.5v-15.5c0-3.3,2-6.1,4.9-7
			c9.9-2.9,17.5-5.8,23.1-8.9c2.7-1.5,6.2-0.9,8.5,1.4l10.9,10.9c1.6,1.6,3.8,2.5,6,2.5s4.4-0.9,6-2.5l25-25c1.6-1.6,2.5-3.8,2.5-6
			s-0.9-4.4-2.5-6l-10.9-10.9c-2.3-2.3-2.9-5.8-1.4-8.5c3.4-6.2,6.5-13.9,8.9-22c0.9-2.9,3.7-4.9,7-4.9H452c4.7,0,8.5-3.8,8.5-8.5
			v-34.1C460.5,294.6,456.7,290.8,452,290.8z M443.5,324.9h-6.9c-10.8,0-20.4,7.1-23.4,17.2c-2.1,7-4.7,13.5-7.5,18.7
			c-5.1,9.3-3.3,21.1,4.3,28.7l4.9,4.9L402,407.3l-4.9-4.9c-7.6-7.6-19.4-9.4-28.7-4.3c-4.5,2.4-11.1,5-19.8,7.5
			c-10.1,3-17.2,12.6-17.2,23.4v6.9h-14.9v-6.9c0-10.8-7.1-20.4-17.2-23.4c-8.6-2.5-15.3-5.1-19.8-7.5c-9.3-5.1-21.1-3.3-28.7,4.3
			l-4.9,4.9l-12.9-12.9l4.9-4.9c7.6-7.6,9.4-19.4,4.3-28.7c-2.8-5.2-5.4-11.7-7.5-18.7c-3-10.1-12.6-17.2-23.4-17.2h-6.9v-17.1h6.9
			c10.8,0,20.4-7.1,23.4-17.2c2.1-7,4.7-13.5,7.5-18.7c5.1-9.3,3.3-21.1-4.3-28.7l-4.9-4.9l12.9-12.9l4.9,4.9
			c7.6,7.6,19.4,9.4,28.7,4.3c5.2-2.9,11.7-5.5,18.7-7.5c10.1-3,17.2-12.6,17.2-23.4v-6.9h17.1v6.9c0,10.8,7.1,20.4,17.2,23.4
			c7,2,13.4,4.6,18.7,7.5c9.3,5.1,21.1,3.3,28.7-4.3l4.9-4.9l12.9,12.9l-4.9,4.9c-7.6,7.6-9.4,19.4-4.3,28.7
			c2.8,5.2,5.4,11.7,7.5,18.7c3,10.1,12.6,17.2,23.4,17.2h6.9L443.5,324.9L443.5,324.9z"/>
	</g>
</g>
<g>
	<g>
		<path d="M324,256.7c-32.9,0-59.7,26.8-59.7,59.7s26.8,59.7,59.7,59.7s59.7-26.8,59.7-59.7S356.9,256.7,324,256.7z M324,359.1
			c-23.5,0-42.7-19.1-42.7-42.7c0-23.5,19.1-42.7,42.7-42.7c23.5,0,42.7,19.1,42.7,42.7C366.7,339.9,347.5,359.1,324,359.1z"/>
	</g>
</g>
<g>
	<g>
		<path d="M178.9,179.9h-34.1c-4.7,0-8.5,3.8-8.5,8.5v34.1c0,4.7,3.8,8.5,8.5,8.5s8.5-3.8,8.5-8.5v-25.6h25.6c4.7,0,8.5-3.8,8.5-8.5
			S183.6,179.9,178.9,179.9z"/>
	</g>
</g>
<g>
	<g>
		<path d="M503.2,401.7c-4.7,0-8.5,3.8-8.5,8.5v25.6h-25.6c-4.7,0-8.5,3.8-8.5,8.5s3.8,8.5,8.5,8.5h34.1c4.7,0,8.5-3.8,8.5-8.5
			v-34.1C511.7,405.5,507.9,401.7,503.2,401.7z"/>
	</g>
</g>
</svg>
