<?xml version="1.0" encoding="utf-8"?>
<!-- Generator: Adobe Illustrator 22.0.0, SVG Export Plug-In . SVG Version: 6.00 Build 0)  -->
<svg version="1.1" id="Capa_1" xmlns="http://www.w3.org/2000/svg" xmlns:xlink="http://www.w3.org/1999/xlink" x="0px" y="0px"
	 viewBox="0 0 648 530.4" style="enable-background:new 0 0 648 530.4;" xml:space="preserve">
<g>
	<g>
		<path d="M578.4,46.4C578.4,25.2,561.2,8,540,8H104.8C83.6,8,66.4,25.2,66.4,46.4v147c5.3-4.8,11.4-8.5,17.1-12.6V46.4
			c0-11.8,9.6-21.3,21.3-21.3H540c11.8,0,21.3,9.6,21.3,21.3v138.4c5.5,3.2,11.2,6.5,17.1,9V46.4z"/>
		<path d="M561.3,345.5v136.1c0,11.8-9.6,21.3-21.3,21.3H104.8c-11.8,0-21.3-9.6-21.3-21.3V344.4c-5.3,2.7-11,4.6-17.1,4.8v132.5
			c0,21.2,17.2,38.4,38.4,38.4H540c21.2,0,38.4-17.2,38.4-38.4V350C572.7,348.6,567.3,345.1,561.3,345.5z"/>
	</g>
</g>
<g>
	<g>
		<path d="M143.2,42.1h-34.1c-4.7,0-8.5,3.8-8.5,8.5v34.1c0,4.7,3.8,8.5,8.5,8.5h34.1c4.7,0,8.5-3.8,8.5-8.5V50.7
			C151.7,46,147.9,42.1,143.2,42.1z M134.7,76.3h-17.1V59.2h17.1V76.3z"/>
	</g>
</g>
<g>
	<g>
		<path d="M211.5,42.1h-34.1c-4.7,0-8.5,3.8-8.5,8.5v34.1c0,4.7,3.8,8.5,8.5,8.5h34.1c4.7,0,8.5-3.8,8.5-8.5V50.7
			C220,46,216.2,42.1,211.5,42.1z M202.9,76.3h-17.1V59.2h17.1V76.3z"/>
	</g>
</g>
<g>
	<g>
		<path d="M279.7,42.1h-34.1c-4.7,0-8.5,3.8-8.5,8.5v34.1c0,4.7,3.8,8.5,8.5,8.5h34.1c4.7,0,8.5-3.8,8.5-8.5V50.7
			C288.3,46,284.4,42.1,279.7,42.1z M271.2,76.3h-17.1V59.2h17.1V76.3z"/>
	</g>
</g>
<g>
	<g>
		<path d="M540,8H104.8C83.6,8,66.4,25.2,66.4,46.4v72.5c0,4.7,3.8,8.5,8.5,8.5h494.9c4.7,0,8.5-3.8,8.5-8.5V46.4
			C578.4,25.2,561.2,8,540,8z M561.3,110.4H83.5v-64c0-11.8,9.6-21.3,21.3-21.3H540c11.8,0,21.3,9.6,21.3,21.3V110.4z"/>
	</g>
</g>
<g>
	<g>
		<path d="M527.2,326.6v142.2h0H117.6V327.3c-5.7,0.5-11.1-1-17.1-0.3v150.3c0,4.7,3.8,8.5,8.5,8.5h426.7c4.7,0,8.5-3.8,8.5-8.5V329
			C538.5,329.2,532.9,327.6,527.2,326.6z"/>
		<path d="M100.5,159.1v4.1c1.7,0.3,3.4,0.9,5.1,1.6C103.8,163,102.2,160.9,100.5,159.1z"/>
		<path d="M117.6,170.2c-0.4,0.1-0.8,0.1-1.1,0.1c0.4,0.2,0.8,0.3,1.1,0.5V170.2z"/>
		<path d="M116.5,170.3c-3.7-1.6-7.2-3.8-10.9-5.4C108.5,168,111.7,170.6,116.5,170.3z"/>
		<path d="M535.7,144.5H109.1c-4.7,0-8.5,5.5-8.5,12.2v2.4c1.7,1.7,3.3,3.8,5.1,5.7c3.7,1.6,7.2,3.9,10.9,5.4c0.4,0,0.7-0.1,1.1-0.1
			v-1.2H527c6.3-2.8,11.5-6.8,17.3-10.3v-1.9C544.3,150,540.4,144.5,535.7,144.5z"/>
	</g>
</g>
<g>
	<g>
		<g>
			<path d="M115.4,239.6h-104c-7.2,0-13,5.3-13,11.9V299c0,32.8,29.2,59.4,65,59.4c35.8,0,65-26.7,65-59.4v-47.5
				C128.4,244.9,122.6,239.6,115.4,239.6z M46,253.1c0.4,0,0.8,0,1.2,0C46.8,253.1,46.4,253.1,46,253.1c-9.1,0-17.1,0-26.3,0
				C28.9,253.1,36.9,253.1,46,253.1z M16.1,329.5c10.7,2.2,20.3,7.6,32.2,8.7C36.4,337.2,26.9,331.7,16.1,329.5z M102.4,299
				c0,19.7-17.5,35.7-39,35.7s-39-16-39-35.7v-35.7h78V299z"/>
		</g>
	</g>
	<g>
		<g>
			<path d="M219.4,239.6h-104c-7.2,0-13,5.3-13,11.9V299c0,32.8,29.2,59.4,65,59.4c35.8,0,65-26.7,65-59.4v-47.5
				C232.4,244.9,226.6,239.6,219.4,239.6z M206.4,299c0,19.7-17.5,35.7-39,35.7s-39-16-39-35.7v-35.7h78V299z"/>
		</g>
	</g>
	<g>
		<g>
			<path d="M323.4,239.6h-104c-7.2,0-13,5.3-13,11.9V299c0,32.8,29.2,59.4,65,59.4c35.8,0,65-26.7,65-59.4v-47.5
				C336.4,244.9,330.6,239.6,323.4,239.6z M310.4,299c0,19.7-17.5,35.7-39,35.7s-39-16-39-35.7v-35.7h78V299L310.4,299z"/>
		</g>
	</g>
	<g>
		<g>
			<path d="M427.4,239.6h-104c-7.2,0-13,5.3-13,11.9V299c0,32.8,29.2,59.4,65,59.4c35.8,0,65-26.7,65-59.4v-47.5
				C440.4,244.9,434.6,239.6,427.4,239.6z M414.4,299c0,19.7-17.5,35.7-39,35.7s-39-16-39-35.7v-35.7h78V299z"/>
		</g>
	</g>
	<g>
		<g>
			<path d="M531.4,239.6h-104c-7.2,0-13,5.3-13,11.9V299c0,32.8,29.2,59.4,65,59.4c35.8,0,65-26.7,65-59.4v-47.5
				C544.4,244.9,538.6,239.6,531.4,239.6z M518.4,299c0,19.7-17.5,35.7-39,35.7s-39-16-39-35.7v-35.7h78V299z"/>
		</g>
	</g>
	<g>
		<g>
			<path d="M635.4,239.6h-104c-7.2,0-13,5.3-13,11.9V299c0,32.8,29.2,59.4,65,59.4c35.8,0,65-26.7,65-59.4v-47.5
				C648.4,244.9,642.6,239.6,635.4,239.6z M598.9,253.1c-11.9,1.1-22.7-4.4-34.6-3.3C576.2,248.7,586.9,254.2,598.9,253.1z
				 M564.2,342.6c13.1,0,25.1,6.5,38.2,1.1C589.3,349.2,577.4,342.6,564.2,342.6z M622.4,299c0,19.7-17.5,35.7-39,35.7
				s-39-16-39-35.7v-35.7h78V299z"/>
		</g>
	</g>
	<g>
		<g>
			<path d="M196.2,150.8c-2.3-3.9-6.7-6.3-11.5-6.3h-69.3c-3.4,0-6.8,1.2-9.2,3.5l-104,95.1c-3.7,3.4-4.8,8.5-2.8,13s6.7,7.3,12,7.3
				h104c4.3,0,8.4-2,10.8-5.3l69.3-95.1C198.2,159.4,198.5,154.7,196.2,150.8z M46,253.1c-9.1,0-17.1,0-26.3,0
				C28.9,253.1,36.9,253.1,46,253.1c0.4,0,0.8,0,1.2,0C46.8,253.1,46.4,253.1,46,253.1z M108.4,239.6H42.8l78-71.3h39.7L108.4,239.6
				z"/>
		</g>
	</g>
	<g>
		<g>
			<path d="M264.6,149.5c-2.4-3.1-6.4-4.9-10.5-4.9h-69.3c-4.3,0-8.4,2-10.8,5.3l-69.3,95.1c-2.7,3.6-2.9,8.3-0.7,12.2
				c2.3,3.9,6.7,6.3,11.5,6.3h104c5.6,0,10.6-3.3,12.3-8.1l34.7-95.1C267.7,156.6,267,152.6,264.6,149.5z M210,239.6h-70.3l52-71.3
				H236L210,239.6z"/>
		</g>
	</g>
	<path d="M323.4,144.5h-69.3"/>
	<g>
		<g>
			<path d="M439.7,247.7l-34.7-95.1c-1.8-4.9-6.7-8.1-12.3-8.1h-69.3c-7.2,0-13,5.3-13,11.9v95.1c0,6.6,5.8,11.9,13,11.9h104
				c4.2,0,8.1-1.8,10.6-4.9C440.4,255.4,441.1,251.4,439.7,247.7z M336.4,239.6v-71.3h47l26,71.3H336.4z"/>
		</g>
	</g>
	<g>
		<g>
			<path d="M644.6,243.1l-104-95.1c-2.4-2.2-5.7-3.5-9.2-3.5h-69.3c-4.8,0-9.2,2.4-11.5,6.3c-2.3,3.9-2,8.5,0.7,12.2l69.3,95.1
				c2.4,3.3,6.5,5.3,10.8,5.3h104c5.3,0,10-2.9,12-7.3C649.4,251.6,648.3,246.5,644.6,243.1z M601.3,207.3
				c-7.2-9.8-17.9-12-29.9-14.2C583.4,195.3,594.1,197.4,601.3,207.3z M564.2,249.8c11.9-1.1,22.7,4.4,34.6,3.3
				C586.9,254.2,576.2,248.7,564.2,249.8z M538.3,239.6l-52-71.3H526l78,71.3H538.3z"/>
		</g>
	</g>
	<g>
		<g>
			<path d="M323.4,358.5c-31.6,0-57.3,23.4-57.3,52.2s25.7,52.2,57.3,52.2s57.3-23.4,57.3-52.2S355,358.5,323.4,358.5z M323.4,452.4
				c-25.3,0-45.8-18.7-45.8-41.7c0-23,20.5-41.7,45.8-41.7c25.3,0,45.8,18.7,45.8,41.7C369.2,433.6,348.7,452.4,323.4,452.4z"/>
		</g>
	</g>
	<g>
		<g>
			<path d="M356.1,401c-0.7-1.9-2.5-3.3-4.6-3.6l-15.8-2.1l-7.1-13.1c-1.9-3.6-8.3-3.6-10.3,0l-7.1,13.1l-15.8,2.1
				c-2.2,0.3-3.9,1.7-4.6,3.6c-0.7,1.9-0.1,4,1.4,5.3l11.4,10.1l-3,14.1c-0.4,2.1,0.5,4.2,2.5,5.3c1.9,1.2,4.4,1.2,6.3,0l14-8.5
				l14,8.5c1,0.6,2.1,0.9,3.2,0.9c1.1,0,2.2-0.3,3.2-0.9c1.9-1.2,2.9-3.3,2.5-5.3l-3-14.1l11.4-10.1
				C356.2,404.9,356.7,402.9,356.1,401z M333,410.9c-1.4,1.2-2,3-1.6,4.7l1,4.6l-5.8-3.5c-1-0.6-2.1-0.9-3.2-0.9s-2.2,0.3-3.2,0.9
				l-5.8,3.5l1-4.6c0.4-1.7-0.2-3.5-1.6-4.7l-5.3-4.7l7.3-1c1.9-0.2,3.5-1.3,4.3-2.9l3.3-6.1l3.3,6.1c0.8,1.5,2.4,2.6,4.3,2.9l7.3,1
				L333,410.9z"/>
		</g>
	</g>
</g>
</svg>
