<?xml version="1.0" encoding="utf-8"?>
<!-- Generator: Adobe Illustrator 22.0.0, SVG Export Plug-In . SVG Version: 6.00 Build 0)  -->
<svg version="1.1" id="katman_1" xmlns="http://www.w3.org/2000/svg" xmlns:xlink="http://www.w3.org/1999/xlink" x="0px" y="0px"
	 viewBox="0 0 850.4 850.4" style="enable-background:new 0 0 850.4 850.4;" xml:space="preserve">
<style type="text/css">
	.st0{fill:#24AFE0;}
	.st1{fill:#FFFFFF;}
	.st2{fill:#1B1B1B;}
	.st3{fill:#FFFFFF;stroke:#020203;stroke-width:0.25;stroke-miterlimit:10;}
	.st4{fill:#22AFDE;}
	.st5{fill:#014C6A;}
	.st6{fill:#3F3F3F;}
	.st7{fill:#FBBA36;}
	.st8{fill:#FFF7E0;}
</style>
<g>
	<circle class="st0" cx="140.2" cy="425.2" r="138.5"/>
	<g>
		<g>
			<path class="st1" d="M171.7,382.3H136v109.1h-28.2V382.3H72.2v-24.6h99.5V382.3z"/>
			<path class="st1" d="M258.6,491.4h-27.5V477h-0.4c-6.9,11.2-15.9,16.8-27.3,16.8c-20.8,0-31.1-13.4-31.1-40.2v-57.7h27.5v55
				c0,13.6,5.1,20.3,15,20.3c4.9,0,8.9-1.8,11.9-5.6c2.9-3.6,4.5-8.7,4.5-15v-54.7h27.5v95.6L258.6,491.4L258.6,491.4z"/>
		</g>
	</g>
	<path class="st0" d="M347.3,423.6c-3.3-2-7.2-2.9-11.6-2.9c-6,0-10.7,2.4-14.1,7.1s-5.1,11-5.1,19.2v45.6h-27.7V397h27.7v17.7h0.4
		c4.3-12.8,12.3-19.4,23.5-19.4c2.9,0,5.2,0.4,6.9,1.1L347.3,423.6L347.3,423.6z"/>
	<path class="st0" d="M434.7,492.5h-26.1v-13.8h-0.4c-6,10.7-14.8,16.1-26.6,16.1c-8.7,0-15.6-2.7-20.5-8c-5.1-5.2-7.4-12.3-7.4-21
		c0-18.5,10.3-29.3,30.8-32l24.3-3.4c0-10.5-5.2-15.7-15.9-15.7c-10.7,0-20.8,3.4-30.4,10.1v-22.3c3.8-2.2,9-4,15.7-5.6
		s12.7-2.4,18.3-2.4c25.5,0,38.2,13.6,38.2,40.7V492.5z M408.6,453.6v-6.5l-16.3,2.2c-9,1.3-13.4,5.6-13.4,13c0,3.4,1.1,6.2,3.3,8.3
		c2.2,2.2,5.1,3.3,8.9,3.3c5.2,0,9.4-2,12.7-5.8S408.6,459.6,408.6,453.6z"/>
	<path class="st0" d="M524.3,489.1c-6.2,3.8-15.2,5.8-27,5.8c-13.8,0-24.8-4.5-33.3-13.4s-12.7-20.5-12.7-34.4
		c0-16.3,4.5-29,13.8-38.4c9-9.4,21.4-14.1,36.6-14.1c10.5,0,18.1,1.4,22.8,4.5v25c-5.8-4.5-12.1-6.9-19.4-6.9
		c-8,0-14.1,2.5-18.8,7.4s-6.9,11.8-6.9,20.5c0,8.5,2.2,15,6.7,19.9c4.3,4.9,10.5,7.2,18.3,7.2c6.9,0,13.6-2.4,20.3-6.9V489
		L524.3,489.1L524.3,489.1z"/>
	<path class="st0" d="M584.9,494.9c-14.8,0-26.6-4.5-35.1-13.4s-12.8-21-12.8-36.4c0-15.7,4.3-28.2,13.2-37.1s20.8-13.4,35.8-13.4
		c14.8,0,26.4,4.5,34.9,13.4s12.7,20.8,12.7,35.5c0,15.9-4.3,28.4-13,37.6C612.1,490.2,600.1,494.9,584.9,494.9z M585.6,417.2
		c-6.5,0-11.6,2.4-15.2,7.2c-3.6,4.7-5.4,11.6-5.4,20.3c0,18.3,6.9,27.5,20.8,27.5c13.2,0,19.9-9.4,19.9-28.2
		C605.7,426.1,599,417.2,585.6,417.2z"/>
	<path class="st0" d="M847.5,492.5H820v-53c0-14.8-4.9-22.3-14.8-22.3c-4.7,0-8.7,2-11.8,5.8c-3.1,4-4.7,8.9-4.7,14.8v54.5h-27.5
		V397h27.7v15.2h0.4c6.5-11.6,16.1-17.4,28.8-17.4c19.7,0,29.7,13.2,29.7,39.5v58.3h-0.3V492.5z"/>
	<g>
		<path class="st2" d="M270,547.4h-17.4v-35.5h4v31.7H270V547.4L270,547.4z"/>
		<path class="st2" d="M293.5,535.8h-16.8c0,2.9,0.7,5.1,2.2,6.5c1.4,1.4,3.3,2.4,5.6,2.4c2.7,0,5.1-0.9,7.4-2.9v3.8
			c-2.2,1.6-4.9,2.4-8.3,2.4s-6-1.1-8-3.4s-2.9-5.6-2.9-9.8c0-4,1.1-7.2,3.1-9.6c2.2-2.5,4.7-3.8,7.8-3.8s5.4,1.1,7.2,3.3
			c1.6,2.2,2.5,5.1,2.5,8.9v2.4h0.2V535.8z M289.7,532.3c0-2.4-0.5-4.2-1.6-5.4s-2.5-2-4.3-2s-3.3,0.7-4.5,2c-1.3,1.4-2,3.1-2.4,5.4
			H289.7z"/>
		<path class="st2" d="M316.3,547.4h-3.8v-4h-0.2c-1.6,3.1-4.2,4.5-7.2,4.5c-2.4,0-4.2-0.7-5.6-2c-1.3-1.3-2-3.1-2-5.2
			c0-4.7,2.5-7.4,7.8-8.3l7.1-1.1c0-4.3-1.6-6.5-4.9-6.5c-2.9,0-5.4,1.1-7.8,3.1v-4.2c2.4-1.6,5.1-2.4,8.1-2.4
			c5.6,0,8.3,3.1,8.3,9.4v16.7H316.3z M312.5,534.7l-5.8,0.9c-1.8,0.2-3.1,0.7-4,1.4s-1.3,1.8-1.3,3.6c0,1.3,0.4,2.2,1.3,3.1
			c0.9,0.7,2,1.1,3.3,1.1c1.8,0,3.4-0.7,4.7-2.2c1.3-1.4,1.8-3.3,1.8-5.4V534.7L312.5,534.7z"/>
		<path class="st2" d="M335.9,526.2c-0.7-0.5-1.6-0.9-2.9-0.9c-1.6,0-2.9,0.9-4,2.5s-1.6,3.8-1.6,6.7v12.8h-3.8V522h3.8v5.2h0.2
			c0.5-1.8,1.4-3.3,2.5-4.2c1.1-1.1,2.4-1.4,3.8-1.4c0.9,0,1.8,0.2,2.4,0.4v4.2H335.9z"/>
		<path class="st2" d="M359.6,547.4h-3.8v-14.5c0-5.4-1.8-8.1-5.4-8.1c-1.8,0-3.4,0.7-4.7,2.4c-1.3,1.4-1.8,3.4-1.8,5.8v14.5H340
			V522h3.8v4.2h0.2c1.8-3.3,4.3-4.9,7.8-4.9c2.5,0,4.5,0.9,6,2.7c1.4,1.8,2,4.3,2,7.8v15.6L359.6,547.4L359.6,547.4z"/>
		<path class="st2" d="M399.9,547.4h-3.8V543H396c-1.8,3.3-4.5,4.9-8.1,4.9c-2.9,0-5.4-1.1-7.1-3.4c-1.8-2.4-2.7-5.4-2.7-9.2
			c0-4.2,0.9-7.6,2.9-10.1s4.5-3.8,8-3.8c3.3,0,5.6,1.4,7.1,4.2h0.2v-15.7h3.8v37.5H399.9z M396.1,536v-3.8c0-2-0.7-3.8-1.8-5.2
			c-1.3-1.4-2.9-2.2-4.9-2.2c-2.4,0-4.2,0.9-5.4,2.7c-1.3,1.8-2,4.3-2,7.6c0,2.9,0.7,5.2,2,6.9c1.3,1.6,2.9,2.5,5.1,2.5
			s3.8-0.9,5.1-2.5C395.6,540.5,396.1,538.5,396.1,536z"/>
		<path class="st2" d="M409.5,515.7c-0.7,0-1.3-0.2-1.8-0.7s-0.7-1.1-0.7-1.8s0.2-1.4,0.7-1.8c0.5-0.5,1.1-0.7,1.8-0.7
			c0.7,0,1.3,0.2,1.8,0.7s0.7,1.1,0.7,1.8s-0.2,1.3-0.7,1.8C411,515.3,410.3,515.7,409.5,515.7z M411.5,547.4h-3.8V522h3.8V547.4z"
			/>
		<path class="st2" d="M430.9,513.5c-0.7-0.4-1.6-0.7-2.5-0.7c-2.7,0-4,1.8-4,5.4v4h5.6v3.4h-5.6v21.9h-3.8v-21.9h-4v-3.4h4V518
			c0-2.7,0.7-4.7,2.2-6.3c1.4-1.6,3.3-2.4,5.4-2.4c1.1,0,2,0.2,2.7,0.4L430.9,513.5L430.9,513.5z"/>
		<path class="st2" d="M445.7,513.5c-0.7-0.4-1.6-0.7-2.5-0.7c-2.7,0-4,1.8-4,5.4v4h5.6v3.4h-5.6v21.9h-3.8v-21.9h-4v-3.4h4V518
			c0-2.7,0.7-4.7,2.2-6.3c1.4-1.6,3.3-2.4,5.4-2.4c1.1,0,2,0.2,2.7,0.4L445.7,513.5L445.7,513.5z"/>
		<path class="st2" d="M468,535.8h-16.8c0,2.9,0.7,5.1,2.2,6.5c1.4,1.4,3.3,2.4,5.6,2.4c2.7,0,5.1-0.9,7.4-2.9v3.8
			c-2.2,1.6-4.9,2.4-8.3,2.4s-6-1.1-8-3.4c-2-2.4-2.9-5.6-2.9-9.8c0-4,1.1-7.2,3.1-9.6c2.2-2.5,4.7-3.8,7.8-3.8s5.4,1.1,7.2,3.3
			c1.6,2.2,2.5,5.1,2.5,8.9v2.4h0.2V535.8z M464,532.3c0-2.4-0.5-4.2-1.6-5.4c-1.1-1.3-2.5-2-4.3-2s-3.3,0.7-4.5,2
			c-1.3,1.4-2,3.1-2.4,5.4H464z"/>
		<path class="st2" d="M486.1,526.2c-0.7-0.5-1.6-0.9-2.9-0.9c-1.6,0-2.9,0.9-4,2.5s-1.6,3.8-1.6,6.7v12.8h-3.8V522h3.8v5.2h0.2
			c0.5-1.8,1.4-3.3,2.5-4.2c1.1-1.1,2.4-1.4,3.8-1.4c0.9,0,1.8,0.2,2.4,0.4v4.2H486.1z"/>
		<path class="st2" d="M508.5,535.8h-16.8c0,2.9,0.7,5.1,2.2,6.5c1.4,1.4,3.3,2.4,5.6,2.4c2.7,0,5.1-0.9,7.4-2.9v3.8
			c-2.2,1.6-4.9,2.4-8.3,2.4s-6-1.1-8-3.4c-2-2.4-2.9-5.6-2.9-9.8c0-4,1.1-7.2,3.1-9.6c2.2-2.5,4.7-3.8,7.8-3.8
			c3.1,0,5.4,1.1,7.2,3.3c1.6,2.2,2.5,5.1,2.5,8.9v2.4h0.2V535.8z M504.7,532.3c0-2.4-0.5-4.2-1.6-5.4c-1.1-1.3-2.5-2-4.3-2
			s-3.3,0.7-4.5,2c-1.3,1.4-2,3.1-2.4,5.4H504.7z"/>
		<path class="st2" d="M534.1,547.4h-3.8v-14.5c0-5.4-1.8-8.1-5.4-8.1c-2,0-3.4,0.7-4.7,2.4c-1.3,1.4-1.8,3.4-1.8,5.8v14.5h-3.8V522
			h3.8v4.2h0.2c1.8-3.3,4.3-4.9,7.8-4.9c2.5,0,4.5,0.9,6,2.7c1.4,1.8,2,4.3,2,7.8v15.6L534.1,547.4L534.1,547.4z"/>
		<path class="st2" d="M552.2,547.2c-0.9,0.5-2,0.7-3.6,0.7c-4.2,0-6.2-2.5-6.2-7.4v-15h-4.2V522h4.2v-6.2l3.8-1.3v7.4h6v3.4h-6
			v14.3c0,1.6,0.2,2.9,0.7,3.6c0.5,0.7,1.4,1.1,2.7,1.1c0.9,0,1.8-0.4,2.5-0.9L552.2,547.2L552.2,547.2z"/>
		<path class="st2" d="M560.8,541.8l-3.6,12.1h-2.7l2.7-12.1H560.8z"/>
		<path class="st2" d="M579.1,546.5v-4.3c2,1.6,4.3,2.5,6.9,2.5c3.3,0,5.1-1.3,5.1-3.6c0-0.7-0.2-1.3-0.4-1.8
			c-0.4-0.5-0.7-0.9-1.1-1.3c-0.5-0.4-1.1-0.7-1.6-0.9c-0.7-0.4-1.4-0.5-2.2-0.9c-1.1-0.4-2-0.9-2.7-1.3c-0.7-0.5-1.4-0.9-2-1.4
			s-0.9-1.3-1.3-2c-0.2-0.7-0.4-1.6-0.4-2.5c0-1.3,0.2-2.2,0.7-3.1c0.5-0.9,1.3-1.6,2-2.4c0.9-0.5,1.8-1.1,2.9-1.4
			c1.1-0.4,2.2-0.5,3.4-0.5c2,0,4,0.4,5.4,1.1v4.2c-1.8-1.3-3.8-1.8-6-1.8c-0.7,0-1.3,0-2,0.2s-1.1,0.4-1.4,0.7
			c-0.4,0.4-0.7,0.7-0.9,1.1c-0.2,0.4-0.4,0.9-0.4,1.4c0,0.7,0.2,1.3,0.4,1.6c0.2,0.4,0.5,0.9,0.9,1.3s0.9,0.7,1.6,0.9
			c0.5,0.4,1.3,0.5,2.2,0.9c1.1,0.4,2,0.9,2.9,1.3c0.9,0.5,1.6,0.9,2.2,1.4c0.5,0.5,1.1,1.3,1.3,2s0.5,1.6,0.5,2.7
			c0,1.3-0.2,2.4-0.7,3.3c-0.5,0.9-1.3,1.6-2,2.4c-0.9,0.5-1.8,1.1-3.1,1.4c-1.3,0.4-2.4,0.4-3.6,0.4
			C583.1,548.1,580.9,547.5,579.1,546.5z"/>
		<path class="st2" d="M604.6,543.7L604.6,543.7l-0.2,15.4h-3.8v-36.9h3.8v4.5h0.2c1.8-3.4,4.5-5.1,8.1-5.1c3.1,0,5.4,1.1,7.2,3.4
			c1.6,2.4,2.5,5.2,2.5,9c0,4.2-0.9,7.6-2.9,10.1s-4.5,3.8-8,3.8C608.6,548.1,606.3,546.6,604.6,543.7z M604.5,533.6v3.6
			c0,2.2,0.7,3.8,2,5.2s2.9,2.2,4.9,2.2c2.4,0,4.2-0.9,5.4-2.9c1.3-1.8,2-4.5,2-7.8c0-2.9-0.5-5.1-1.8-6.7s-2.9-2.4-4.9-2.4
			c-2.2,0-4,0.9-5.2,2.5C605.2,529.1,604.5,531.1,604.5,533.6z"/>
		<path class="st2" d="M647.7,535.8h-16.8c0,2.9,0.7,5.1,2.2,6.5c1.4,1.4,3.3,2.4,5.6,2.4c2.7,0,5.1-0.9,7.4-2.9v3.8
			c-2.2,1.6-4.9,2.4-8.3,2.4c-3.4,0-6-1.1-8-3.4s-2.9-5.6-2.9-9.8c0-4,1.1-7.2,3.1-9.6c2.2-2.5,4.7-3.8,7.8-3.8s5.4,1.1,7.2,3.3
			c1.6,2.2,2.5,5.1,2.5,8.9v2.4h0.2V535.8z M643.7,532.3c0-2.4-0.5-4.2-1.6-5.4c-1.1-1.3-2.5-2-4.3-2s-3.3,0.7-4.5,2
			c-1.3,1.4-2,3.1-2.4,5.4H643.7z"/>
		<path class="st2" d="M670.3,547.4h-3.8v-4h-0.2c-1.6,3.1-4.2,4.5-7.2,4.5c-2.4,0-4.2-0.7-5.6-2s-2-3.1-2-5.2
			c0-4.7,2.5-7.4,7.8-8.3l7.1-1.1c0-4.3-1.6-6.5-4.9-6.5c-2.9,0-5.4,1.1-7.8,3.1v-4.2c2.4-1.6,5.1-2.4,8.1-2.4
			c5.6,0,8.3,3.1,8.3,9.4v16.7H670.3z M666.5,534.7l-5.8,0.9c-1.8,0.2-3.1,0.7-4,1.4s-1.3,1.8-1.3,3.6c0,1.3,0.4,2.2,1.3,3.1
			c0.9,0.7,2,1.1,3.3,1.1c1.8,0,3.4-0.7,4.7-2.2s1.8-3.3,1.8-5.4V534.7L666.5,534.7z"/>
		<path class="st2" d="M697.3,547.4h-5.2l-10.5-12.1h-0.2v12.1h-3.8v-37.5h3.8v23.7h0.2l10-11.6h5.1l-11,12.3L697.3,547.4z"/>
		<path class="st2" d="M712.7,546.5v-4.3c2,1.6,4.3,2.5,6.9,2.5c3.3,0,5.1-1.3,5.1-3.6c0-0.7-0.2-1.3-0.4-1.8
			c-0.4-0.5-0.7-0.9-1.1-1.3c-0.5-0.4-1.1-0.7-1.6-0.9c-0.7-0.4-1.4-0.5-2.2-0.9c-1.1-0.4-2-0.9-2.7-1.3c-0.7-0.5-1.4-0.9-2-1.4
			c-0.5-0.5-0.9-1.3-1.3-2c-0.2-0.7-0.4-1.6-0.4-2.5c0-1.3,0.2-2.2,0.7-3.1c0.5-0.9,1.3-1.6,2-2.4c0.9-0.5,1.8-1.1,2.9-1.4
			c1.1-0.4,2.2-0.5,3.4-0.5c2,0,4,0.4,5.4,1.1v4.2c-1.8-1.3-3.8-1.8-6-1.8c-0.7,0-1.3,0-2,0.2s-1.1,0.4-1.4,0.7
			c-0.4,0.4-0.7,0.7-0.9,1.1c-0.2,0.4-0.4,0.9-0.4,1.4c0,0.7,0.2,1.3,0.4,1.6c0.2,0.4,0.5,0.9,0.9,1.3s0.9,0.7,1.6,0.9
			c0.5,0.4,1.3,0.5,2.2,0.9c1.1,0.4,2,0.9,2.9,1.3c0.9,0.5,1.6,0.9,2.2,1.4c0.5,0.5,1.1,1.3,1.3,2s0.5,1.6,0.5,2.7
			c0,1.3-0.2,2.4-0.7,3.3c-0.5,0.9-1.3,1.6-2,2.4c-0.9,0.5-1.8,1.1-3.1,1.4c-1.3,0.4-2.4,0.4-3.6,0.4
			C716.7,548.1,714.5,547.5,712.7,546.5z"/>
		<path class="st2" d="M751.2,547.4h-3.8v-4h-0.2c-1.6,3.1-4.2,4.5-7.2,4.5c-2.4,0-4.2-0.7-5.6-2c-1.4-1.3-2-3.1-2-5.2
			c0-4.7,2.5-7.4,7.8-8.3l7.1-1.1c0-4.3-1.6-6.5-4.9-6.5c-2.9,0-5.4,1.1-7.8,3.1v-4.2c2.4-1.6,5.1-2.4,8.1-2.4
			c5.6,0,8.3,3.1,8.3,9.4v16.7H751.2z M747.4,534.7l-5.8,0.9c-1.8,0.2-3.1,0.7-4,1.4s-1.3,1.8-1.3,3.6c0,1.3,0.4,2.2,1.3,3.1
			c0.9,0.7,2,1.1,3.3,1.1c1.8,0,3.4-0.7,4.7-2.2s1.8-3.3,1.8-5.4V534.7L747.4,534.7z"/>
		<path class="st2" d="M792.1,547.4h-3.8v-14.5c0-2.7-0.4-4.9-1.3-6.2c-0.7-1.3-2.2-1.8-4.2-1.8c-1.6,0-3.1,0.7-4.2,2.4
			c-1.1,1.6-1.6,3.4-1.6,5.6v14.5h-3.8v-15c0-5.1-1.8-7.4-5.4-7.4c-1.6,0-3.1,0.7-4.2,2.2s-1.6,3.4-1.6,5.8v14.5h-3.8V522h3.8v4h0.2
			c1.6-3.1,4.2-4.5,7.4-4.5c1.6,0,3.1,0.5,4.2,1.4c1.3,0.9,2,2.2,2.5,3.8c1.8-3.4,4.3-5.2,8-5.2c5.2,0,7.8,3.4,7.8,10.3L792.1,547.4
			L792.1,547.4z"/>
		<path class="st2" d="M818.4,535.8h-16.8c0,2.9,0.7,5.1,2.2,6.5s3.3,2.4,5.6,2.4c2.7,0,5.1-0.9,7.4-2.9v3.8
			c-2.2,1.6-4.9,2.4-8.3,2.4s-6-1.1-8-3.4s-2.9-5.6-2.9-9.8c0-4,1.1-7.2,3.1-9.6c2.2-2.5,4.7-3.8,7.8-3.8s5.4,1.1,7.2,3.3
			c1.6,2.2,2.5,5.1,2.5,8.9v2.4h0.2V535.8z M814.4,532.3c0-2.4-0.5-4.2-1.6-5.4c-1.1-1.3-2.5-2-4.3-2s-3.3,0.7-4.5,2
			c-1.3,1.4-2,3.1-2.4,5.4H814.4z"/>
		<path class="st2" d="M825.4,547.9c-0.7,0-1.3-0.4-1.8-0.9s-0.7-1.3-0.7-2s0.2-1.4,0.7-2c0.5-0.5,1.1-0.9,1.8-0.9s1.3,0.4,1.8,0.9
			s0.7,1.3,0.7,2s-0.2,1.4-0.7,2C826.7,547.7,826.2,547.9,825.4,547.9z"/>
		<path class="st2" d="M835.8,547.9c-0.7,0-1.3-0.4-1.8-0.9s-0.7-1.3-0.7-2s0.2-1.4,0.7-2c0.5-0.5,1.1-0.9,1.8-0.9s1.3,0.4,1.8,0.9
			s0.7,1.3,0.7,2s-0.2,1.4-0.7,2C837,547.7,836.5,547.9,835.8,547.9z"/>
		<path class="st2" d="M846.1,547.9c-0.7,0-1.3-0.4-1.8-0.9s-0.7-1.3-0.7-2s0.2-1.4,0.7-2c0.5-0.5,1.1-0.9,1.8-0.9s1.3,0.4,1.8,0.9
			s0.7,1.3,0.7,2s-0.2,1.4-0.7,2C847.3,547.7,846.8,547.9,846.1,547.9z"/>
	</g>
</g>
<g>
	<path class="st3" d="M750.4,436.6"/>
	<path class="st4" d="M715.3,454.8c0,0,6.4-2.7,8.9-5.6c2.5-2.8,6.2-7,7.9-12.2c1.6-5.2,4.4-12.3,4.4-12.3s1.4-3,3.7-5.6
		c1.2-1.4,2.7-2.5,4.4-3.2c1.9-0.8,3-0.7,4.4-0.6c2,0.1,3.9,0.9,5.4,2.2c0.8,0.8,1.2,1.5,1.2,1.5s0.5,0.5,1.1,2.6
		c0.2,0.6,0.3,1.2,0.4,1.8c0.2,1.6,0.2,3,0.2,4c0,0.9,0,1.7-0.1,2.5c-0.1,1-0.3,2.4-0.5,3.6c-0.6,2.4-1.7,5.1-1.7,5.1
		s-1.9,5.6-8,14.6c-0.8,1.2-1.8,2.4-2.9,3.4c-9.2,8.5-21.8,10.9-26.4,10.7c0.6-1.1-0.1-6.3-0.4-7.1
		C716.9,459.4,715.3,454.8,715.3,454.8z"/>
	<path class="st5" d="M706,425.6c0,0,14.2,13.3,12.1,20c0,0-1.4,10.2-4.4,9c-2.9-1.2-8.4-29-8.4-29H706z"/>
	<path class="st5" d="M664.9,426c0,0-14.2,13.3-12.1,20c0,0,1.4,10.2,4.4,9c2.9-1.2,8.4-29,8.4-29L664.9,426L664.9,426z"/>
	<path class="st4" d="M667.1,421.2c0,0-11.4,32.2-12.5,37.5c-1.1,5.4-12.8,26.9,30.1,25.2c0,0,46.2-0.1,32.3-24.9l-12.8-37.8
		C704.2,421.2,689.1,427.2,667.1,421.2z"/>
	<path class="st1" d="M672.5,426.6c0,0-29.9,56,11.8,54c41.7-2,13.3-54,13.3-54S686.1,431.6,672.5,426.6z"/>
	<path class="st4" d="M650,376.6c0,0-8.2,8.3-0.8,22.8c0,0,6.5-13.7,22-14C671.1,385.3,654,375,650,376.6z"/>
	<path class="st4" d="M714.8,375c0,0,8.2,8.3,0.8,22.8c0,0-6.5-13.7-22-14C693.6,383.8,710.8,373.5,714.8,375z"/>
	<path class="st1" d="M649.9,378.4c0,0-6,7.9-0.7,20c0,0,2.2-5.9,9.4-9.2C658.6,389.2,656.8,383.3,649.9,378.4z"/>
	<path class="st1" d="M714.6,377.1c0,0,6.2,7.8,1.2,20c0,0-2.4-5.8-9.6-9C706.2,388.1,707.8,382.2,714.6,377.1z"/>
	<path class="st4" d="M641.8,407.1c0.2-2.3,9-12.2,12.5-15.3c3.5-3.1,7.5-7.7,21.9-11.4c0,0,9.4-3.5,22.4,2.6
		c0,0,22.1,7.9,26.9,25.9l-2-1l0.6,2.4l-1.4-0.4l0.4,1.7c0,0-8.4,12-23.4,15.9c0,0-15.3,4.2-30.9-0.4c-15.6-4.6-21.3-7.7-24.8-16.5
		l-1,1.1l-0.3-2l-0.7,0.8C642.1,410.6,641.6,409.4,641.8,407.1z"/>
	<path class="st5" d="M643.6,407.2c0,0,6.3-10.8,16.1-13.5c0,0,0.9-1.2-2.2-1.1c-3.1,0.2,7.6-4.4,10.5,0c0,0,1.1-2.4-1.9-2.6
		c-2.9-0.2,11.8-1.1,17.6,6.5l2.5,2l-1.4,9.8h-2.6c0,0-0.3,6.1-12.2,10.4c-11.9,4.3-22.3-2.6-22.3-2.6s-1.9-1.4-3.4-4.6
		C642.9,408.3,643.6,407.2,643.6,407.2z"/>
	<path class="st5" d="M722.1,409c0,0-5.1-11.4-14.4-15c0,0-0.8-1.3,2.2-0.9c3,0.4-7-5.1-10.2-1c0,0-0.8-2.5,2.1-2.5
		c2.9,0-11.4-2.2-17.8,5.1l-2.7,1.8l0.5,10.1l2.6,0.2c0,0-0.3,6.2,10.9,11.6c6.7,3.2,13.2,2.4,17.5,1.1c1-0.3,1.8-0.6,2.5-0.9
		c1.3-0.5,2-0.9,2-0.9s0.8-0.5,1.8-1.6c0.6-0.7,3.9-3.8,4-4.5C723.3,410.8,722.1,409,722.1,409z"/>
	<ellipse class="st1" cx="670.5" cy="403.7" rx="6" ry="7.6"/>
	<ellipse class="st1" cx="699.1" cy="404" rx="6" ry="7.6"/>
	<ellipse class="st6" cx="669.9" cy="403" rx="3.7" ry="4.6"/>
	<ellipse class="st6" cx="699.1" cy="403.5" rx="3.7" ry="4.6"/>
	<ellipse class="st1" cx="697.1" cy="400.3" rx="1.4" ry="2.2"/>
	<ellipse class="st1" cx="667.7" cy="400.3" rx="1.4" ry="2.2"/>
	<ellipse class="st7" cx="683.6" cy="410.3" rx="4.4" ry="2.7"/>
	<path class="st6" d="M700.4,394.1c0,0-1.5,0.6,0,1c0,0,1.5-1,3.1,1.8l0.6,0.6c0,0,1.4,1.6,0.5,0
		C704.5,397.4,703.2,393.7,700.4,394.1z"/>
	<path class="st6" d="M663.9,395.3c0,0,3.5-1,0.7,0.9c0,0-1.1,0.3-1.6,0.8c-0.5,0.6-0.7,1.4-0.7,1.4v1c0,0-0.3,2.8-1,0
		C661.3,399.4,661.2,396.2,663.9,395.3z"/>
	<path class="st6" d="M678.4,419c0,0,8.3,5,10.6-1.4c0,0,0.4-0.4,0.3,0.1s-2.9,6.4-10.9,1.5C678.2,419.2,677.8,418.7,678.4,419z"/>
	<path class="st5" d="M701.4,486.5c0,0,6.2,4.7,0.6,9.3c-5.6,4.6-11.2-2.2-11.2-2.2s-7.3-7,1.3-8.8
		C692.2,484.8,697.3,483.3,701.4,486.5z"/>
	<path class="st5" d="M674,488.1c0,0-6.2,4.7-0.6,9.3c5.6,4.6,11.2-2.2,11.2-2.2s7.3-7-1.3-8.8C683.2,486.4,678.2,484.9,674,488.1z"
		/>
	<ellipse class="st8" cx="684.5" cy="409.2" rx="2.2" ry="1.3"/>
	<path class="st3" d="M736,429.1c0,0-1.5,2.5-2.8,8.1c-0.1,0.2,0.1,0.4,0.2,0.4c10,3.5,10.5,7.5,11.7,8.2c0.2,0.1,0.4,0.1,0.5-0.1
		c0.7-1.2,2-4.6,3.6-9.9c0-0.1,0-0.2,0-0.3c-0.1-0.1-0.3-0.4-0.7-0.7c-0.5-0.5-1.5-1.3-3.1-2.5C741.7,429.5,736,429.1,736,429.1"/>
	<path class="st3" d="M723.2,453.2c-0.1,0.1-0.1,0.1-0.1,0.2c-0.2,0.7,1.6,1.2,3.4,3.7c1.7,2.6,2.3,3.6,2.7,4.7
		c0.1,0.4,0.5,0.6,0.8,0.5c2.4-0.4,7.7-5.5,7.7-5.9l0,0c-1.1-1.9-6.7-7.9-9.4-8.5c-0.3-0.1-0.6,0-0.8,0.2c-0.5,0.4-0.9,1.2-1.5,1.9
		C725.2,450.8,723.5,452.8,723.2,453.2z"/>
	<path class="st5" d="M736,428.3l-3.7,9.6c0,0,10.8,4,16.2,11.9c0,0,5.8-11.9,5.6-14.6C753.8,432.4,740.4,426,736,428.3z"/>
	<path class="st5" d="M728,445.5c0,0-5.5,6.7-6.1,6.9s6.3,4.7,7.2,12.3c0,0,10.5-4.5,12.2-7C743,455.2,732.3,446.2,728,445.5z"/>
</g>
</svg>
