<?xml version="1.0" encoding="utf-8"?>
<!-- Generator: Adobe Illustrator 22.0.0, SVG Export Plug-In . SVG Version: 6.00 Build 0)  -->
<svg version="1.1" id="katman_1" xmlns="http://www.w3.org/2000/svg" xmlns:xlink="http://www.w3.org/1999/xlink" x="0px" y="0px"
	 viewBox="0 0 850.4 850.4" style="enable-background:new 0 0 850.4 850.4;" xml:space="preserve">
<style type="text/css">
	.st0{fill:#5B5B5B;}
	.st1{font-family:'MaturaMTScriptCapitals';}
	.st2{font-size:114px;}
	.st3{font-size:131.0725px;}
	.st4{fill:#45BDFF;}
</style>
<text transform="matrix(0.6236 0 0 1 138.4116 388.7295)" class="st0 st1 st2">the website you are</text>
<text transform="matrix(0.6236 0 0 1 111.5967 546.0293)" class="st0 st1 st3">  </text>
<text transform="matrix(0.6236 0 0 1 177.1367 519.1606)" class="st0 st1 st2">currently visiting</text>
<path class="st4" d="M36,279.2c5.6,36.3,11.2,44.7,11.2,81.1c0,22.4-41.9,41.9-41.9,41.9v28c0,0,41.9,19.6,41.9,41.9
	c0,36.3-5.6,44.7-11.2,81.1c-8.4,58.7,22.4,86.7,50.3,86.7s58.7,0,58.7,0V584c0,0-50.3,5.6-50.3-28c0-25.2,5.6-25.2,11.2-81.1
	c2.8-25.2-14-44.7-30.8-58.7c16.8-14,33.5-30.8,30.8-55.9c-8.4-55.9-11.2-55.9-11.2-81.1c0-33.5,50.3-30.8,50.3-30.8v-55.9
	c0,0-28,0-58.7,0S27.6,220.5,36,279.2z"/>
<path class="st4" d="M814.5,279c-5.6,36.2-11.2,44.6-11.2,80.8c0,22.3,41.8,41.8,41.8,41.8v27.9c0,0-41.8,19.5-41.8,41.8
	c0,36.2,5.6,44.6,11.2,80.8c8.4,58.5-22.3,86.4-50.2,86.4s-58.5,0-58.5,0v-55.8c0,0,50.2,5.6,50.2-27.9c0-25.1-5.6-25.1-11.2-80.8
	c-2.8-25.1,13.9-44.6,30.7-58.5c-16.7-13.9-33.5-30.7-30.7-55.8c5.6-55.8,11.2-55.8,11.2-80.8c0-33.5-50.2-30.7-50.2-30.7v-55.8
	c0,0,27.9,0,58.5,0S822.9,220.4,814.5,279z"/>
</svg>
