<?xml version="1.0" encoding="utf-8"?>
<!-- Generator: Adobe Illustrator 22.0.0, SVG Export Plug-In . SVG Version: 6.00 Build 0)  -->
<svg version="1.1" id="Layer_1" xmlns="http://www.w3.org/2000/svg" xmlns:xlink="http://www.w3.org/1999/xlink" x="0px" y="0px"
	 viewBox="0 0 850.4 850.4" style="enable-background:new 0 0 850.4 850.4;" xml:space="preserve">
<style type="text/css">
	.st0{fill:#FFFFFF;stroke:#231F20;stroke-miterlimit:10;}
	.st1{stroke:#231F20;stroke-miterlimit:10;}
	.st2{fill:#FF0019;stroke:#231F20;stroke-width:3;stroke-miterlimit:10;}
	.st3{fill:#0086FF;stroke:#231F20;stroke-miterlimit:10;}
</style>
<g>
	<path class="st0" d="M645.3,487.3c-1.4,0.2-3.1,0.2-4.6,0.5c7.7,24.1-0.2,46.2-7,68.8c-4.8,16.1-5.8,33.7-11.3,49.6
		c-5.5,15.4-6.5,30.8-4.3,47.2c4.1-7.5,8.2-15.2,13.2-24.1c12.8,22.6-7.7,37.5-10.3,55.6c9.9,0.2,9.9,0.2,26-18.5
		c3.1,7.9,6.3,16.1,10.1,26.5c8.2-30.8,7.2-46.7-3.1-73.6c-1.2-3.1-1.9-6.5-2.2-9.9c-1-11.6-1.4-23.1-2.4-34.7
		c-1.2-13.5,1-25.5,9.4-36.6c22.9-29.6,29.1-63.1,21.7-99.4c-1.7-7.7-5.1-15.2-7.5-22.9c-1.2,0.2-2.6,0.5-3.9,0.7
		c3.1,36.6,2.4,72.2-17.8,103.5C649.4,509.7,647.2,498.3,645.3,487.3L645.3,487.3z M605.6,511.6c3.1-8.9,7-17.6,9.1-26.7
		c1.4-6.5,0.2-13.7,0.2-20.5c-6.5,0.2-13.2-0.7-19.3,0.7c-21.2,5.3-41.9,9.6-62.8-0.5c-1.7-1-7.2,1.7-7.9,3.9
		c-6,13.5,5.5,28.9,20,26c10.8-2.2,19.5,0.2,26.7,8.2c1.7,1.7,4.1,2.9,6,4.3c2.9-7.7-6-19.3,7.9-21.4
		C596.7,483.9,600.3,489.4,605.6,511.6L605.6,511.6z M413.6,567.9c-1.2,0.7-2.4,1.7-3.6,2.4c6,3.1,12,6,19.5,9.9
		c2.6-5.1,5.5-10.3,9.1-17.1c0.7-0.2,3.6-1,6.7-1.7c-13.5-2.4-16.1-13-19.5-23.1c-2.9-8.9-6.3-18-9.1-27l-3.6,1.4
		c2.2,5.3,4.6,10.6,7.2,17.1c-3.1-2.2-5.3-3.4-8.7-5.5c1.7,14.9,17.3,23.8,13.7,40.9c-3.9-7.2-6.7-13-10.1-19.3
		C414.5,553.9,414,560.9,413.6,567.9L413.6,567.9z M707.9,622.8c0.2,0.5,0.5,1,1,1.4c7-12.8,14.2-25.5,21.2-38.3
		c1,0.5,1.7,0.7,2.6,1.2L722.6,629c11.8-22.6,24.1-45.5,13-71.7c-1.2-0.2-2.2-0.7-3.4-1C724,578.5,715.8,600.6,707.9,622.8
		L707.9,622.8z M406.6,330.4l-2.9-1.4c-2.2,4.1-4.6,8.2-6.7,12c-6.3,10.6-12.8,11.6-20.7,2.2c-6.3-7.7-13.7-6.3-22.4-4.1
		c7.9,7.7,16.6,14.7,26,20.2c7.5,4.3,12.8,1,15.6-7.2c1.7-4.6,4.8-8.9,7-13.2C403.9,335.9,405.1,333.3,406.6,330.4L406.6,330.4z
		 M488.6,668.5c-1.2-0.7-2.4-1.2-3.6-1.9c-10.6,20.2-21.2,40.4-31.8,60.9c1.2,0.5,2.4,1.2,3.4,1.7
		C467.5,708.9,478.1,688.7,488.6,668.5z M346.4,379.2c0.2,1.4,0.2,2.9,0.5,4.3c2.6-0.5,5.1-0.7,7.7-1.2c4.6-0.7,9.6-3.4,13.7-1.9
		c13.7,4.3,25.5,1.9,36.1-5.5C385.4,376.3,365.9,377.8,346.4,379.2z M566.9,524.1c0,1.4-0.2,2.6-0.2,4.1h43.6
		c-1.7-1.9-3.4-6.3-5.3-6.3C592.1,522.2,579.6,523.4,566.9,524.1L566.9,524.1z M472.3,734.2c1,0.5,2.2,0.7,3.1,1.2
		c4.8-17.6,9.6-34.9,14.4-52.5c-1-0.2-1.7-0.5-2.6-0.7C482.4,699.5,477.3,716.9,472.3,734.2L472.3,734.2z"/>
	<path class="st1" d="M393.6,650.7c3.1,12,7,24.1,9.1,36.3c2.4,12.8,4.6,25.5,5.1,38.3c0.2,7.5,2.6,12.3,8.2,16.4
		c14.7,11.6,31.5,14,49.3,10.6c2.9-0.5,5.5-1,10.8-1.9c-18.3,18.3-38,16.1-58.5,12.3c5.5,9.4,8.7,10.8,26.5,11.8
		c0,1,0.2,1.9,0.2,2.9c-8.9,0.7-17.8,1.4-26,1.9c4.6,6.7,4.6,6.7,39.2,7.2c-17.1,10.8-33.5,7.9-50.1,0.2c-1.4,4.8-2.6,8.9-4.3,14.4
		c-5.1-2.6-9.1-5.1-14.7-7.9c-20.7,28.2-46.4,32.5-76.8,13c-5.5,7.2-10.6,14-16.4,21.7c-1-6.3-1.9-11.8-2.9-17.6
		C286,816,279.8,822,273,827.6c-2.2,1.9-5.3,3.4-8.2,3.6c-4.1,0.5-8.4-0.2-12.5-0.2c0.5-3.9,1-7.7,1.7-11.3c0.5-2.2,1.4-4.3,2.4-7
		c-4.6-0.5-8.4-1-15.9-1.7c5.5-9.1,9.9-16.4,13.2-22.1c-5.5,0.5-14.2,1-22.9,1.7c0-0.5-0.2-1-0.2-1.4c7.7-2.9,15.4-5.8,23.3-8.7
		c0-0.7-0.2-1.4-0.2-2.2c-4.3,0-9.1-0.7-13.2,0.2c-21.2,4.6-39.7-1.4-57.3-12.8c-2.4-1.7-7-2.2-9.6-1.2c-21.4,8.2-39-1.2-42.1-23.8
		c-2.9-15.9-4.8-30.8-12.3-45.2c-3.1-6-2.9-15.9-0.5-22.6c6.5-18,4.3-34.7-4.6-50.8v-10.3c2.6-5.5,5.5-11.1,8.2-16.6
		c-3.6,8.7-6,17.3-1.9,26.5c5.8,13,7.5,26.7,6.3,40.9c-0.5,4.3,1.2,9.1,2.4,15.6c2.6-3.4,3.6-4.8,5.1-6.7c1.4,2.4,2.6,4.3,3.9,6.3
		c1.7-3.9,3.1-7.2,4.6-11.1c2.2,1.4,3.6,2.6,5.1,3.6c1.4-2.6,2.6-5.3,4.3-8.7c1.7,1.9,3.1,3.4,4.3,4.6c1.4-3.4,2.9-7,4.6-11.3
		l8.7,17.3c1-0.2,1.9-0.7,2.9-1v-18.8c6-2.4,10.3-2.9,13.5-5.3c19.7-15.2,16.6-37.3,18.8-60.9c-13,21.2-24.3,39.5-35.6,58
		c-0.5-0.2-1-0.5-1.7-0.7c0.5-4.3,0.7-8.7,1.2-13l-1.9-1.9c-9.6,9.6-19.3,19.5-29.4,29.6c-5.8-24.8-20-50.1-1.9-77
		c-3.1,2.6-6.3,5.3-9.1,7.7c8.7-12,12.3-23.3,1.7-37.1c-5.1-6.5-1-14.2,6.3-19c16.1-10.8,16.1-10.8,6.7-28.2
		c-1.2-2.4-2.9-5.1-3.1-7.5c-0.5-8.9-3.9-20.5,0.5-26c6.3-8.2,6.5-15.6,6.7-24.3c0.2-8.9-1.2-18,0.5-26.5
		c1.9-10.1,4.8-20.7,10.3-28.9c6.3-9.4,14.2-7.9,21.2,1.2c0.7,2.4,1.7,4.6,2.4,7c-2.4,0.5-5.1,1.9-7.5,1.4
		c-4.8-0.7-9.6-2.4-14.9-3.9c-4.6,14.9-2.9,28.6,7.5,38.7c16.8,16.6,35.1,31.3,54.4,48.4c-1-17.1-6-28.9-19.3-35.6
		c-12.5-6.3-14.7-17.3-14.2-29.4c0.2-3.9,2.4-10.3,5.1-11.1c3.6-1,8.9,1.7,12.3,4.1c4.3,3.4,7.5,8.4,11.1,12.8
		c-2.4-11.6-0.2-25.3-16.4-29.1c10.8-6.5,21.2-12.8,31.5-18.8l-0.7-4.3c-4.3-0.5-9.6-2.6-13.2-1c-13,6.3-25.5,13.7-38,20.7
		c4.6-14.7,17.8-17.8,29.8-21.7c9.1-2.9,19-3.9,28.6-5.8c-3.6-10.6-8.7-20-9.9-30.1s1.2-20.7,1.9-30.8c-14-2.6-14.2-3.4-10.1-14.7
		c0.5-1.2,1.2-2.6,0.7-3.6c-5.8-10.6,1.4-17.3,5.5-22.6c-7-9.6-14.9-17.6-19.7-27.2c-5.5-10.6-0.7-18.3,11.1-21.2
		c4.6-1.2,9.4-1.9,14.2-2.9c-0.2-1.2-0.7-2.2-1-3.4c-8.9,2.6-18.8,3.9-26.2,8.7c-9.6,6.3-4.6,16.6-1.9,25.5
		c-6.7-9.6-10.3-19.7-3.9-30.6c5.8-9.6,15.4-12,25.7-11.6c11.1,0.5,22.1,1.9,33,2.9c0-23.1,1.2-46.7-0.2-70
		c-1.4-23.6-8.7-46-27-63.1c17.6-23.8,40.9-40.2,69.5-49.1c11.8-3.6,24.3-5.8,36.6-8.4h32.7c13.7,2.6,27.4,4.8,40.7,8.2
		c18.3,4.6,34.9,13.2,49.3,25.5c4.6,3.9,5.3,7.2,3.1,13c-12,32.2-18.3,65.5-11.1,99.9c1.9,8.7,5.5,17.1,8.2,24.8
		c12.3-2.9,22.6-5.3,33.2-7.7c-16.6,7.7-32.7,15.9-49.6,23.1c-46.2,19.7-94.1,27.4-143.9,20c-18-2.6-35.6-8.7-53.4-13
		c-11.8-2.9-24.1-5.3-34.4,0.5c9.9,1.2,21.2,1.2,31.8,3.9c44,10.6,87.8,20,133.3,10.8c42.4-8.4,85.2-16.1,120.3-44.3
		c4.8,0.7,12,0,13.5,2.6c1.9,3.1,0,9.6-1.7,14c-1.9,4.8-5.5,9.1-9.6,15.9c4.3-3.1,6.5-4.6,8.9-6.3c4.1,9.1,11.1,11.6,17.8,6.3
		c14.2,11.6,17.6,25.5-3.9,46.7c8.9,12,7.7,24.8-4.1,37.3c-4.1,4.3-7.9,11.8-16.8,5.5c4.6-3.9,9.1-7,12.8-10.6
		c6-6,10.6-14.2,6.7-22.1c-4.6-9.1-1.7-14.4,5.1-19.7c1.2-1,2.2-2.6,3.1-4.6c-15.9,10.6-27.2,1.2-39.9-7.2c1.4,2.9,2.9,5.5,5.5,10.1
		c-5.3-3.9-8.9-6.5-12.8-9.1c-0.7,0.7-1.2,1.4-1.9,2.2c7,5.3,14,10.3,21.9,16.4c-5.1-0.7-9.1-1.4-14.4-2.2c1.4,2.2,2.6,3.9,4.8,6.7
		c-4.3-1-7.7-1.4-9.6-1.9c0,5.3-0.7,10.6,0.2,15.6c0.5,2.4,6.5,6.3,7.2,5.5c5.5-3.9,10.3-8.7,15.4-13.2c0.2,1.7,0.5,5.3,1.2,11.3
		c2.4-6.3,4.1-10.6,6-15.6c4.6,7,3.4,13.5-1.2,19.3c-7,8.9-15.6,4.8-26.2,0.5c2.2,5.1,2.6,9.4,5.1,11.3c24.5,19.3,38,45.7,50.3,73.4
		c0.7,1.7,2.2,3.4,4.6,4.6c-1-4.1-1.9-8.2-2.4-10.3c7.9,1,16.4,1.2,24.1,3.4c23.3,6.3,48.6,5.5,70.5,18.8c5.8,3.6,13.5,5.5,20.2,5.5
		c16.4,0,26.7,7.7,34.9,20.9c7.5,12,15.4,23.8,24.1,35.1c13.7,17.6,14.7,36.8,10.1,57c13,7.9,16.6,14.9,12,29.6
		c-8.4,27.4-22.6,51.7-47.2,69.1c1.7-2.9,3.4-5.5,5.1-8.4c1.9-3.1,3.9-6,4.8-9.9l-21.7,18.8c-0.5-0.5-1.2-1-1.7-1.4
		c6.3-7.2,12.3-14.7,18.5-21.9c-0.5-0.5-1-1-1.4-1.2c-6.7,4.8-13.2,9.6-20,14.4c18.8-25.3,48.1-43.3,49.8-78.7
		c-13.5,28.4-32,52.5-56.6,71.7c-1.2-0.2-2.2-0.5-3.4-0.7c0.5-8.4-1-17.8,1.9-25.3c5.8-15.4,13.2-30.6,21.2-45
		c14.9-27.4,15.6-55.3,3.9-83.5c-2.9-7-8.2-13.2-13.2-19c-2.4-2.9-7.5-6.5-10.3-5.8c-12,3.4-17.8-7-26.5-10.3
		c-10.3-3.9-21.2-7.2-32.2-7.9c-9.9-0.5-18.8-1.2-27.2-6.5c-4.1-2.6-9.1-3.4-15.6-5.5c3.4,14.2-5.5,17.6-16.6,20.9
		c5.3,4.8,8.9,8.7,13.2,11.8c15.4,10.8,17.3,17.1,9.9,34.4c-1.4,3.1-2.4,6.3-3.9,9.1c9.9,4.3,22.6,2.9,28.9-3.9
		c6.7-7.2,4.1-15.2,1.2-22.9c-1.7-4.1-2.6-8.2-1.9-13.2c5.8,11.8,11.6,23.6,17.3,35.9c12-1.7,25.5,13,22.9,31
		c-5.8,38.3-11.3,76.8-29.4,111.9l0.2,0.2c0-3.1-0.7-6-0.2-9.1c1.9-14.2,3.6-28.4,6.7-42.4c2.9-13.2,6.7-26.2,11.6-38.7
		c5.5-13.7,6.3-27.2,1.7-40.9c-1.2-3.6-3.6-7-4.3-8.7c-13.7,5.1-25.7,10.1-38.3,13.7c-16.6,5.1-32.7,1.4-46.9-7.9
		c-7.5-5.1-11.3-2.2-14.2,4.6c-4.3,10.6-4.6,21.7,1.4,31.5c11.1,18.3,13.5,37.5,8.9,60.6c-4.6-9.1-8.4-16.4-12.3-23.8
		c-0.7,0-1.4,0.2-2.2,0.2c2.6,53.9,4.6,107.8,8.7,161.5c2.2,30.1,9.4,39.5,33.9,57.3c-4.6,1.4-8.7,2.6-11.8,3.6
		c3.1,9.6,6.5,19.3,9.6,28.9l-2.9,1.4c-3.4-1.9-7-3.9-10.3-5.5l-10.8,14.4c-1.2-0.2-2.2-0.7-3.4-1c7.7-19.3-1.4-35.1-8.4-51.7
		c-9.9-22.9-16.6-46.7-16.1-72.2c1.2-59.7,1.4-119.4,2.2-179v-16.8c-25.7,14-48.9,8.9-72.7-3.6c4.1,5.1,7.9,10.1,12.3,15.4
		c-2.2,0.5-4.6,0.7-7.7,1.2c0.7,2.2,1.2,4.3,2.2,7.9c-2.9-2.6-4.6-4.3-6.5-6l-2.9,0.7c1.2,9.6,2.6,19,3.9,28.6
		c-0.7,0.2-1.2,0.2-1.9,0.5c-1.4-7.9-3.9-15.6-4.3-23.6c-0.5-7.5,1.7-14.9,1.2-22.4c-0.7-8.9-3.1-17.6-4.8-27.2c0,0,1.9-0.5,5.8-1.2
		c-4.1-5.8-7.7-10.8-11.6-16.4h5.8c-4.6-6.5-8.9-12.3-13.2-18.3c0.7-0.7,1.4-1.4,2.2-2.4c6.7,5.5,13.7,10.8,20,16.1
		c27-14.2,40.2-42.6,58.2-68.1c-4.1-2.6-10.1-7.5-16.8-10.8c-1.9-1-7.9,1.4-8.9,3.9c-4.6,10.8-7.9,22.4-9.9,34.9
		c2.9-2.6,6-5.5,8.9-8.2c-6.3,12.3-9.6,27-24.8,31.8c7.2-20,14.9-39.5,21.2-59.4c1.9-6.3-0.5-13.7-1-20.7c-1.7-0.2-3.6-0.5-5.3-0.7
		c-5.8,15.2-11.3,30.3-17.1,45.7c-4.1-5.8-7.9-11.6-12-17.6c0.5-0.7,0.7-1.2,1.2-1.9c3.9,1.9,7.7,3.9,11.8,6
		c1.4-5.3,3.4-11.6,5.3-18.5l-10.8-1.4c-0.2-1-0.5-1.7-0.7-2.6c4.3-2.4,9.1-4.3,13-7.5c3.1-2.4,5.8-6.3,7-9.9
		c3.4-8.9,6.7-17.8,8.2-27c1.7-12,1.4-24.1,1.7-36.3c0-1-2.2-2.2-3.6-2.9c-6-3.9-14.2-5.8-13.2-15.4c1.7-0.2,4.1-0.5,6.7-0.7
		c-9.1-7.5-17.1-7.7-35.4-1.4c1.4,1.4,2.6,2.9,1.9,2.2c-14.4,5.8-29.6,12-44.5,18l0.2-0.2c-13.2-1-26.5-2.4-39.7-2.4
		c-9.6,0.2-19.5,2.6-29.1,4.1c0,1.2,0.2,2.6,0.2,3.9c2.4,0.2,5.1,0.5,6,0.7c-5.1,5.5-10.6,11.6-16.4,17.6c0.7,1,1.4,1.9,2.2,3.1
		c6-15.4,20-9.9,30.1-11.3c10.3-1.4,21.9,4.6,34.4,7.7c1-1.4,3.4-4.1,4.3-5.5c1,19,1.9,39.2,2.9,62.6c-5.1-10.8-8.9-19.3-13-27.7
		c-1.7-3.4-4.3-6.3-5.8-9.6c-0.7-1.7,0-3.9,0.2-5.8c-4.8-2.6-9.9-5.3-15.2-7.9c-8.7,10.3-12.3,10.8-20.7,1.4c-2.9,2.2-5.8,4.3-9.4,7
		c10.1,10.1,20,2.2,29.4,1.7c0.2,1,0.5,1.9,0.7,3.1c-7.9,1.7-15.9,3.4-23.3,5.3c2.6,7,2.9,7,17.3,7.9c-13.7,7.2-23.3,1.9-27-15.9
		c-1.9,3.6-3.4,6.3-4.8,8.9c-2.2-1.7-4.3-3.1-6.3-4.8c1.2-1,2.6-1.9,4.6-3.4c-13-6-6.7-13.2-1.7-20.5c-2.6-4.8-5.3-9.1-8.7-15.4
		c-1.4,7.9-2.6,14-3.6,19.5c1.4-0.7,3.1-1.4,4.8-2.2c0.5,0.5,0.7,1,1.2,1.2c-4.1,5.3-7.9,10.6-11.8,15.9c7.2,0.2,8.9,5.1,6.3,17.8
		c1.9,0.5,3.9,0.7,5.8,1.2c-0.7,3.4-1.4,6.7-2.2,10.3l1.4,0.7c2.6-2.9,5.3-6,7.7-8.9c0.2,0.2,0.7,0.2,1,0.5
		c-1.7,3.6-3.9,7.2-4.8,11.1c-1,3.1-1.4,6.7-0.7,9.9c1.7,7.2,6,10.6,14,8.2c3.9-1.2,7.9-1.4,12.3-1c-2.6,10.3-11.1,10.3-17.1,11.8
		c-6.5,19.3,6.7,28.4,20.5,40.4c-3.9-16.4-8.7-31,4.8-43.8c-0.7,5.8-1.4,10.6-2.4,17.3c2.4-2.6,3.9-4.1,6-6.5v13.2
		c2.6-2.9,4.1-4.6,5.5-6.3c4.6,17.8-7.5,39.7,16.6,51.5c1.2-3.9,2.2-7.2,3.9-12c2.2,5.8,3.9,9.6,5.3,13.7c4.1-7,7.9-13.2,11.8-19.7
		c-3.4-2.2-6.5-4.1-7.9-4.8c13.2-1.7,27.7-3.4,41.9-5.3c-0.7,1-1.7,2.9-3.1,5.1c2.2,1,4.3,1.9,6,2.9c-0.2,3.9-7.9,8.7-11.8,7.7
		c-0.7-0.2-1.2-0.5-1.9-0.2c-11.8,2.4-20.2,19.7-15.4,33.2c15.4-7,29.6-2.4,40.9,8.7c3.9,3.9,3.4,12,4.8,18.3
		c-1,0.2-1.9,0.5-2.9,0.5c-0.5-2.6-1-5.5-1.4-8.4c-2.4,6.5-4.6,12.5-6.5,17.6c1.7,4.1,4.1,8.2,4.8,12.5c0.7,5.1-0.2,10.1,0,15.4
		c0.2,15.6,7.5,22.1,22.6,22.6c-4.6,0-9.6,1.4-13.7-0.2c-8.4-3.4-12.3-14.4-13.2-35.4c-11.1,10.6-16.6,21.7-18.5,36.1
		c-1,6.7-8.2,12.8-12.8,19.5c10.6,7.5,6.7,19.7,3.9,30.8c-6.3,24.5-5.1,48.6,1.9,72.7c0.5,1.7,1.4,2.9,2.2,4.3L393.6,650.7
		L393.6,650.7z M508.9,217.7c-11.3-10.6-16.4,3.1-25.5,5.3c7,7.9,12.8,7.2,19,1.2c2.2-2.2,4.6-4.3,7-6.5c0.5,4.3,0.7,8.4,1.4,14.7
		c2.4-4.6,4.1-7.7,6-11.3c7.5,10.8,0.2,15.9-7.5,21.4c12-1.9,18.3-9.1,16.6-18.8C523.5,212.5,514.9,218,508.9,217.7L508.9,217.7z
		 M278.8,58.2c0.5,0.2,0.7,0.7,1.2,1c-2.4,4.3-4.8,8.7-7.9,14.2c4.1-1.7,6.7-2.9,9.4-4.1c0.2,0.5,0.7,1,1,1.4
		c-3.4,4.3-7,8.4-11.8,14.4c5.5-2.6,9.1-4.3,14.9-7c-3.9,5.5-6.3,8.9-9.1,13c4.3-0.7,7.9-1.2,13.5-1.9c-5.3,4.6-9.1,7.9-12.8,11.3
		c0.2,0.2,0.5,0.7,1,1c3.9-1.2,7.5-2.6,11.3-3.9c0.2,0.5,0.5,1,0.5,1.4c-4.3,3.6-8.9,7.2-15.2,12.3c8.2-1.4,13.7-2.6,19.3-3.6
		c0.2,0.7,0.2,1.7,0.5,2.4c-5.1,2.6-10.1,5.3-17.1,8.9c8.7-1.7,15.2-2.6,21.4-3.9c0.2,1,0.5,1.9,1,2.6c-1.7,1-3.4,1.9-6.3,3.4
		c5.3,0.5,8.4,1,12,1.2c-1.7,2.2-2.4,3.1-3.1,4.3c0.2,0.2,0.5,0.2,0.2,0c45.2-7.5,90-19.5,134.3-5.3c6-22.6,12-45.2,18.3-68.8
		c0.7,0.7,0.2,0-0.7-0.7C403.5,17,349.6,9.1,291.6,30.3c-12.5,4.6-21.9,10.8-24.3,24.5c3.1-1.9,6.3-4.1,9.1-6.3
		c0.5,0.5,1,1.2,1.4,1.7c-2.9,4.3-5.5,8.7-8.9,14.2C273,62,275.9,60.1,278.8,58.2z M347.6,611.7c-1.9,0.5-3.6,1-5.5,1.4
		c-2.6-8.7-5.5-17.3-8.4-26.7c-4.3,9.6-8.2,18.3-12.3,26.7c-0.2-11.6,9.1-21.2,4.1-33c-7.7,19.5-15.4,39-22.6,57
		c-0.5,0,1.4-0.5,3.6-1c0.2,0.7,0.7,1.2,1,1.9c-9.1,6.7-18,13.7-27.2,20.5c13.5-21.7,11.6-41.2-2.2-61.8
		c-7.7-11.6-12.3-25.7-15.9-39.2c-2.9-10.8-2.6-22.6-3.6-33.5c-20,18.5-30.8,42.1-35.9,69.1c-3.9,21.2-2.6,41.6,8.4,60.4
		c4.3,7.2,10.6,14.7,17.8,18.8c5.3,2.9,13.7,0.5,21.7,0.5c-1.9,4.3-4.1,9.6-6.5,15.2c6.5,2.6,13.5,4.6,19.7,7.7
		c12.3,6,27.7-0.5,32.2-13.5c-7,3.1-14.7,6.5-22.1,9.9c-0.5-0.7-0.7-1.4-1.2-2.4c9.6-6.3,21.2-10.3,22.9-23.8
		c-3.1-1.4-5.5-2.6-9.4-4.3c3.6-5.3,6.5-9.9,10.3-15.9c-5.3,3.1-8.9,5.3-14.9,8.7c13.2-21.4,32.7-27.2,52.5-32.2
		c1-21.4-8.2-44.3-18.3-48.9C339.4,585.9,343.5,598.9,347.6,611.7L347.6,611.7z M326.7,463.7c10.6,1.9,19.7,0.5,20.5-8.7
		c0.7-10.8-1.7-22.1-13-29.4c5.3,1.2,11.6,2.4,13.5,6c6.3,12.3,8.2,25.3-3.4,38c19.3,3.9,36.6,7.2,55.1,11.1c0,0,0.7,2.2,1.9,5.3
		c2.4-3.1,3.9-5.3,5.8-7.7c2.2,3.1,4.1,5.8,6,8.7c1-0.5,1.9-1,2.9-1.2c-1.7-3.6-2.2-8.7-4.8-10.3c-8.4-5.5-17.6-9.9-26.2-14.9
		c-2.6-1.4-6-3.4-7-6c-7-18-21.2-28.6-37.8-35.9c-4.8-2.2-13.5-1.4-17.8,1.7c-11.8,8.2-17.8,21.2-21.9,34.7
		c-2.4,7.7,1.9,15.9,7.7,17.3c4.1,1,8.2,2.6,12,4.1c-2.9,2.6-5.8,3.6-8.7,4.1c-3.1,0.5-6.5,0.7-9.9,1c-0.2,3.4-0.5,5.3-0.5,7.2
		c0.5,13,2.6,13.7,15.2,12.5c10.6-1,21.4,0,32,1c13.5,1.2,26.7,3.9,40.2,4.6c7.9,0.5,13-4.6,14.4-12.8c-20.5-6-40.2-11.6-61.6-9.4
		c-12.8,1.4-13,0-14.2-14.7c3.1,1.7,6.3,3.6,9.1,5.3c0.5-0.7,1-1.2,1.4-1.9C335.1,470.9,332,468.3,326.7,463.7L326.7,463.7z
		 M287.9,496.7c-1-0.2-1.9-0.7-3.1-1c-6,14.9-15.6,29.6-17.1,45c-1.7,22.4,5.5,44.3,19.7,63.1c5.5,7.5,9.6,15.9,15.2,25.5
		c4.6-10.6,9.4-21.7,14-32.7c-0.7-0.2-1.7-0.7-2.4-1c-2.2,1.2-4.6,2.4-8.7,4.6c3.9-7.9,6.3-13.7,9.4-19.5c1.9-3.4,3.9-7.2,6.7-9.6
		c11.1-8.9,22.9-17.3,35.4-26.5c-6.5-2.2-11.6-3.9-17.8-5.8c2.2,2.9,3.6,4.6,6.5,8.4c-11.1-3.6-19.7-6.5-29.4-9.4
		c5.1,5.8,9.4,10.8,13.7,15.6C304.8,546.2,286.5,527.2,287.9,496.7z M151,485.4c-1.2,1.2-2.4,2.2-3.4,3.4
		c10.1,11.1,20.2,21.9,30.1,32.5c0.5,0-1.2,0-2.2,0.7c-4.8,3.4-12.8,6.7-13,10.6c-0.5,5.1,4.1,11.8,8.4,15.6
		c6.7,6.3,14.9,10.6,23.1,16.1c5.3-13-2.9-21.4-9.4-29.8c9.4,0,18.3-1.2,27,0.2c14.7,2.4,17.8,13.2,8.7,24.3
		c-6-5.3-11.8-10.8-17.8-16.4c0.2,11.8,4.3,22.4-6.3,30.8c-5.3-1.9-10.3-3.9-16.1-5.8c1.9,15.2-6.3,27.7-21.7,34.9
		c0.5-3.6,1-7.2,1.2-10.8c-0.7-0.5-1.7-1-2.4-1.2c-2.4,2.9-4.8,5.8-7,8.7c-4.8,6.7-6.3,14-0.7,20.7c5.8,7,13.2,5.1,19.5,1.2
		c5.5-3.4,11.1-7.2,14.9-12.3c6.5-9.1,10.8-20.2,17.8-28.6c7.2-8.9,17.6-14.9,25.3-23.6c8.7-9.9,6.3-20.5-5.1-27.7
		c-4.6-2.9-10.1-4.3-14.4-7.5c-10.8-7.9-21.7-16.1-32-24.5c-3.1-2.6-5.5-6.3-8.2-9.6c-0.5,0.2-0.7,0.5-1.2,0.7
		c1.2,2.6,2.6,5.5,4.8,10.1C162.8,493.1,156.8,489.2,151,485.4L151,485.4z M411.9,148.9c7-1.7,12.5-3.4,18.3-4.1
		c9.6-1,10.6-7.5,7.7-13.5c-1.4-3.6-7.5-6.5-11.8-7c-14.2-1.7-28.6-2.6-42.8-2.9c-7.5-0.2-15.2,1.2-23.6,1.7
		c11.8,19,13,20,31.5,21.9c5.3,0.5,10.3,1.2,16.6,2.2c-2.6,3.6-4.8,6.3-6.7,8.9c-15.6,19.5-15.9,19.7-2.4,41.4
		c1.9,3.4,7,8.2,8.7,7.5c7.7-2.6,18.3,0,21.9-11.1C436.7,169.9,434.7,164.3,411.9,148.9z M305.8,163.1c8.4,5.1,14.7,9.9,21.7,13
		c6.5,3.1,7.9,7,6.5,13.7c-1.4,6.3-1.7,12.8-2.9,22.1c8.7-7.2,15.4-12,21.2-17.6c4.3-4.1,8.2-4.3,13.5-1.9
		c10.3,4.8,20.9,8.7,33.7,14c-5.5-9.1-9.1-16.1-13.7-22.4c-5.3-6.7-4.1-11.8,1.2-17.6c4.6-5.1,8.4-11.1,13-17.3
		c-10.6-1-21.2,1-28.9-3.1c-7.9-4.1-13.2-13.5-19.7-20.7c-1.2,0-2.4,0.2-3.6,0.2C348.3,154.2,328.1,158.8,305.8,163.1L305.8,163.1z
		 M325.5,213.9c1-6.3,1.2-12.3,3.1-17.6c2.9-8.9,0-13.7-7.9-17.8c-7.7-4.1-14.4-9.4-22.1-14.4c16.1-11.3,42.6-9.4,42.4-38.7
		c-19.5,5.5-38.5,11.1-57.5,16.6c1,0.7,1.9,1.4,2.9,2.4c-1,4.3-2.2,8.9-3.1,13.2c3.6,1.4,6.7,3.1,10.3,4.6
		c-2.6,10.3-4.1,19.7,9.1,25c-2.6,1.9-4.1,2.9-5.5,3.9c-4.3,3.4-12,4.8-8.7,12.5c3.1,7.2,8.4,12,17.6,11.1
		C311.8,213.4,317.8,213.9,325.5,213.9z M460.5,456.7c10.6,5.1,20.2,9.9,30.3,13.7c1.9,0.7,5.8-0.7,7.7-2.4c1.4-1.4,1.4-4.8,1.4-7.2
		c-0.2-4.1-3.4-10.1-1.7-12.3c7.7-8.7,7.2-18.3,6.3-28.6c-0.5-3.6,1.9-7.7,3.1-11.6c1-3.4,2.2-6.7,4.6-13.7
		c-15.9,6-27.4-7.9-44.3-2.6c9.6,3.9,16.4,6.5,24.8,9.9c-12.5,6.7-23.6-8.9-35.6,4.3c8.9,2.2,15.6,3.4,22.1,5.8
		c3.4,1.2,7.9,5.8,7.5,7.9c-0.5,3.4-4.6,8.4-7.7,8.9c-5.3,1-11.3-0.5-16.6-1.9s-10.6-3.9-15.6-6c2.2,7,6,12,9.4,17.3
		C458.6,443.7,468.7,446.1,460.5,456.7L460.5,456.7z M242.5,310.2c-0.7-1-1.4-1.7-2.4-2.6c9.6-9.4,19-18.8,28.6-28.2
		c-0.7-0.7-1.4-1.4-2.4-2.2c-2.6,2.2-5.1,4.3-7.7,6.5c0.7-4.1,2.2-7.5,4.3-10.3c2.2-3.1,4.6-6,7-8.9c-0.7-0.7-1.2-1.4-1.9-2.2
		c-4.1,2.9-8.7,5.3-12.5,8.4c-4.6,3.9-7.7,9.1-12.8,12.3c-10.6,6.3-14.2,22.6-8.4,29.8c-2.4,9.4-6.5,17.3-5.5,24.5
		c1.2,8.7,6.3,17.1,11.3,24.5c3.6,5.5,9.6,4.1,14-0.7c4.1-4.6,7.7-9.1,12-14.4c-10.6-17.6-13.5-2.2-17.6,4.8
		c-1.4-1.9-2.4-3.1-4.3-5.8c-0.7,5.3-1.2,8.9-1.9,14.9c-5.8-12.5-3.1-21.9,1.9-31.3c4.6-8.7,8.2-17.6,13-28.9
		C251.4,304.6,246.8,307.3,242.5,310.2z M368.6,539c6.7-2.6,13.7-4.8,20-8.4c1.9-1.2,2.6-5.8,2.4-8.9c0-1-4.1-2.2-6.5-2.9
		c-12.5-3.1-24.8-6.5-37.5-8.9c-9.4-1.7-19.3-2.6-28.9-2.6c-2.4,0-6.3,3.6-6.7,6.3c-0.5,2.4,2.2,6.7,4.6,7.7
		C332.5,528.9,348.3,538.8,368.6,539z M409.7,471.9c10.6-16.8,9.1-26.5-2.6-33.5c-9.1-5.5-19.7-2.4-24.5,5.8
		c1.9,3.9,2.9,6.3,4.1,8.7c1.9-1.7,3.9-3.1,4.3-3.6C397.2,457,403,463.9,409.7,471.9z M279.8,211.7c-11.1-14-10.8-16.8,1-30.1
		c3.1-3.4,5.3-7.5,7.5-10.8c-8.9-1.9-16.4-3.6-23.8-5.3c-0.7,8.7-1.4,18.3-2.2,27.7C261.5,202.8,268,210.3,279.8,211.7z
		 M279.8,337.6c5.3-10.1,3.4-23.3-5.3-31.5c-2.6-2.4-8.9-5.3-9.6-4.8c-3.1,3.6-6,8.2-6.7,12.8c-0.2,3.4,2.6,7.7,5.3,10.3
		C268.5,328.9,274,332.8,279.8,337.6z M223.7,284.6c3.6-1.7,6.7-3.9,9.9-4.6c9.6-2.2,15.9-7,19.3-17.1c1.9-5.5,8.4-9.6,14.4-16.1
		c-0.2,5.5-0.5,7.7-0.5,9.9c0.7,0.2,1.2,0.5,1.9,1c3.6-4.3,7.2-8.7,12.3-14.7c-25.7,0.2-32.2,23.3-48.4,33.5
		c-5.3-11.3,5.3-14.7,8.9-22.1C225.6,264,220.3,272.9,223.7,284.6z M438.6,145.6c-5.3,1.2-11.1,2.6-17.6,4.1
		c15.2,12.3,21.4,26.5,16.4,45.7c5.1-2.4,9.1-4.3,13-6C446.5,174.4,442.9,160.7,438.6,145.6z M389.3,209.1
		c-29.8-14.9-36.8-14.2-51.5,4.3C355.3,212,372.2,210.5,389.3,209.1z M291.8,395.3c11.3,4.8,21.7,8.9,34.4,14.2
		c-11.3-11.6-20.9-21.4-31.8-32.5C293.2,385,292.5,391.3,291.8,395.3z M300,441.8c5.5-9.4,10.6-18,15.6-26.7c-0.5-1-1.2-1.7-1.7-2.6
		c-4.6,3.1-10.1,5.3-13.2,9.1C295.9,427.4,294.7,434.3,300,441.8L300,441.8z M388.1,404c-0.7-0.5-1.4-1.2-2.2-1.7
		c-4.6,2.2-11.3,3.4-13.5,7c-3.4,5.3-4.8,12.8-5.3,19.3c-0.2,2.4,4.8,5.3,7.5,7.9c1.2-0.5,2.4-0.7,3.4-1.2
		C370.7,421.3,373.1,410.7,388.1,404z M471.6,279.1c0.5,7,1.9,14.2,1.4,21.2c-0.5,6.7-2.6,13.5-4.1,20.2
		C476.6,307,478.8,293.1,471.6,279.1L471.6,279.1z M474.2,385.2c7.5,1.9,13,3.1,19.5,4.8c-3.9-5.3-6.7-9.1-10.1-13.7
		C480.5,379.2,477.8,381.9,474.2,385.2L474.2,385.2z"/>
	<path class="st1" d="M645.3,487.3c1.9,11.3,4.1,22.4,6,33c20.2-31.3,20.9-67.1,17.8-103.5c1.2-0.2,2.6-0.5,3.9-0.7
		c2.6,7.7,6,14.9,7.5,22.9c7.5,36.3,1.2,69.8-21.7,99.4c-8.4,11.1-10.6,23.3-9.4,36.6c1,11.6,1.4,23.1,2.4,34.7
		c0.2,3.4,1,6.7,2.2,9.9c10.1,27,11.1,42.6,3.1,73.6c-4.1-10.6-7.2-18.5-10.1-26.5c-16.1,19-16.1,19-26,18.5
		c2.6-18,23.1-33,10.3-55.6c-5.1,8.9-9.1,16.6-13.2,24.1c-2.2-16.6-1-31.8,4.3-47.2c5.5-15.9,6.5-33.2,11.3-49.6
		c6.7-22.6,14.7-44.8,7-68.8C642.2,487.5,643.9,487.5,645.3,487.3L645.3,487.3z M605.1,587.6c2.6,34.9-8.9,67.1-17.6,99.9
		c-2.2,7.9-3.6,16.6,2.2,24.3c3.1-2.4,5.8-4.3,8.4-6.5l1.4,1.4c3.1-9.1,6.3-18.5,9.6-27.7c-0.5,22.9-8.7,49.6-14,47.2
		c-1.2,2.9-2.4,6-4.1,10.3l-4.1-8.2c-1.2,2.9-2.4,5.5-4.1,9.1c-1.7-3.9-2.9-6.7-4.1-9.9H576v41.4c-10.3-10.3-11.3-20.9-12-31
		c-1.4-19.7,2.2-38.3,9.4-56.8c9.4-24.3,18.3-49.1,25.5-74.1c2.6-9.1,0.5-19.7,0.5-30.8c2.2,4.1,4.1,7.5,6.3,11.1
		C605.4,587.9,605.1,587.6,605.1,587.6L605.1,587.6z M605.6,511.6c-5.3-21.9-8.9-27.7-20-26c-14,2.2-5.3,13.7-7.9,21.4
		c-1.9-1.4-4.3-2.6-6-4.3c-7.5-7.9-15.9-10.1-26.7-8.2c-14.4,2.9-26-12.5-20-26c1-2.2,6.3-4.6,7.9-3.9c20.9,10.1,41.9,5.8,62.8,0.5
		c6-1.4,12.8-0.5,19.3-0.7c0,6.7,1.2,14-0.2,20.5C612.8,494,608.7,502.7,605.6,511.6L605.6,511.6z M377,248.8
		c2.2,6.5,4.1,13.2,6.7,21.4c12-5.5,24.3-14.7,40.2-14.9c-1.2-2.2-2.4-3.9-3.6-6.3c5.3,1.2,9.9,2.4,14.4,3.6c0.2-1.2,0.7-2.2,1-3.4
		c3.1,2.9,6.3,5.8,11.1,10.3c-1.4-4.6-2.4-7.2-3.4-9.9c11.8,6,13.5,10.3,6.7,21.7c-3.9,6.7-8.7,13-12.8,19.3c-0.7-0.5-1.7-1-2.4-1.7
		c2.4-4.8,4.8-9.6,7.9-16.4c-5.1,1.9-7.9,3.1-12.8,5.3c5.3-6.7,6.5-11.6-2.4-12.8c-7.9,11.1-11.1,11.3-21.9,2.9
		c0.5,2.9,0.7,5.8,1.2,9.4c-0.5,0.2-2.9,0.7-5.3,1.4c1.4,10.6,7.7,13.2,17.3,11.6c-7.7,6.5-9.4,5.8-23.8-8.2
		c-1,12.3-1.7,23.1-2.9,36.6c-5.8-23.6-10.8-44.8-15.9-65.9C376.3,251.4,377,250,377,248.8C377.2,248.6,377,248.8,377,248.8z"/>
	<path class="st0" d="M494.2,177.8c-35.1,28.2-77.7,35.9-120.3,44.3c-45.5,8.9-89.5-0.5-133.3-10.8c-10.6-2.6-21.9-2.6-31.8-3.9
		c10.6-5.8,22.6-3.1,34.4-0.5c17.8,4.1,35.4,10.3,53.4,13c49.8,7.5,97.9,0,143.9-20c16.8-7.2,33-15.4,49.6-23.1
		C491.5,177.3,492.7,177.6,494.2,177.8z"/>
	<path class="st1" d="M413.6,567.9c0.5-7,1-14,1.4-21.9c3.4,6.3,6.3,12,10.1,19.3c3.6-17.1-12-26-13.7-40.9c3.4,2.2,5.5,3.6,8.7,5.5
		c-2.6-6.5-5.1-11.8-7.2-17.1l3.6-1.4c3.1,8.9,6.3,17.8,9.1,27c3.4,10.1,6,20.7,19.5,23.1c-2.9,0.7-6,1.4-6.7,1.7
		c-3.6,7-6.5,12.3-9.1,17.1c-7.5-3.9-13.5-7-19.5-9.9C411.4,569.6,412.4,568.9,413.6,567.9L413.6,567.9z M707.9,622.8
		c8.2-22.1,16.4-44.3,24.5-66.7c1.2,0.2,2.2,0.7,3.4,1c11.1,26.5-1.2,49.1-13,71.7l10.1-41.9c-1-0.5-1.7-0.7-2.6-1.2
		c-7,12.8-14.2,25.5-21.2,38.3C708.4,623.7,708.1,623.2,707.9,622.8L707.9,622.8z M393.8,651.2c-0.2-2.4-0.5-5.1-0.7-7.2
		c8.7,5.3,16.4,10.1,24.5,14.9c15.6,8.9,23.1,19.7,24.5,37.3c-16.8-15.6-32.7-30.6-48.6-45.5L393.8,651.2L393.8,651.2z M406.6,330.4
		c-1.4,2.9-2.6,5.5-4.1,8.4c-2.4,4.3-5.3,8.7-7,13.2c-2.9,8.2-8.2,11.6-15.6,7.2c-9.4-5.5-18-12.5-26-20.2
		c8.7-1.9,16.1-3.6,22.4,4.1c7.7,9.4,14.2,8.4,20.7-2.2c2.4-3.9,4.6-7.9,6.7-12L406.6,330.4L406.6,330.4z M488.6,668.5
		c-10.6,20.2-21.2,40.4-32,60.6c-1.2-0.5-2.4-1.2-3.4-1.7c10.6-20.2,21.2-40.4,31.8-60.9C486.2,667,487.4,667.8,488.6,668.5z
		 M346.4,379.2c19.5-1.4,39-2.9,57.8-4.3c-10.3,7.5-22.4,9.9-36.1,5.5c-3.9-1.2-9.1,1.2-13.7,1.9c-2.6,0.5-5.1,0.7-7.7,1.2
		C346.7,382.1,346.4,380.7,346.4,379.2z M566.9,524.1c12.8-1,25.3-2.2,38-2.4c1.7,0,3.6,4.3,5.3,6.3h-43.6
		C566.6,527,566.6,525.5,566.9,524.1z M472.3,734.2c5.1-17.3,9.9-34.7,14.9-52c1,0.2,1.7,0.5,2.6,0.7c-4.8,17.6-9.6,34.9-14.4,52.5
		C474.4,734.9,473.5,734.4,472.3,734.2L472.3,734.2z"/>
	<path class="st0" d="M278.8,58.2c-2.9,1.9-5.8,3.9-9.6,6.3c3.4-5.3,6.3-9.6,8.9-14.2c-0.5-0.5-1-1.2-1.4-1.7
		c-3.1,2.2-6.3,4.1-9.1,6.3c2.4-13.7,12-20,24.3-24.5c58-21.2,111.9-13.5,162.2,21.7c0.7,0.5,1.4,1.4,0.7,0.7
		c-6.3,23.8-12.3,46.2-18.3,68.8c-44.3-14.2-89-2.4-134.3,5.3c0.2,0.2,0,0-0.2,0c0.7-1.2,1.7-2.2,3.1-4.3c-3.6-0.5-6.5-0.7-12-1.2
		c2.9-1.7,4.6-2.4,6.3-3.4c-0.2-1-0.5-1.9-1-2.6c-6.3,1.2-12.5,2.4-21.4,3.9c7.2-3.6,12-6.3,17.1-8.9c-0.2-0.7-0.2-1.7-0.5-2.4
		c-5.5,1-10.8,1.9-19.3,3.6c6.3-5.1,10.8-8.7,15.2-12.3c-0.2-0.5-0.5-1-0.5-1.4c-3.9,1.2-7.5,2.6-11.3,3.9c-0.2-0.2-0.5-0.7-1-1
		c3.9-3.4,7.5-6.5,12.8-11.3c-5.5,0.7-8.9,1.4-13.5,1.9c2.9-4.1,5.3-7.5,9.1-13c-5.8,2.6-9.1,4.3-14.9,7c5.1-6,8.4-10.3,11.8-14.4
		c-0.2-0.5-0.7-1-1-1.4c-2.6,1.2-5.3,2.2-9.4,4.1c3.1-5.3,5.5-9.6,7.9-14.2C279.5,58.7,279,58.4,278.8,58.2L278.8,58.2z"/>
	<path class="st2" d="M418.9,116.2c0,0,12.5-76.3,19.7-72.7c7,3.6,14.4,3.4,14.4,9.9c0,6.3-16.6,62.6-18,66.4
		C431.9,119.8,418.9,116.2,418.9,116.2z"/>
	<path class="st0" d="M347.6,611.7c-4.1-13-8.2-25.7-12.3-38c10.3,4.6,19.3,27.4,18.3,48.9c-19.7,5.1-39.2,10.8-52.5,32.2
		c5.8-3.4,9.6-5.5,14.9-8.7c-3.9,6-7,10.6-10.3,15.9c3.9,1.7,6.5,2.9,9.4,4.3c-1.7,13.5-13.5,17.6-22.9,23.8
		c0.5,0.7,0.7,1.4,1.2,2.4c7.7-3.4,15.2-6.7,22.1-9.9c-4.3,12.8-19.7,19.3-32.2,13.5c-6.3-3.1-13.2-5.1-19.7-7.7
		c2.4-5.5,4.8-10.8,6.5-15.2c-7.9,0-16.4,2.4-21.7-0.5c-7.2-4.1-13.5-11.6-17.8-18.8c-11.3-18.8-12.5-39.2-8.4-60.4
		c5.1-27,15.9-50.8,35.9-69.1c1,11.1,0.7,22.6,3.6,33.5c3.6,13.7,8.2,27.9,15.9,39.2c14,20.7,15.6,39.9,2.2,61.8
		c9.1-6.7,18-13.7,27.2-20.5c-0.2-0.7-0.7-1.2-1-1.9c-1.9,0.5-3.9,1-3.6,1c7.2-18,14.9-37.5,22.6-57c5.1,11.8-4.1,21.4-4.1,33
		c3.9-8.7,7.7-17.1,12.3-26.7c2.9,9.4,5.8,18,8.4,26.7C344,612.7,345.9,612.2,347.6,611.7z M282.4,619.4c-0.7,0.5-1.4,1-2.2,1.2
		c-0.2,3.6-0.5,7-1,10.6c-3.1-1-6.5-1.7-9.4-2.9c-4.3-1.9-8.2-4.3-14.2-7.5c3.9,6.5,5.8,11.6,8.9,15.4c2.6,3.1,7.9,7.7,9.9,6.7
		c4.1-1.9,7.9-6.5,9.4-10.6C285.3,628.5,283.1,623.7,282.4,619.4L282.4,619.4z M326.7,463.7c5.3,4.6,8.2,7.2,11.3,9.9
		c-0.5,0.7-1,1.2-1.4,1.9c-3.1-1.7-6.3-3.4-9.1-5.3c1.2,14.4,1.2,15.9,14.2,14.7c21.4-2.2,41.2,3.4,61.6,9.4
		c-1.4,7.9-6.7,13.2-14.4,12.8c-13.5-0.7-26.7-3.4-40.2-4.6c-10.6-1-21.7-2.2-32-1c-12.5,1.2-14.7,0.5-15.2-12.5
		c0-1.9,0.2-4.1,0.5-7.2c3.4-0.2,6.5-0.5,9.9-1c2.9-0.5,5.8-1.2,8.7-4.1c-4.1-1.4-7.9-3.1-12-4.1c-5.8-1.4-10.1-9.6-7.7-17.3
		c4.1-13.5,10.1-26.5,21.9-34.7c4.3-3.1,13-3.6,17.8-1.7c16.6,7.2,30.8,17.8,37.8,35.9c1,2.6,4.3,4.3,7,6c8.7,5.1,18,9.4,26.2,14.9
		c2.6,1.9,3.4,6.7,4.8,10.3c-1,0.5-1.9,1-2.9,1.2c-1.9-2.6-3.6-5.3-6-8.7c-1.9,2.4-3.4,4.3-5.8,7.7c-1.2-3.1-1.9-5.3-1.9-5.3
		c-18.5-3.6-35.6-7.2-55.1-11.1c11.6-12.8,9.6-25.7,3.4-38c-1.9-3.6-8.2-5.1-13.5-6c11.3,7.2,13.7,18.5,13,29.4
		C346.7,464.2,337.3,465.6,326.7,463.7L326.7,463.7z M329.8,459.4c-4.6-10.3-8.2-18.5-11.8-26.7c-7.9,3.9-10.3,9.6-8.4,16.6
		c1.7,6.5,15.9,12.5,25.3,11.3v-15.9c-0.7,0-1.4-0.2-2.2-0.2C332,448.5,331.3,452.4,329.8,459.4L329.8,459.4z M366.4,454.5
		c-3.6-7.7-6.5-14.2-10.8-23.3v27.4c6.3-0.5,11.6-0.7,18-1.2c-1.2-4.1-1.9-7.7-3.4-13C368.6,448.8,367.6,451.2,366.4,454.5z"/>
	<path class="st0" d="M287.9,496.7c-1.4,30.6,16.6,49.6,42.4,56.8c-4.3-5.1-8.7-9.9-13.7-15.6c9.4,3.1,18.3,6,29.4,9.4
		c-2.9-3.9-4.3-5.5-6.5-8.4c6.3,2.2,11.3,3.6,17.8,5.8c-12.5,9.4-24.1,17.6-35.4,26.5c-2.9,2.4-4.8,6.3-6.7,9.6
		c-3.1,5.5-5.5,11.6-9.4,19.5c4.1-2.2,6.3-3.4,8.7-4.6c0.7,0.2,1.7,0.7,2.4,1c-4.8,11.1-9.4,22.1-14,32.7c-5.5-9.6-9.6-18-15.2-25.5
		c-14-18.8-21.4-40.7-19.7-63.1c1.2-15.4,11.1-30.1,17.1-45C286,495.9,287,496.2,287.9,496.7z M151,485.4
		c5.8,3.9,11.8,7.5,19.5,12.5c-2.2-4.6-3.4-7.2-4.8-10.1c0.5-0.2,0.7-0.5,1.2-0.7c2.6,3.1,5.1,7,8.2,9.6c10.3,8.4,21.2,16.8,32,24.5
		c4.3,3.1,9.9,4.6,14.4,7.5c11.3,7.2,13.7,17.8,5.1,27.7c-7.5,8.7-18,14.7-25.3,23.6c-7.2,8.7-11.3,19.5-17.8,28.6
		c-3.6,5.1-9.4,8.9-14.9,12.3c-6.3,3.9-14,5.8-19.5-1.2c-5.5-6.7-4.1-14,0.7-20.7c2.2-2.9,4.6-5.8,7-8.7c0.7,0.5,1.7,1,2.4,1.2
		c-0.5,3.6-1,7.2-1.2,10.8c15.4-7,23.6-19.7,21.7-34.9c5.8,2.2,10.8,3.9,16.1,5.8c10.3-8.4,6.5-19,6.3-30.8c6,5.5,12,10.8,17.8,16.4
		c9.1-11.1,6-21.9-8.7-24.3c-8.7-1.4-17.6-0.2-27-0.2c6.7,8.4,14.7,16.8,9.4,29.8c-8.2-5.5-16.4-10.1-23.1-16.1
		c-4.3-4.1-8.9-10.6-8.4-15.6c0.5-3.9,8.4-7.2,13-10.6c1-0.7,2.4-0.7,2.2-0.7c-9.6-10.6-19.7-21.4-30.1-32.5
		C148.6,487.8,149.8,486.6,151,485.4L151,485.4z"/>
	<path class="st3" d="M411.9,148.9c22.9,15.4,24.8,20.9,17.1,44.8c-3.6,11.3-14.2,8.4-21.9,11.1c-1.9,0.7-6.7-4.3-8.7-7.5
		c-13.2-21.9-13.2-21.9,2.4-41.4c2.2-2.6,4.1-5.3,6.7-8.9c-6.3-0.7-11.3-1.4-16.6-2.2c-18.5-1.9-19.7-2.6-31.5-21.9
		c8.4-0.7,15.9-1.9,23.6-1.7c14.2,0.5,28.6,1.2,42.8,2.9c4.3,0.5,10.3,3.6,11.8,7c2.6,6,1.9,12.8-7.7,13.5
		C424.4,145.3,418.9,147.2,411.9,148.9L411.9,148.9z"/>
	<path class="st0" d="M305.8,163.1c22.4-4.3,42.6-8.9,41.6-37.3c1.2,0,2.4-0.2,3.6-0.2c6.5,7.2,11.8,16.6,19.7,20.7
		c7.7,3.9,18.3,2.2,28.9,3.1c-4.6,6-8.2,12-13,17.3c-5.3,5.8-6.5,11.1-1.2,17.6c4.8,6,8.2,13.2,13.7,22.4
		c-12.8-5.3-23.3-9.1-33.7-14c-5.3-2.4-9.1-2.4-13.5,1.9c-5.8,5.5-12.5,10.3-21.2,17.6c1.2-9.4,1.7-15.9,2.9-22.1
		c1.4-6.5,0-10.6-6.5-13.7C320.4,173,314.2,168.2,305.8,163.1L305.8,163.1z M176.8,393.7c12.8-7,25-14.4,38-20.7
		c3.4-1.7,8.7,0.5,13.2,1l0.7,4.3c-10.3,6.3-20.7,12.3-31.5,18.8c15.9,3.9,14,17.6,16.4,29.1c-3.6-4.3-6.7-9.4-11.1-12.8
		c-3.4-2.6-8.7-5.1-12.3-4.1c-2.4,0.7-4.8,7-5.1,11.1c-0.5,12,1.9,23.1,14.2,29.4c13.2,6.7,18.3,18.5,19.3,35.6
		c-19.5-17.1-37.8-31.8-54.4-48.4c-10.3-10.1-12-23.8-7.5-38.7c5.3,1.4,10.1,2.9,14.9,3.9c2.4,0.2,4.8-1,7.5-1.4
		C178.5,398.2,177.7,395.8,176.8,393.7z"/>
	<path class="st3" d="M325.5,213.9c-7.5,0-13.7-0.5-19.7,0.2c-9.1,1.2-14.4-3.6-17.6-11.1c-3.1-7.7,4.6-9.4,8.7-12.5
		c1.4-1,2.9-1.9,5.5-3.9c-13.5-5.3-11.8-14.7-9.1-25c-3.4-1.4-6.7-2.9-10.3-4.6c1-4.3,2.2-8.7,3.1-13.2c-1-0.7-1.9-1.4-2.9-2.4
		c19-5.5,38-10.8,57.5-16.6c0.2,29.4-26,27.4-42.4,38.7c7.7,5.1,14.4,10.3,22.1,14.4c7.9,4.1,10.8,9.1,7.9,17.8
		C326.7,201.6,326.4,207.6,325.5,213.9z"/>
	<path class="st0" d="M460.5,456.7c8.2-10.8-1.9-13-4.8-17.8c-3.4-5.3-7.2-10.3-9.4-17.3c5.3,1.9,10.3,4.6,15.6,6
		c5.5,1.4,11.3,2.9,16.6,1.9c3.1-0.7,7.2-5.5,7.7-8.9c0.2-2.4-4.3-6.7-7.5-7.9c-6.3-2.6-13.2-3.6-22.1-5.8
		c12-13.2,22.9,2.4,35.6-4.3c-8.4-3.4-15.2-6-24.8-9.9c16.8-5.5,28.4,8.7,44.3,2.6c-2.2,6.7-3.4,10.1-4.6,13.7
		c-1.2,3.9-3.6,7.9-3.1,11.6c1,10.3,1.4,20-6.3,28.6c-1.7,1.9,1.2,7.9,1.7,12.3c0.2,2.4,0,5.8-1.4,7.2c-1.7,1.7-5.5,3.1-7.7,2.4
		C480.7,466.6,471.1,461.8,460.5,456.7L460.5,456.7z M122.4,594.8c1.2-1.7,2.4-3.4,3.6-5.3c3.1-2.6,6.3-5.3,9.1-7.7
		c-18,27-3.9,52.2,1.9,77c10.1-10.3,19.7-20,29.4-29.6l1.9,1.9c-0.5,4.3-0.7,8.7-1.2,13c0.5,0.2,1,0.5,1.7,0.7
		c11.3-18.5,22.6-36.8,35.6-58c-2.4,23.6,1,45.7-18.8,60.9c-3.1,2.4-7.2,2.9-13.5,5.3v18.8c-1,0.2-1.9,0.7-2.9,1l-8.7-17.3
		c-1.7,4.3-3.1,7.7-4.6,11.3c-1.2-1.4-2.4-2.6-4.3-4.6l-4.3,8.7c-1.4-1-3.1-2.2-5.1-3.6c-1.7,3.9-3.1,7.2-4.6,11.1
		c-1.2-1.9-2.2-3.9-3.9-6.3c-1.4,1.9-2.6,3.4-5.1,6.7c-1.2-6.7-2.9-11.3-2.4-15.6c1.2-14.2-0.5-27.9-6.3-40.9
		C116.6,612.4,118.8,603.5,122.4,594.8L122.4,594.8z M242.5,310.2c4.3-2.6,8.9-5.5,15.2-9.4c-5.1,11.1-8.7,20.2-13,28.9
		c-5.1,9.4-7.7,18.8-1.9,31.3c0.7-6,1.2-9.6,1.9-14.9c1.9,2.6,3.1,4.1,4.3,5.8c4.1-7,7-22.4,17.6-4.8c-4.3,5.3-8.2,9.9-12,14.4
		c-4.3,4.8-10.3,6.3-14,0.7c-5.1-7.5-9.9-15.9-11.3-24.5c-1.2-7.2,3.1-15.2,5.5-24.5c-5.8-7.2-2.2-23.6,8.4-29.8
		c4.8-2.9,8.2-8.4,12.8-12.3c3.9-3.1,8.2-5.8,12.5-8.4c0.7,0.7,1.2,1.4,1.9,2.2c-2.4,2.9-4.8,5.8-7,8.9c-2.2,2.9-3.6,6.3-4.3,10.3
		c2.6-2.2,5.1-4.3,7.7-6.5c0.7,0.7,1.4,1.4,2.4,2.2c-9.6,9.4-19,18.8-28.6,28.2C241,308.2,241.7,309.2,242.5,310.2z M368.6,539
		c-20.2-0.2-36.1-10.3-52.5-17.8c-2.4-1-4.8-5.5-4.6-7.7c0.5-2.4,4.3-6.3,6.7-6.3c9.6,0.2,19.5,1,28.9,2.6c12.5,2.4,25,5.8,37.5,8.9
		c2.4,0.5,6.5,1.7,6.5,2.9c0,3.1-0.5,7.7-2.4,8.9C382.3,534.2,375.3,536.4,368.6,539z M409.7,471.9c-6.5-7.9-12.5-14.9-18.8-22.6
		c-0.5,0.5-2.4,1.9-4.3,3.6c-1.2-2.4-2.2-4.8-4.1-8.7c4.8-8.2,15.4-11.3,24.5-5.8C418.9,445.4,420.1,455,409.7,471.9z M279.8,211.7
		c-11.8-1.4-18.3-8.9-17.6-18.5c0.7-9.6,1.4-19,2.2-27.7c7.5,1.7,15.2,3.4,23.8,5.3c-2.2,3.4-4.6,7.5-7.5,10.8
		C268.9,194.9,268.7,197.8,279.8,211.7z"/>
	<path class="st0" d="M279.8,337.6c-6-4.8-11.6-8.4-16.1-13.2c-2.6-2.6-5.8-7-5.3-10.3c0.5-4.6,3.6-9.1,6.7-12.8
		c0.5-0.7,7,2.2,9.6,4.8C283.1,314.2,285.3,327.2,279.8,337.6z M223.7,284.6c-3.4-11.6,1.9-20.5,17.8-30.3
		c-3.9,7.5-14.4,10.8-8.9,22.1c16.1-10.1,22.6-33.5,48.4-33.5c-5.1,6-8.7,10.3-12.3,14.7c-0.7-0.2-1.2-0.5-1.9-1
		c0.2-2.2,0.2-4.6,0.5-9.9c-6,6.5-12.5,10.6-14.4,16.1c-3.4,10.1-9.6,14.9-19.3,17.1C230.2,280.8,227.3,282.7,223.7,284.6z
		 M438.6,145.6c4.1,14.9,7.9,28.9,12,43.6c-3.9,1.7-7.9,3.6-13,6c5.1-19-1.2-33.5-16.4-45.7C427.8,148.2,433.3,146.8,438.6,145.6z"
		/>
	<path class="st3" d="M389.3,209.1c-17.1,1.4-34.2,2.9-51.5,4.3C352.4,194.9,359.7,194.2,389.3,209.1z"/>
	<path class="st0" d="M291.8,395.3c0.7-4.1,1.4-10.3,2.6-18.3c10.8,11.1,20.5,20.9,31.8,32.5C313.5,404.3,303.1,400.2,291.8,395.3z
		 M300,441.8c-5.3-7.5-3.9-14.4,0.5-20.2c3.1-4.1,8.9-6.3,13.2-9.1c0.5,1,1.2,1.7,1.7,2.6C310.6,423.7,305.3,432.6,300,441.8
		L300,441.8z M508.9,217.7c6.3,0.5,14.7-5.1,16.6,6c1.7,9.4-4.6,16.8-16.6,18.8c7.7-5.5,14.9-10.6,7.5-21.4c-1.9,3.6-3.4,6.5-6,11.3
		C509.8,226.4,509.3,222.1,508.9,217.7z M388.1,404c-14.9,6.5-17.3,17.3-10.1,31.3c-1.2,0.5-2.4,0.7-3.4,1.2
		c-2.6-2.6-7.5-5.5-7.5-7.9c0.5-6.5,1.7-13.7,5.3-19.3c2.4-3.6,8.9-4.8,13.5-7C386.6,402.8,387.3,403.5,388.1,404z M509.1,217.5
		c-2.4,2.2-4.8,4.3-7,6.5c-6,6-12,6.7-19-1.2c9.1-1.9,14.2-15.9,25.5-5.3C508.9,217.7,509.1,217.5,509.1,217.5L509.1,217.5z
		 M471.6,279.1c7.2,14.2,5.1,27.9-2.6,41.4c1.4-6.7,3.6-13.5,4.1-20.2C473.5,293.3,472.3,286.1,471.6,279.1L471.6,279.1z
		 M474.2,385.2c3.9-3.4,6.5-6,9.6-8.9c3.1,4.3,6.3,8.4,10.1,13.7C487.2,388.4,481.7,387.2,474.2,385.2z"/>
	<path class="st1" d="M282.4,619.4c0.7,4.3,2.9,9.1,1.7,12.8c-1.4,4.3-5.3,8.9-9.4,10.6c-1.9,1-7.2-3.6-9.9-6.7
		c-3.1-3.9-5.3-8.7-8.9-15.4c6,3.1,9.9,5.5,14.2,7.5c2.9,1.4,6.3,1.9,9.4,2.9c0.2-3.6,0.5-7,1-10.6
		C281,620.4,281.7,619.9,282.4,619.4L282.4,619.4z M329.8,459.4c1.4-7,2.2-11.1,2.9-14.9c0.7,0,1.4,0.2,2.2,0.2v15.9
		c-9.6,1.2-23.8-4.8-25.3-11.3c-1.7-7,0.5-12.8,8.4-16.6C321.6,441.1,325.2,449,329.8,459.4L329.8,459.4z M366.4,454.5
		c1.4-3.6,2.4-5.8,3.9-10.1c1.4,5.1,2.4,8.7,3.4,13c-6.5,0.5-11.8,0.7-18,1.2v-27.4C359.7,440.3,362.8,446.8,366.4,454.5z"/>
	<path class="st2" d="M379.2,22.1c0,0,19.3,2.4,35.4,9.9c1.2,0.5-24.1,68.6-22.4,81.3c-2.6,1.2-20,0-29.1,2.2
		C365.2,93.1,365,42.1,379.2,22.1z M310.8,124.4c0,0-19.7-88.1-23.1-90.5c3.4-1.9,20.7-9.9,38.5-11.1c1.7,0,14.2,91.7,11.3,96.3
		C333.4,120.5,310.8,122.7,310.8,124.4z"/>
</g>
</svg>
